<svg width="1245" height="150" viewBox="0 0 1245 150" fill="none" xmlns="http://www.w3.org/2000/svg">
<mask id="mask0_39_18" style="mask-type:alpha" maskUnits="userSpaceOnUse" x="0" y="0" width="1245" height="150">
<rect width="1245" height="150" rx="30" fill="white"/>
</mask>
<g mask="url(#mask0_39_18)">
<path d="M-159 -34L67.1426 75.3023C75.8418 79.5069 86.0337 79.2643 94.523 74.6505L250.592 -10.1694C259.57 -15.0491 270.415 -15.0227 279.37 -10.0995L706.392 224.67C718.493 231.323 733.573 228.856 742.923 218.693L900.403 47.5184C907.043 40.301 916.791 36.7848 926.51 38.1018L1326.58 92.3168C1334.53 93.3938 1342.57 91.2435 1348.93 86.3459L1505 -34" stroke="#87C7FF" stroke-opacity="0.07" stroke-width="6"/>
<path d="M-434 220L-207.857 110.698C-199.158 106.493 -188.966 106.736 -180.477 111.349L-24.4084 196.169C-15.4297 201.049 -4.58466 201.023 4.3702 196.099L431.392 -38.6699C443.493 -45.323 458.573 -42.8556 467.923 -32.6927L625.403 138.482C632.043 145.699 641.791 149.215 651.51 147.898L1051.58 93.6832C1059.53 92.6062 1067.57 94.7565 1073.93 99.6541L1230 220" stroke="#87C7FF" stroke-opacity="0.07" stroke-width="6"/>
</g>
</svg>
