<svg width="24" height="24" viewBox="0 0 24 24" fill="none" xmlns="http://www.w3.org/2000/svg">
<path opacity="0.4" d="M6.64125 18.7608C7.93622 19.7867 9.49861 20.4192 11.1426 20.5829C12.7866 20.7466 14.443 20.4347 15.9149 19.6843C17.3868 18.9339 18.6122 17.7765 19.4453 16.3498C20.2785 14.9232 20.6843 13.2872 20.6146 11.6365C20.5449 9.98588 20.0026 8.38996 19.0522 7.03859C18.1017 5.68721 16.7832 4.63725 15.2533 4.01356C13.7234 3.38987 12.0466 3.2187 10.4222 3.52041C8.79787 3.82212 7.29435 4.58401 6.09047 5.71548L8.46984 8.09485C8.94234 8.56735 8.60766 9.37501 7.93922 9.37501H1.125C0.926088 9.37501 0.735322 9.29599 0.59467 9.15534C0.454018 9.01469 0.375 8.82392 0.375 8.62501V1.81079C0.375 1.14235 1.18266 0.807667 1.65516 1.28017L3.96984 3.59485C6.13031 1.52483 9.00791 0.371004 12 0.37501C18.413 0.37501 23.6133 5.56782 23.625 11.978C23.6367 18.3881 18.4134 23.6203 12.0084 23.625C9.35048 23.6309 6.77144 22.722 4.70437 21.0511C4.58203 20.9518 4.48191 20.8279 4.4105 20.6874C4.3391 20.5469 4.298 20.393 4.28987 20.2357C4.28174 20.0783 4.30675 19.921 4.3633 19.7739C4.41985 19.6268 4.50667 19.4933 4.61812 19.3819L5.14641 18.8536C5.34073 18.6573 5.60047 18.5394 5.87614 18.5223C6.15181 18.5052 6.42414 18.5901 6.64125 18.7608Z" fill="#147BEC"/>
<path d="M13.5 7.125V12.0164L15.4078 13.5C15.5244 13.5907 15.6221 13.7035 15.6951 13.8319C15.7681 13.9603 15.8151 14.1019 15.8335 14.2485C15.8518 14.3951 15.8411 14.5439 15.8019 14.6863C15.7627 14.8288 15.6959 14.9621 15.6052 15.0788L15.1448 15.6703C15.0541 15.7869 14.9414 15.8846 14.8129 15.9576C14.6845 16.0306 14.5429 16.0776 14.3963 16.096C14.2497 16.1143 14.101 16.1036 13.9585 16.0644C13.8161 16.0252 13.6827 15.9584 13.5661 15.8677L10.5 13.4836V7.125C10.5 6.82663 10.6185 6.54048 10.8295 6.3295C11.0405 6.11853 11.3266 6 11.625 6H12.375C12.6734 6 12.9595 6.11853 13.1705 6.3295C13.3815 6.54048 13.5 6.82663 13.5 7.125Z" fill="#147BEC"/>
</svg>
