<svg width="24" height="24" viewBox="0 0 24 24" fill="none" xmlns="http://www.w3.org/2000/svg">
<path opacity="0.4" d="M7.5 22.5H16.5V19.5H7.5V22.5ZM1.5 16.5H4.5V7.5H1.5V16.5ZM7.5 4.5H16.5V1.5H7.5V4.5ZM19.5 7.5V16.5H22.5V7.5H19.5Z" fill="#0972E7"/>
<path d="M6 16.5H1.5C1.10218 16.5 0.720644 16.658 0.43934 16.9393C0.158035 17.2206 0 17.6022 0 18L0 22.5C0 22.8978 0.158035 23.2794 0.43934 23.5607C0.720644 23.842 1.10218 24 1.5 24H6C6.39782 24 6.77936 23.842 7.06066 23.5607C7.34196 23.2794 7.5 22.8978 7.5 22.5V18C7.5 17.6022 7.34196 17.2206 7.06066 16.9393C6.77936 16.658 6.39782 16.5 6 16.5ZM4.5 21H3V19.5H4.5V21ZM22.5 16.5H18C17.6022 16.5 17.2206 16.658 16.9393 16.9393C16.658 17.2206 16.5 17.6022 16.5 18V22.5C16.5 22.8978 16.658 23.2794 16.9393 23.5607C17.2206 23.842 17.6022 24 18 24H22.5C22.8978 24 23.2794 23.842 23.5607 23.5607C23.842 23.2794 24 22.8978 24 22.5V18C24 17.6022 23.842 17.2206 23.5607 16.9393C23.2794 16.658 22.8978 16.5 22.5 16.5ZM21 21H19.5V19.5H21V21ZM22.5 0H18C17.6022 0 17.2206 0.158035 16.9393 0.43934C16.658 0.720644 16.5 1.10218 16.5 1.5V6C16.5 6.39782 16.658 6.77936 16.9393 7.06066C17.2206 7.34196 17.6022 7.5 18 7.5H22.5C22.8978 7.5 23.2794 7.34196 23.5607 7.06066C23.842 6.77936 24 6.39782 24 6V1.5C24 1.10218 23.842 0.720644 23.5607 0.43934C23.2794 0.158035 22.8978 0 22.5 0V0ZM21 4.5H19.5V3H21V4.5ZM6 0H1.5C1.10218 0 0.720644 0.158035 0.43934 0.43934C0.158035 0.720644 0 1.10218 0 1.5L0 6C0 6.39782 0.158035 6.77936 0.43934 7.06066C0.720644 7.34196 1.10218 7.5 1.5 7.5H6C6.39782 7.5 6.77936 7.34196 7.06066 7.06066C7.34196 6.77936 7.5 6.39782 7.5 6V1.5C7.5 1.10218 7.34196 0.720644 7.06066 0.43934C6.77936 0.158035 6.39782 0 6 0V0ZM4.5 4.5H3V3H4.5V4.5Z" fill="#0972E7"/>
</svg>
