<svg width="24" height="19" viewBox="0 0 24 19" fill="none" xmlns="http://www.w3.org/2000/svg">
<path opacity="0.4" d="M3.89998 11.875H2.09998V9.73787C2.10037 9.35996 2.25225 8.99764 2.52229 8.73042C2.79233 8.46319 3.15846 8.31289 3.54035 8.3125H11.1V5.9375H12.9V8.3125H20.4596C20.8415 8.31299 21.2075 8.46332 21.4776 8.73052C21.7476 8.99773 21.8995 9.35999 21.9 9.73787V11.875H20.1V10.0938H12.9V11.875H11.1V10.0938H3.89998V11.875Z" fill="#0870E6"/>
<path d="M4.8 13.0625H1.2C0.88174 13.0625 0.576516 13.1876 0.351472 13.4103C0.126428 13.633 0 13.9351 0 14.25L0 17.8125C0 18.1274 0.126428 18.4295 0.351472 18.6522C0.576516 18.8749 0.88174 19 1.2 19H4.8C5.11826 19 5.42348 18.8749 5.64853 18.6522C5.87357 18.4295 6 18.1274 6 17.8125V14.25C6 13.9351 5.87357 13.633 5.64853 13.4103C5.42348 13.1876 5.11826 13.0625 4.8 13.0625ZM14.4 0H9.6C9.28174 0 8.97652 0.125111 8.75147 0.347811C8.52643 0.57051 8.4 0.872555 8.4 1.1875V4.75C8.4 5.06494 8.52643 5.36699 8.75147 5.58969C8.97652 5.81239 9.28174 5.9375 9.6 5.9375H14.4C14.7183 5.9375 15.0235 5.81239 15.2485 5.58969C15.4736 5.36699 15.6 5.06494 15.6 4.75V1.1875C15.6 0.872555 15.4736 0.57051 15.2485 0.347811C15.0235 0.125111 14.7183 0 14.4 0V0ZM22.8 13.0625H19.2C18.8817 13.0625 18.5765 13.1876 18.3515 13.4103C18.1264 13.633 18 13.9351 18 14.25V17.8125C18 18.1274 18.1264 18.4295 18.3515 18.6522C18.5765 18.8749 18.8817 19 19.2 19H22.8C23.1183 19 23.4235 18.8749 23.6485 18.6522C23.8736 18.4295 24 18.1274 24 17.8125V14.25C24 13.9351 23.8736 13.633 23.6485 13.4103C23.4235 13.1876 23.1183 13.0625 22.8 13.0625ZM13.8 13.0625H10.2C9.88174 13.0625 9.57652 13.1876 9.35147 13.4103C9.12643 13.633 9 13.9351 9 14.25V17.8125C9 18.1274 9.12643 18.4295 9.35147 18.6522C9.57652 18.8749 9.88174 19 10.2 19H13.8C14.1183 19 14.4235 18.8749 14.6485 18.6522C14.8736 18.4295 15 18.1274 15 17.8125V14.25C15 13.9351 14.8736 13.633 14.6485 13.4103C14.4235 13.1876 14.1183 13.0625 13.8 13.0625Z" fill="#0870E6"/>
</svg>
