<svg width="18" height="25" viewBox="0 0 18 25" fill="none" xmlns="http://www.w3.org/2000/svg">
<path opacity="0.4" d="M4.09094 12.5V4.6875C4.09094 3.4443 4.60815 2.25201 5.52878 1.37294C6.44941 0.49386 7.69806 0 9.00003 0C10.302 0 11.5507 0.49386 12.4713 1.37294C13.3919 2.25201 13.9091 3.4443 13.9091 4.6875V12.5C13.9091 13.7432 13.3919 14.9355 12.4713 15.8146C11.5507 16.6936 10.302 17.1875 9.00003 17.1875C7.69806 17.1875 6.44941 16.6936 5.52878 15.8146C4.60815 14.9355 4.09094 13.7432 4.09094 12.5Z" fill="#0870E6"/>
<path d="M18 12.5C18 16.8408 14.6102 20.4331 10.2273 21.0073V22.6562H13.0909C13.3079 22.6562 13.516 22.7386 13.6695 22.8851C13.8229 23.0316 13.9091 23.2303 13.9091 23.4375V24.2188C13.9091 24.426 13.8229 24.6247 13.6695 24.7712C13.516 24.9177 13.3079 25 13.0909 25H4.90909C4.6921 25 4.48399 24.9177 4.33055 24.7712C4.17711 24.6247 4.09091 24.426 4.09091 24.2188V23.4375C4.09091 23.2303 4.17711 23.0316 4.33055 22.8851C4.48399 22.7386 4.6921 22.6562 4.90909 22.6562H7.77273V20.9888C3.27273 20.396 0 16.4941 0 12.1172V10.1562C0 9.94905 0.0862011 9.75034 0.23964 9.60382C0.393079 9.45731 0.601187 9.375 0.818182 9.375H1.63636C1.85336 9.375 2.06147 9.45731 2.21491 9.60382C2.36834 9.75034 2.45455 9.94905 2.45455 10.1562V12.2217C2.45455 15.4839 4.9454 18.4028 8.34597 18.7197C9.25596 18.8059 10.1748 18.7092 11.0433 18.4359C11.9118 18.1626 12.7108 17.7188 13.3889 17.133C14.067 16.5471 14.6092 15.8323 14.9806 15.0344C15.352 14.2365 15.5444 13.3732 15.5455 12.5V10.1562C15.5455 9.94905 15.6317 9.75034 15.7851 9.60382C15.9385 9.45731 16.1466 9.375 16.3636 9.375H17.1818C17.3988 9.375 17.6069 9.45731 17.7604 9.60382C17.9138 9.75034 18 9.94905 18 10.1562V12.5Z" fill="#0870E6"/>
</svg>
