<svg width="24" height="21" viewBox="0 0 24 21" fill="none" xmlns="http://www.w3.org/2000/svg">
<path opacity="0.4" d="M13.4999 4.87891V11.2538C6.23058 11.3588 3.09701 13.1631 5.22231 19.9608C5.45668 20.715 4.54637 21.2995 3.90606 20.8341C1.8553 19.3425 0 16.4897 0 13.6098C0 6.47405 5.97042 4.96516 13.4999 4.87891Z" fill="#0870E6"/>
<path d="M23.7261 8.98624C23.6904 9.02759 23.6517 9.06629 23.6103 9.10202L15.3603 16.227C14.6389 16.8499 13.4999 16.346 13.4999 15.3752V1.12537C13.4999 0.156938 14.638 -0.349308 15.3603 0.274124L23.6103 7.39906C23.7222 7.49565 23.8139 7.61334 23.8802 7.74539C23.9466 7.87744 23.9863 8.02127 23.997 8.16866C24.0078 8.31606 23.9894 8.46412 23.9429 8.60441C23.8964 8.74469 23.8227 8.87444 23.7261 8.98624Z" fill="#0870E6"/>
</svg>
