<svg width="24" height="24" viewBox="0 0 24 24" fill="none" xmlns="http://www.w3.org/2000/svg">
<path opacity="0.4" d="M1.5 7.5V21C1.5 21.3978 1.65804 21.7794 1.93934 22.0607C2.22064 22.342 2.60218 22.5 3 22.5H21C21.3978 22.5 21.7794 22.342 22.0607 22.0607C22.342 21.7794 22.5 21.3978 22.5 21V7.5H1.5ZM15 11.4375C15 11.5867 14.9407 11.7298 14.8352 11.8352C14.7298 11.9407 14.5867 12 14.4375 12H9.5625C9.41332 12 9.27024 11.9407 9.16475 11.8352C9.05926 11.7298 9 11.5867 9 11.4375V11.0625C9 10.9133 9.05926 10.7702 9.16475 10.6648C9.27024 10.5593 9.41332 10.5 9.5625 10.5H14.4375C14.5867 10.5 14.7298 10.5593 14.8352 10.6648C14.9407 10.7702 15 10.9133 15 11.0625V11.4375Z" fill="#0972E7"/>
<path d="M24 3V5.25C24 5.44891 23.921 5.63968 23.7803 5.78033C23.6397 5.92098 23.4489 6 23.25 6H0.75C0.551088 6 0.360322 5.92098 0.21967 5.78033C0.0790176 5.63968 0 5.44891 0 5.25V3C0 2.60218 0.158035 2.22064 0.43934 1.93934C0.720644 1.65804 1.10218 1.5 1.5 1.5H22.5C22.8978 1.5 23.2794 1.65804 23.5607 1.93934C23.842 2.22064 24 2.60218 24 3Z" fill="#0972E7"/>
</svg>
