<svg width="27" height="23" viewBox="0 0 27 23" fill="none" xmlns="http://www.w3.org/2000/svg">
<g clip-path="url(#clip0_939_3077)">
<path opacity="0.4" d="M25.7655 2.70431L23.5385 0.512119C23.204 0.184145 22.7511 0 22.279 0C21.8068 0 21.354 0.184145 21.0194 0.512119L19.404 2.10235C19.3207 2.18469 19.274 2.29614 19.274 2.41231C19.274 2.52849 19.3207 2.63994 19.404 2.72227L23.5202 6.77423C23.6039 6.85619 23.7171 6.90221 23.8351 6.90221C23.9531 6.90221 24.0664 6.85619 24.15 6.77423L25.7655 5.18399C26.0987 4.85471 26.2857 4.4089 26.2857 3.94415C26.2857 3.4794 26.0987 3.03358 25.7655 2.70431ZM19.5089 13.3688L17.6835 15.1656C17.5822 15.2678 17.5249 15.4047 17.5238 15.5475V20.1205H2.92064V5.74552H13.4075C13.5526 5.74442 13.6916 5.68808 13.7954 5.58829L15.6208 3.79141C15.6977 3.71602 15.7501 3.61985 15.7713 3.51511C15.7925 3.41037 15.7817 3.30177 15.7401 3.20311C15.6986 3.10444 15.6282 3.02016 15.5379 2.96094C15.4476 2.90173 15.3414 2.87025 15.2329 2.87052H2.19048C1.60953 2.87052 1.05237 3.09769 0.641576 3.50207C0.230782 3.90644 0 4.45489 0 5.02677L0 20.8393C0 21.4111 0.230782 21.9596 0.641576 22.364C1.05237 22.7683 1.60953 22.9955 2.19048 22.9955H18.254C18.8349 22.9955 19.3921 22.7683 19.8029 22.364C20.2137 21.9596 20.4444 21.4111 20.4444 20.8393V13.7506C20.4447 13.6438 20.4127 13.5393 20.3526 13.4504C20.2924 13.3615 20.2068 13.2922 20.1066 13.2513C20.0063 13.2104 19.896 13.1997 19.7896 13.2206C19.6832 13.2415 19.5855 13.2931 19.5089 13.3688Z" fill="#0972E7"/>
<path d="M22.4889 7.7854C22.5722 7.86774 22.619 7.97919 22.619 8.09537C22.619 8.21154 22.5722 8.32299 22.4889 8.40533L12.5223 18.2163L8.28736 18.679C8.1549 18.6936 8.02078 18.6787 7.89497 18.6353C7.76916 18.592 7.65489 18.5213 7.56063 18.4285C7.46638 18.3357 7.39456 18.2232 7.35051 18.0994C7.30647 17.9756 7.29133 17.8435 7.30621 17.7131L7.77625 13.5444L17.7429 3.73345C17.8266 3.65149 17.9398 3.60547 18.0578 3.60547C18.1758 3.60547 18.289 3.65149 18.3727 3.73345L22.4889 7.7854Z" fill="#0972E7"/>
</g>
<defs>
<clipPath id="clip0_939_3077">
<rect width="26.2857" height="23" fill="white"/>
</clipPath>
</defs>
</svg>
