<svg width="43" height="43" viewBox="0 0 43 43" fill="none" xmlns="http://www.w3.org/2000/svg">
<path opacity="0.4" d="M34.9375 14.7812V12.4297L31.6075 16.125H33.5937C33.9501 16.125 34.2919 15.9834 34.5439 15.7314C34.7959 15.4794 34.9375 15.1376 34.9375 14.7812ZM10.75 22.8437V25.9402L15.6715 21.5H12.0937C11.7374 21.5 11.3956 21.6416 11.1436 21.8936C10.8916 22.1456 10.75 22.4873 10.75 22.8437ZM8.95776 4.47888L6.71874 0L4.47972 4.47972L0 6.71874L4.47972 8.9586L6.71874 13.4375L8.95776 8.9586L13.4375 6.71874L8.95776 4.47888ZM38.5202 28.6664L36.2812 24.1875L34.0422 28.6664L29.5625 30.9062L34.0422 33.1461L36.2812 37.625L38.5202 33.1461L43 30.9062L38.5202 28.6664ZM18.8125 0L17.4687 2.6875L14.7812 4.03125L17.4687 5.37499L18.8125 8.06249L20.1562 5.37499L22.8437 4.03125L20.1562 2.6875L18.8125 0Z" fill="#147BEC"/>
<path d="M42.6531 3.87864L8.15992 42.1133C7.68194 42.641 7.01409 42.9575 6.303 42.9932C5.5919 43.029 4.89569 42.7811 4.3672 42.304C4.3336 42.2737 4.30085 42.2427 4.26893 42.2107L0.786946 38.7313C0.283067 38.2273 0 37.5438 0 36.8311C0 36.1185 0.283067 35.435 0.786946 34.931C0.81886 34.8991 0.851614 34.868 0.884368 34.8378L39.119 0.345422C39.3745 0.115297 39.7084 -0.00817216 40.0521 0.000420159C40.3958 0.00901248 40.7231 0.149013 40.9667 0.391613L42.6027 2.02679C42.8471 2.27004 42.9886 2.59794 42.998 2.94264C43.0074 3.28734 42.8839 3.62245 42.6531 3.87864Z" fill="#147BEC"/>
</svg>
