<svg width="43" height="43" viewBox="0 0 43 43" fill="none" xmlns="http://www.w3.org/2000/svg">
<path opacity="0.4" d="M21.5 0.671875C9.99414 0.671875 0.671875 9.99414 0.671875 21.5C0.671875 33.0059 9.99414 42.3281 21.5 42.3281C33.0059 42.3281 42.3281 33.0059 42.3281 21.5C42.3281 9.99414 33.0059 0.671875 21.5 0.671875ZM33.5938 23.8516C33.5938 24.1189 33.4876 24.3752 33.2986 24.5642C33.1096 24.7532 32.8532 24.8594 32.5859 24.8594H24.8594V32.5859C24.8594 32.8532 24.7532 33.1096 24.5642 33.2986C24.3752 33.4876 24.1189 33.5938 23.8516 33.5938H19.1484C18.8812 33.5938 18.6248 33.4876 18.4358 33.2986C18.2468 33.1096 18.1406 32.8532 18.1406 32.5859V24.8594H10.4141C10.1468 24.8594 9.89043 24.7532 9.70143 24.5642C9.51243 24.3752 9.40625 24.1189 9.40625 23.8516V19.1484C9.40625 18.8812 9.51243 18.6248 9.70143 18.4358C9.89043 18.2468 10.1468 18.1406 10.4141 18.1406H18.1406V10.4141C18.1406 10.1468 18.2468 9.89043 18.4358 9.70143C18.6248 9.51243 18.8812 9.40625 19.1484 9.40625H23.8516C24.1189 9.40625 24.3752 9.51243 24.5642 9.70143C24.7532 9.89043 24.8594 10.1468 24.8594 10.4141V18.1406H32.5859C32.8532 18.1406 33.1096 18.2468 33.2986 18.4358C33.4876 18.6248 33.5938 18.8812 33.5938 19.1484V23.8516Z" fill="#076CDE"/>
<path d="M33.5937 23.8516C33.5937 24.1188 33.4876 24.3752 33.2986 24.5642C33.1096 24.7532 32.8532 24.8594 32.5859 24.8594H24.8594V32.5859C24.8594 32.8532 24.7532 33.1096 24.5642 33.2986C24.3752 33.4876 24.1188 33.5937 23.8516 33.5937H19.1484C18.8811 33.5937 18.6248 33.4876 18.4358 33.2986C18.2468 33.1096 18.1406 32.8532 18.1406 32.5859V24.8594H10.4141C10.1468 24.8594 9.89043 24.7532 9.70143 24.5642C9.51243 24.3752 9.40625 24.1188 9.40625 23.8516V19.1484C9.40625 18.8811 9.51243 18.6248 9.70143 18.4358C9.89043 18.2468 10.1468 18.1406 10.4141 18.1406H18.1406V10.4141C18.1406 10.1468 18.2468 9.89043 18.4358 9.70143C18.6248 9.51243 18.8811 9.40625 19.1484 9.40625H23.8516C24.1188 9.40625 24.3752 9.51243 24.5642 9.70143C24.7532 9.89043 24.8594 10.1468 24.8594 10.4141V18.1406H32.5859C32.8532 18.1406 33.1096 18.2468 33.2986 18.4358C33.4876 18.6248 33.5937 18.8811 33.5937 19.1484V23.8516Z" fill="#086DE0"/>
</svg>
