<svg width="22" height="22" viewBox="0 0 22 22" fill="none" xmlns="http://www.w3.org/2000/svg">
<path d="M3.96131 13.3217H0.990327C0.727676 13.3217 0.475783 13.4279 0.29006 13.617C0.104338 13.8061 0 14.0626 0 14.33V20.38C0 20.6474 0.104338 20.9039 0.29006 21.093C0.475783 21.2821 0.727676 21.3883 0.990327 21.3883H3.96131C4.22396 21.3883 4.47585 21.2821 4.66158 21.093C4.8473 20.9039 4.95164 20.6474 4.95164 20.38V14.33C4.95164 14.0626 4.8473 13.8061 4.66158 13.617C4.47585 13.4279 4.22396 13.3217 3.96131 13.3217ZM19.8066 1.22168H16.8356C16.5729 1.22168 16.321 1.32791 16.1353 1.51701C15.9496 1.70611 15.8452 1.96259 15.8452 2.23001V20.38C15.8452 20.6474 15.9496 20.9039 16.1353 21.093C16.321 21.2821 16.5729 21.3883 16.8356 21.3883H19.8066C20.0692 21.3883 20.3211 21.2821 20.5068 21.093C20.6925 20.9039 20.7969 20.6474 20.7969 20.38V2.23001C20.7969 1.96259 20.6925 1.70611 20.5068 1.51701C20.3211 1.32791 20.0692 1.22168 19.8066 1.22168ZM11.8839 7.27168H8.91295C8.6503 7.27168 8.3984 7.37791 8.21268 7.56701C8.02696 7.75611 7.92262 8.01259 7.92262 8.28001V20.38C7.92262 20.6474 8.02696 20.9039 8.21268 21.093C8.3984 21.2821 8.6503 21.3883 8.91295 21.3883H11.8839C12.1466 21.3883 12.3985 21.2821 12.5842 21.093C12.7699 20.9039 12.8743 20.6474 12.8743 20.38V8.28001C12.8743 8.01259 12.7699 7.75611 12.5842 7.56701C12.3985 7.37791 12.1466 7.27168 11.8839 7.27168Z" fill="#0870E6"/>
</svg>
