<svg width="33" height="33" viewBox="0 0 33 33" fill="none" xmlns="http://www.w3.org/2000/svg">
<circle cx="16.5" cy="16.5" r="16.5" fill="white"/>
<circle cx="16.5" cy="16.5" r="16.35" stroke="black" stroke-opacity="0.22" stroke-width="0.3"/>
<path d="M19.3469 7.98828H13.6471C11.2295 11.1644 11.3947 15.6115 11.3947 15.6115C11.3947 15.6115 11.6331 19.4131 16.4961 19.4233C21.3602 19.4131 21.5985 15.6115 21.5985 15.6115C21.5985 15.6115 21.7633 11.1644 19.3469 7.98828Z" fill="#D6A0A0"/>
<path d="M17.0605 18.8477H15.976V24.3058H17.0605V18.8477Z" fill="#D6A0A0" stroke="#D6A0A0" stroke-width="2"/>
<path d="M19.3238 23.7627H13.9C13.756 23.7627 13.618 23.8199 13.5162 23.9216C13.4145 24.0234 13.3573 24.1614 13.3573 24.3054C13.3573 24.4493 13.4145 24.5873 13.5162 24.6891C13.618 24.7909 13.756 24.848 13.9 24.848H19.3238C19.4677 24.848 19.6057 24.7909 19.7075 24.6891C19.8092 24.5873 19.8664 24.4493 19.8664 24.3054C19.8664 24.1614 19.8092 24.0234 19.7075 23.9216C19.6057 23.8199 19.4677 23.7627 19.3238 23.7627Z" fill="#D6A0A0" stroke="#D6A0A0" stroke-width="2"/>
<path d="M11.3954 15.612C11.3954 15.612 11.6338 19.4136 16.4968 19.4238C21.3609 19.4136 21.5992 15.612 21.5992 15.612C21.6063 15.1881 21.5905 14.764 21.5518 14.3418H11.4423C11.4035 14.764 11.3878 15.1881 11.3954 15.612Z" fill="#A80505"/>
</svg>
