<svg width="33" height="33" viewBox="0 0 33 33" fill="none" xmlns="http://www.w3.org/2000/svg">
<circle cx="16.5" cy="16.5" r="16.5" fill="white"/>
<circle cx="16.5" cy="16.5" r="16.35" stroke="black" stroke-opacity="0.22" stroke-width="0.3"/>
<path d="M18.8324 16.6592H14.3743C13.9309 16.659 13.5058 16.4829 13.1922 16.1694C12.8787 15.8559 12.7025 15.4308 12.7023 14.9874C12.7024 14.544 12.8786 14.1188 13.1921 13.8053C13.5057 13.4918 13.9309 13.3156 14.3743 13.3154H18.8327C19.2761 13.3156 19.7013 13.4918 20.0148 13.8053C20.3283 14.1188 20.5045 14.544 20.5047 14.9874C20.5045 15.4308 20.3282 15.856 20.0146 16.1695C19.701 16.483 19.2758 16.6591 18.8324 16.6592Z" fill="#54C0EB"/>
<path d="M19.3897 25.2977H13.8169C13.5213 25.2976 13.2378 25.1801 13.0288 24.9711C12.8198 24.7621 12.7023 24.4786 12.7023 24.183V17.4955C12.7023 17.1999 12.8198 16.9164 13.0288 16.7074C13.2378 16.4984 13.5213 16.3809 13.8169 16.3809H19.39C19.6856 16.3809 19.9691 16.4984 20.1781 16.7074C20.3871 16.9164 20.5046 17.1999 20.5047 17.4955V24.183C20.5046 24.4787 20.3871 24.7622 20.178 24.9712C19.9689 25.1802 19.6854 25.2977 19.3897 25.2977Z" fill="#84DBFF"/>
<path d="M12.7023 12.48C12.8463 11.5487 13.3187 10.6996 14.0342 10.0862C14.7497 9.47289 15.661 9.13574 16.6033 9.13574C17.5457 9.13574 18.457 9.47289 19.1725 10.0862C19.888 10.6996 20.3604 11.5487 20.5044 12.48L20.3818 11.9894C20.4628 12.1403 20.5049 12.3088 20.5044 12.48C20.5036 12.7754 20.3859 13.0584 20.177 13.2673C19.9682 13.4761 19.6851 13.5938 19.3897 13.5947H13.8169C13.5216 13.5938 13.2385 13.4761 13.0297 13.2673C12.8208 13.0584 12.7031 12.7754 12.7023 12.48C12.7018 12.3088 12.7439 12.1403 12.8248 11.9894Z" fill="#84DBFF"/>
<path d="M18.2768 7.46387H14.9317C14.7839 7.46394 14.6422 7.52268 14.5377 7.62718C14.4332 7.73169 14.3745 7.87341 14.3744 8.0212V9.13587C14.3745 9.28366 14.4332 9.42538 14.5377 9.52988C14.6422 9.63439 14.7839 9.69313 14.9317 9.6932H18.2768C18.4246 9.69313 18.5663 9.63439 18.6708 9.52988C18.7753 9.42538 18.834 9.28366 18.8341 9.13587V8.0212C18.834 7.87341 18.7753 7.73169 18.6708 7.62718C18.5663 7.52268 18.4246 7.46394 18.2768 7.46387Z" fill="#008DC5"/>
</svg>
