<svg width="33" height="33" viewBox="0 0 33 33" fill="none" xmlns="http://www.w3.org/2000/svg">
<circle cx="16.5" cy="16.5" r="16.5" fill="white"/>
<circle cx="16.5" cy="16.5" r="16.35" stroke="black" stroke-opacity="0.22" stroke-width="0.3"/>
<path d="M20.9505 11.0752L24.1216 14.1544C24.2 14.2304 24.259 14.3241 24.2937 14.4276C24.3283 14.5311 24.3375 14.6414 24.3206 14.7493C24.3036 14.8571 24.261 14.9593 24.1963 15.0472C24.1316 15.1351 24.0467 15.2062 23.9488 15.2544L19.8107 17.2973L20.5427 11.2195C20.548 11.1748 20.5657 11.1325 20.5938 11.0974C20.6219 11.0622 20.6593 11.0357 20.7017 11.0207C20.7442 11.0056 20.7899 11.0028 20.8339 11.0124C20.8779 11.0221 20.9182 11.0438 20.9505 11.0752Z" fill="#48B434"/>
<path d="M12.1521 11.0752L8.98122 14.1547C8.9028 14.2306 8.8438 14.3243 8.80918 14.4278C8.77455 14.5314 8.76533 14.6417 8.78227 14.7495C8.79922 14.8574 8.84184 14.9596 8.90655 15.0475C8.97125 15.1354 9.05615 15.2065 9.15407 15.2547L13.2922 17.2976L12.5599 11.2195C12.5546 11.1748 12.5368 11.1325 12.5087 11.0974C12.4806 11.0622 12.4433 11.0357 12.4008 11.0207C12.3584 11.0056 12.3126 11.0028 12.2687 11.0124C12.2247 11.0221 12.1843 11.0438 12.1521 11.0752Z" fill="#48B434"/>
<path d="M16.5853 12.9838C16.8548 12.9838 17.1217 12.9307 17.3707 12.8276C17.6198 12.7244 17.846 12.5732 18.0366 12.3826C18.2272 12.192 18.3784 11.9657 18.4816 11.7167C18.5847 11.4677 18.6378 11.2008 18.6378 10.9312V10.084L18.4668 10.1691L17.783 10.5096C17.4108 10.6948 17.0008 10.7911 16.5851 10.7911C16.1695 10.7911 15.7595 10.6948 15.3873 10.5096L14.5335 10.0848V10.932C14.5337 11.4761 14.75 11.9979 15.1347 12.3826C15.5194 12.7674 16.0412 12.9836 16.5853 12.9838Z" fill="#2DA517"/>
<path d="M20.6403 11.5582L21.1452 16.6169V22.113C21.1452 22.2916 21.0743 22.4629 20.948 22.5891C20.8217 22.7154 20.6504 22.7864 20.4718 22.7864H12.6304C12.4518 22.7864 12.2806 22.7154 12.1543 22.5891C12.028 22.4629 11.9571 22.2916 11.9571 22.113V11.563C11.9571 11.428 11.9976 11.2962 12.0734 11.1846C12.1492 11.073 12.2567 10.9868 12.3821 10.937L14.5326 10.084V10.9312C14.5326 11.2008 14.5857 11.4677 14.6889 11.7168C14.792 11.9658 14.9432 12.1921 15.1338 12.3827C15.3245 12.5733 15.5507 12.7245 15.7998 12.8277C16.0488 12.9308 16.3157 12.9839 16.5853 12.9839C16.8549 12.9839 17.1218 12.9308 17.3708 12.8277C17.6199 12.7245 17.8462 12.5733 18.0368 12.3827C18.2274 12.1921 18.3786 11.9658 18.4817 11.7168C18.5849 11.4677 18.638 11.2008 18.638 10.9312V10.084L20.7259 10.9347C20.9794 11.0381 20.6405 11.2846 20.6405 11.558L20.6403 11.5582Z" fill="#5DD546"/>
</svg>
