<svg width="33" height="33" viewBox="0 0 33 33" fill="none" xmlns="http://www.w3.org/2000/svg">
<circle cx="16.5" cy="16.5" r="16.5" fill="white"/>
<circle cx="16.5" cy="16.5" r="16.35" stroke="black" stroke-opacity="0.22" stroke-width="0.3"/>
<path d="M21.6696 21.0381H19.6047C19.432 21.0381 19.2664 20.9695 19.1443 20.8474C19.0222 20.7253 18.9536 20.5597 18.9536 20.387C18.9536 20.2143 19.0222 20.0487 19.1443 19.9266C19.2664 19.8045 19.432 19.7359 19.6047 19.7359H21.6696C22.0147 19.7352 22.3455 19.5977 22.5895 19.3537C22.8336 19.1096 22.971 18.7789 22.9718 18.4337C22.9715 18.0884 22.8342 17.7574 22.5901 17.5132C22.3459 17.269 22.0149 17.1316 21.6696 17.1313H20.3666C20.2811 17.1313 20.1964 17.1145 20.1174 17.0817C20.0384 17.049 19.9667 17.0011 19.9062 16.9406C19.8457 16.8801 19.7978 16.8084 19.7651 16.7294C19.7323 16.6504 19.7155 16.5657 19.7155 16.4802C19.7155 16.3947 19.7323 16.31 19.7651 16.231C19.7978 16.152 19.8457 16.0803 19.9062 16.0198C19.9667 15.9593 20.0384 15.9114 20.1174 15.8787C20.1964 15.8459 20.2811 15.8291 20.3666 15.8291H21.6696C22.3601 15.8298 23.0222 16.1044 23.5106 16.5927C23.9989 17.0811 24.2735 17.7432 24.2742 18.4337C24.2733 19.1242 23.9986 19.7862 23.5103 20.2744C23.022 20.7626 22.3601 21.0373 21.6696 21.0381Z" fill="#653804"/>
<path d="M14.4296 13.9574C14.33 13.9576 14.2328 13.9274 14.1509 13.8707C14.069 13.814 14.0064 13.7336 13.9715 13.6403C13.9366 13.547 13.9311 13.4453 13.9558 13.3488C13.9804 13.2523 14.034 13.1656 14.1093 13.1005C14.16 13.0609 14.2003 13.0096 14.2266 12.9509C14.2529 12.8923 14.2646 12.8281 14.2605 12.7639C14.2501 12.6924 14.2228 12.6245 14.1807 12.5658C14.1386 12.5071 14.0831 12.4593 14.0187 12.4266C13.8186 12.3171 13.6479 12.1608 13.5213 11.971C13.3946 11.7812 13.3157 11.5636 13.2914 11.3368C13.272 11.1179 13.3058 10.8975 13.3899 10.6944C13.4739 10.4914 13.6059 10.3116 13.7744 10.1705C13.8227 10.1285 13.879 10.0963 13.9398 10.076C14.0006 10.0557 14.0648 10.0475 14.1287 10.052C14.1927 10.0564 14.2552 10.0735 14.3125 10.1021C14.3699 10.1307 14.4211 10.1703 14.4632 10.2187C14.5052 10.2671 14.5374 10.3233 14.5577 10.3841C14.578 10.4449 14.5862 10.5091 14.5817 10.5731C14.5773 10.6371 14.5602 10.6995 14.5316 10.7569C14.503 10.8143 14.4634 10.8655 14.415 10.9075C14.3643 10.9471 14.324 10.9984 14.2977 11.0571C14.2714 11.1157 14.2598 11.1799 14.2639 11.2441C14.2744 11.3156 14.3019 11.3836 14.3442 11.4423C14.3864 11.501 14.4421 11.5487 14.5066 11.5814C14.7066 11.6911 14.877 11.8475 15.0034 12.0373C15.1298 12.2271 15.2085 12.4447 15.2326 12.6715C15.252 12.8905 15.2181 13.1109 15.134 13.3141C15.0499 13.5172 14.9179 13.697 14.7494 13.8382C14.6603 13.915 14.5467 13.9573 14.4291 13.9574H14.4296Z" fill="#AD6C55" stroke="#AD6C55"/>
<path d="M16.4643 12.4192C16.3647 12.4194 16.2675 12.3892 16.1856 12.3325C16.1037 12.2758 16.0411 12.1954 16.0062 12.1021C15.9713 12.0088 15.9658 11.9071 15.9905 11.8106C16.0151 11.7141 16.0687 11.6274 16.144 11.5622C16.1947 11.5227 16.235 11.4713 16.2613 11.4127C16.2876 11.354 16.2993 11.2899 16.2951 11.2257C16.2846 11.1541 16.2571 11.0862 16.2148 11.0275C16.1726 10.9688 16.1169 10.9211 16.0524 10.8884C15.8524 10.7787 15.682 10.6222 15.5556 10.4324C15.4292 10.2426 15.3505 10.0251 15.3264 9.79831C15.307 9.57934 15.3407 9.35893 15.4248 9.15579C15.5088 8.95266 15.6406 8.77281 15.8091 8.63153C15.9072 8.54931 16.0338 8.50895 16.1614 8.51912C16.2891 8.5293 16.4077 8.5892 16.4916 8.68593C16.5755 8.78267 16.6181 8.90849 16.6101 9.0363C16.6022 9.16412 16.5444 9.28371 16.4491 9.36931C16.3985 9.40887 16.3582 9.46021 16.3319 9.51886C16.3055 9.57751 16.2939 9.6417 16.298 9.70586C16.3086 9.77741 16.3361 9.84539 16.3784 9.90408C16.4206 9.96278 16.4763 10.0105 16.5408 10.0432C16.7407 10.1529 16.9112 10.3093 17.0376 10.4991C17.164 10.6889 17.2427 10.9065 17.2668 11.1332C17.2861 11.3523 17.2523 11.5727 17.1682 11.7758C17.084 11.979 16.9521 12.1588 16.7836 12.3C16.6948 12.3769 16.5813 12.4192 16.4638 12.4192H16.4643Z" fill="#AD6C55" stroke="#AD6C55"/>
<path d="M15.1575 23.4798C13.6038 23.478 12.1143 22.8601 11.0157 21.7615C9.91706 20.6628 9.2991 19.1733 9.29736 17.6196V15.1779C9.29736 15.0484 9.34883 14.9241 9.44043 14.8325C9.53203 14.7409 9.65627 14.6895 9.78582 14.6895H20.5294C20.659 14.6895 20.7832 14.7409 20.8748 14.8325C20.9664 14.9241 21.0179 15.0484 21.0179 15.1779V17.6196C21.0181 18.682 20.7311 19.7246 20.1871 20.637C20.1736 20.6597 20.1584 20.6812 20.1415 20.7015C19.6144 21.5491 18.8805 22.2488 18.0086 22.7348C17.1368 23.2208 16.1556 23.4772 15.1575 23.4798Z" fill="#814400"/>
</svg>
