<svg width="33" height="33" viewBox="0 0 33 33" fill="none" xmlns="http://www.w3.org/2000/svg">
<circle cx="16.5" cy="16.5" r="16.5" fill="white"/>
<circle cx="16.5" cy="16.5" r="16.35" stroke="black" stroke-opacity="0.22" stroke-width="0.3"/>
<path d="M22.971 19.6776L21.8202 19.0131L22.691 18.642C22.7653 18.6111 22.8328 18.5657 22.8895 18.5085C22.9462 18.4513 22.991 18.3835 23.0214 18.3089C23.0518 18.2344 23.0671 18.1545 23.0664 18.074C23.0658 17.9935 23.0492 17.9139 23.0176 17.8398C22.9861 17.7657 22.9401 17.6986 22.8825 17.6424C22.8249 17.5861 22.7567 17.5419 22.6819 17.5121C22.607 17.4823 22.527 17.4677 22.4465 17.469C22.366 17.4703 22.2866 17.4876 22.2127 17.5197L20.4986 18.2502L18.3837 17.0292C18.4462 16.7455 18.4462 16.4515 18.3837 16.1678L20.4986 14.946L22.2127 15.6765C22.2866 15.7086 22.366 15.7259 22.4465 15.7272C22.527 15.7285 22.607 15.7139 22.6819 15.6841C22.7567 15.6544 22.8249 15.6101 22.8825 15.5538C22.9401 15.4976 22.9861 15.4305 23.0176 15.3564C23.0492 15.2823 23.0658 15.2027 23.0664 15.1222C23.0671 15.0417 23.0518 14.9618 23.0214 14.8873C22.991 14.8127 22.9462 14.7449 22.8895 14.6877C22.8328 14.6305 22.7653 14.5852 22.691 14.5542L21.8202 14.1831L22.971 13.5186C23.0403 13.4786 23.1011 13.4253 23.1499 13.3617C23.1987 13.2982 23.2344 13.2256 23.2552 13.1482C23.2759 13.0709 23.2812 12.9902 23.2707 12.9108C23.2603 12.8313 23.2343 12.7548 23.1942 12.6854C23.1542 12.616 23.1009 12.5552 23.0373 12.5064C22.9738 12.4577 22.9012 12.4219 22.8239 12.4012C22.7465 12.3804 22.6658 12.3751 22.5864 12.3856C22.5069 12.3961 22.4304 12.4221 22.361 12.4621L21.2102 13.1266L21.3244 12.1868C21.3428 12.0268 21.2971 11.866 21.1973 11.7395C21.0975 11.613 20.9518 11.5311 20.7918 11.5117C20.6319 11.4923 20.4708 11.5369 20.3437 11.6359C20.2165 11.7349 20.1337 11.8801 20.1133 12.0399L19.8889 13.8895L17.7732 15.1115C17.5587 14.9157 17.3045 14.7685 17.0278 14.6802V12.2384L18.5173 11.1191C18.6466 11.0218 18.732 10.8772 18.7547 10.7169C18.7774 10.5567 18.7355 10.3941 18.6383 10.2647C18.541 10.1354 18.3964 10.05 18.2362 10.0273C18.0759 10.0046 17.9133 10.0465 17.7839 10.1437L17.0278 10.7123V9.38341C17.0278 9.22164 16.9636 9.06649 16.8492 8.9521C16.7348 8.8377 16.5796 8.77344 16.4178 8.77344C16.2561 8.77344 16.1009 8.8377 15.9865 8.9521C15.8721 9.06649 15.8079 9.22164 15.8079 9.38341V10.7123L15.0512 10.1437C14.9219 10.0465 14.7592 10.0046 14.599 10.0273C14.4388 10.05 14.2941 10.1354 14.1969 10.2647C14.0996 10.3941 14.0578 10.5567 14.0805 10.7169C14.1031 10.8772 14.1886 11.0218 14.3179 11.1191L15.8073 12.2384V14.6802C15.5307 14.7685 15.2764 14.9157 15.062 15.1115L12.9466 13.8903L12.7221 12.0407C12.7129 11.9608 12.688 11.8835 12.6489 11.8133C12.6097 11.743 12.557 11.6812 12.4939 11.6314C12.4307 11.5816 12.3583 11.5448 12.2809 11.523C12.2035 11.5013 12.1225 11.4951 12.0426 11.5048C11.9628 11.5145 11.8857 11.5399 11.8157 11.5795C11.7457 11.6191 11.6842 11.6722 11.6348 11.7356C11.5854 11.7991 11.549 11.8717 11.5278 11.9493C11.5066 12.0268 11.5009 12.1078 11.5111 12.1876L11.6252 13.1273L10.4742 12.4629C10.4048 12.4228 10.3282 12.3968 10.2488 12.3864C10.1694 12.3759 10.0887 12.3812 10.0113 12.402C9.93393 12.4227 9.8614 12.4585 9.79785 12.5072C9.7343 12.556 9.68098 12.6168 9.64092 12.6862C9.60087 12.7555 9.57488 12.8321 9.56442 12.9115C9.55397 12.991 9.55926 13.0717 9.57999 13.149C9.60072 13.2264 9.63649 13.2989 9.68526 13.3625C9.73402 13.426 9.79483 13.4794 9.8642 13.5194L11.015 14.1839L10.1442 14.555C10.0147 14.6101 9.90834 14.7082 9.84296 14.8327C9.77758 14.9573 9.75725 15.1006 9.78542 15.2384C9.81358 15.3762 9.88851 15.5 9.99751 15.5889C10.1065 15.6778 10.2429 15.7263 10.3836 15.7262C10.5488 15.7262 10.4574 15.7474 12.3366 14.9468L14.4515 16.1678C14.389 16.4515 14.389 16.7455 14.4515 17.0292L12.3366 18.2502L10.6224 17.5197C10.5486 17.4876 10.4691 17.4703 10.3886 17.469C10.3081 17.4677 10.2281 17.4823 10.1533 17.5121C10.0785 17.5419 10.0103 17.5861 9.95266 17.6424C9.89503 17.6986 9.8491 17.7657 9.81754 17.8398C9.78597 17.9139 9.76938 17.9935 9.76873 18.074C9.76808 18.1545 9.78338 18.2344 9.81374 18.3089C9.84411 18.3835 9.88894 18.4513 9.94566 18.5085C10.0024 18.5657 10.0698 18.6111 10.1442 18.642L11.015 19.0131L9.8642 19.6776C9.79483 19.7176 9.73402 19.771 9.68527 19.8346C9.63651 19.8981 9.60075 19.9707 9.58003 20.0481C9.55931 20.1254 9.55403 20.2062 9.5645 20.2856C9.57497 20.365 9.60099 20.4416 9.64106 20.511C9.68112 20.5803 9.73446 20.6411 9.79803 20.6899C9.8616 20.7387 9.93415 20.7744 10.0115 20.7951C10.0889 20.8159 10.1696 20.8211 10.2491 20.8107C10.3285 20.8002 10.4051 20.7742 10.4744 20.7341L11.6255 20.0697L11.5111 21.0091C11.5009 21.0889 11.5066 21.1699 11.5278 21.2475C11.549 21.325 11.5854 21.3976 11.6348 21.4611C11.6842 21.5246 11.7457 21.5776 11.8157 21.6173C11.8857 21.6569 11.9628 21.6822 12.0426 21.6919C12.1225 21.7016 12.2035 21.6954 12.2809 21.6737C12.3583 21.652 12.4307 21.6151 12.4939 21.5653C12.557 21.5155 12.6097 21.4537 12.6489 21.3835C12.688 21.3132 12.7129 21.2359 12.7221 21.156L12.9466 19.3065L15.062 18.0852C15.2764 18.2811 15.5307 18.4282 15.8073 18.5166V20.9583L14.3179 22.0777C14.1886 22.1749 14.1031 22.3196 14.0805 22.4798C14.0578 22.64 14.0996 22.8027 14.1969 22.932C14.2941 23.0613 14.4388 23.1468 14.599 23.1694C14.7592 23.1921 14.9219 23.1503 15.0512 23.053L15.8079 22.4844V23.8133C15.8079 23.9751 15.8721 24.1302 15.9865 24.2446C16.1009 24.359 16.2561 24.4233 16.4178 24.4233C16.5796 24.4233 16.7348 24.359 16.8492 24.2446C16.9636 24.1302 17.0278 23.9751 17.0278 23.8133V22.4842L17.7845 23.0527C17.9138 23.15 18.0765 23.1919 18.2367 23.1692C18.3969 23.1465 18.5415 23.0611 18.6388 22.9317C18.736 22.8024 18.7779 22.6397 18.7552 22.4795C18.7325 22.3193 18.6471 22.1747 18.5178 22.0774L17.0283 20.958V18.5163C17.305 18.4279 17.5593 18.2808 17.7737 18.0849L19.8891 19.3062L20.1136 21.1558C20.134 21.3156 20.2168 21.4608 20.3439 21.5598C20.4711 21.6588 20.6322 21.7034 20.7921 21.684C20.952 21.6646 21.0978 21.5827 21.1976 21.4562C21.2973 21.3297 21.343 21.1689 21.3246 21.0088L21.2104 20.0691L22.361 20.7341C22.5008 20.8114 22.6654 20.8307 22.8194 20.788C22.9734 20.7452 23.1044 20.6437 23.1843 20.5053C23.2642 20.3669 23.2866 20.2027 23.2467 20.048C23.2068 19.8932 23.1078 19.7603 22.971 19.6778V19.6776ZM15.6248 16.5984C15.6248 16.4415 15.6713 16.2882 15.7584 16.1578C15.8456 16.0274 15.9694 15.9257 16.1144 15.8657C16.2593 15.8057 16.4187 15.79 16.5726 15.8206C16.7264 15.8512 16.8677 15.9267 16.9786 16.0376C17.0895 16.1485 17.1651 16.2898 17.1957 16.4437C17.2263 16.5975 17.2105 16.7569 17.1505 16.9019C17.0905 17.0468 16.9889 17.1706 16.8584 17.2578C16.728 17.3449 16.5747 17.3914 16.4178 17.3914C16.2076 17.3912 16.006 17.3076 15.8573 17.1589C15.7086 17.0102 15.625 16.8086 15.6248 16.5984Z" fill="#6AB5F8"/>
</svg>
