<svg width="33" height="33" viewBox="0 0 33 33" fill="none" xmlns="http://www.w3.org/2000/svg">
<circle cx="16.5" cy="16.5" r="16.5" fill="white"/>
<circle cx="16.5" cy="16.5" r="16.35" stroke="black" stroke-opacity="0.22" stroke-width="0.3"/>
<path d="M16.8947 9.82148C16.8408 9.87539 16.7722 9.91212 16.6975 9.92702C16.6228 9.94191 16.5453 9.9343 16.4749 9.90515C16.4045 9.876 16.3444 9.82663 16.3021 9.76327C16.2598 9.69991 16.2372 9.62543 16.2372 9.54924L16.2374 8.00897C16.2374 7.90686 16.278 7.80893 16.3502 7.73673C16.4224 7.66452 16.5203 7.62396 16.6224 7.62396C16.7245 7.62396 16.8225 7.66452 16.8947 7.73673C16.9669 7.80893 17.0075 7.90686 17.0075 8.00898L17.0075 9.54943C17.0075 9.59997 16.9976 9.65001 16.9782 9.6967C16.9589 9.74339 16.9305 9.78579 16.8947 9.82148Z" fill="#FFDD54"/>
<path d="M16.8947 9.82218C16.9305 9.78645 16.9589 9.74399 16.9783 9.69723C16.9976 9.65048 17.0075 9.60036 17.0074 9.54976L17.0074 8.00931C17.0074 7.95874 16.9975 7.90868 16.9781 7.86196C16.9588 7.81525 16.9304 7.77281 16.8947 7.73705C16.8589 7.7013 16.8165 7.67294 16.7698 7.65359C16.723 7.63424 16.673 7.62429 16.6224 7.62429L16.6219 9.9357C16.6726 9.93575 16.7228 9.92574 16.7696 9.90625C16.8164 9.88677 16.8589 9.85819 16.8947 9.82218Z" fill="#FFB454"/>
<path d="M19.4616 12.0453C19.4078 12.0992 19.3392 12.1359 19.2645 12.1508C19.1898 12.1657 19.1123 12.1581 19.0419 12.129C18.9715 12.0998 18.9113 12.0504 18.869 11.9871C18.8267 11.9237 18.8042 11.8492 18.8042 11.7731L18.8042 10.2326C18.8042 10.182 18.8142 10.132 18.8335 10.0853C18.8529 10.0386 18.8812 9.99611 18.917 9.96035C18.9527 9.9246 18.9952 9.89624 19.0419 9.87689C19.0886 9.85755 19.1387 9.84759 19.1892 9.84759C19.2398 9.84759 19.2898 9.85755 19.3366 9.87689C19.3833 9.89624 19.4257 9.9246 19.4615 9.96036C19.4972 9.99611 19.5256 10.0386 19.5449 10.0853C19.5643 10.132 19.5742 10.182 19.5742 10.2326L19.5742 11.7731C19.5743 11.8236 19.5644 11.8737 19.5451 11.9204C19.5258 11.9671 19.4974 12.0096 19.4616 12.0453Z" fill="#EC8600"/>
<path d="M14.3278 12.0453C14.274 12.0992 14.2054 12.1359 14.1307 12.1508C14.056 12.1657 13.9785 12.1581 13.9081 12.129C13.8377 12.0998 13.7776 12.0504 13.7352 11.9871C13.6929 11.9237 13.6704 11.8492 13.6704 11.7731L13.6704 10.2326C13.6704 10.1305 13.711 10.0326 13.7832 9.96036C13.8189 9.92461 13.8614 9.89624 13.9081 9.87689C13.9548 9.85754 14.0049 9.84759 14.0554 9.84759C14.106 9.84759 14.1561 9.85755 14.2028 9.87689C14.2495 9.89624 14.2919 9.9246 14.3277 9.96036C14.3634 9.99611 14.3918 10.0386 14.4111 10.0853C14.4305 10.132 14.4404 10.182 14.4404 10.2326L14.4404 11.7731C14.4405 11.8236 14.4306 11.8737 14.4113 11.9204C14.392 11.9671 14.3636 12.0096 14.3278 12.0453Z" fill="#FFB454"/>
<path d="M16.8948 25.4376C16.841 25.4915 16.7724 25.5282 16.6977 25.5431C16.6229 25.558 16.5455 25.5504 16.4751 25.5213C16.4047 25.4921 16.3445 25.4428 16.3022 25.3794C16.2599 25.316 16.2374 25.2416 16.2374 25.1654L16.2374 13.1762C16.2374 13.0741 16.278 12.9762 16.3502 12.904C16.4224 12.8318 16.5203 12.7912 16.6224 12.7912C16.7245 12.7912 16.8225 12.8318 16.8947 12.904C16.9669 12.9762 17.0074 13.0741 17.0074 13.1762L17.0074 25.1654C17.0075 25.216 16.9976 25.2661 16.9783 25.3128C16.9589 25.3596 16.9305 25.4021 16.8947 25.4378L16.8948 25.4376Z" fill="#FFB454"/>
<path d="M16.8947 25.4367C16.9305 25.401 16.9589 25.3585 16.9783 25.3118C16.9976 25.265 17.0076 25.2149 17.0075 25.1643L17.0075 13.1752C17.0075 13.1246 16.9975 13.0745 16.9782 13.0278C16.9588 12.9811 16.9305 12.9387 16.8947 12.9029C16.8589 12.8672 16.8165 12.8388 16.7698 12.8195C16.7231 12.8001 16.673 12.7901 16.6224 12.7902L16.6226 25.5499C16.6732 25.55 16.7233 25.54 16.7701 25.5207C16.8169 25.5013 16.8593 25.4729 16.8951 25.4371L16.8947 25.4367Z" fill="#EC8600"/>
<path d="M16.9892 13.3891C16.9425 13.4321 16.9121 13.4573 16.9053 13.463C16.8259 13.5266 16.7273 13.5612 16.6256 13.5612C16.524 13.5612 16.4253 13.5266 16.346 13.463C16.2999 13.4251 15.2196 12.5233 15.2196 11.3633C15.2196 10.2032 16.3 9.30132 16.346 9.26354C16.4253 9.19999 16.524 9.16536 16.6256 9.16536C16.7273 9.16536 16.8259 9.19999 16.9053 9.26354C16.9512 9.30132 18.0309 10.204 18.0316 11.3633C18.0314 12.3483 17.2523 13.1474 16.9892 13.3891Z" fill="#FFDD54"/>
<path d="M16.905 13.463C16.9113 13.4567 16.9424 13.4319 16.9889 13.3891C17.2521 13.1474 18.0305 12.3476 18.0312 11.3635C18.0312 10.2034 16.951 9.30169 16.9048 9.26373C16.8258 9.19966 16.727 9.16497 16.6252 9.16558L16.6254 13.5612C16.7271 13.5618 16.826 13.5271 16.905 13.463Z" fill="#FFB454"/>
<path d="M19.4424 11.3896C19.3808 11.3864 17.9227 11.3226 17.0297 12.1426C16.8722 12.2882 16.7364 12.4556 16.6266 12.6398C16.5163 12.4558 16.3801 12.2886 16.2223 12.1433C15.3296 11.3233 13.8714 11.3874 13.8099 11.3903C13.7109 11.3918 13.6158 11.4296 13.5429 11.4966C13.4699 11.5636 13.4242 11.6551 13.4144 11.7537C13.4108 11.8102 13.3414 13.1497 14.2342 13.9699C15.0811 14.7479 16.4362 14.7311 16.6256 14.7238C16.8166 14.7296 18.1702 14.7479 19.0171 13.9699C19.9106 13.1504 19.8404 11.8102 19.8375 11.7531C19.8277 11.6546 19.7821 11.5631 19.7092 11.4961C19.6364 11.4291 19.5414 11.3912 19.4424 11.3896Z" fill="#FFB454"/>
<path d="M16.6257 14.7246C16.8166 14.7303 18.1702 14.7487 19.0171 13.9706C19.9107 13.1512 19.8405 11.8109 19.8375 11.7539C19.8277 11.6553 19.782 11.5638 19.709 11.4968C19.6361 11.4298 19.541 11.3919 19.442 11.3905C19.3801 11.3879 17.9219 11.3238 17.0291 12.1441C16.8714 12.2897 16.7356 12.4572 16.6257 12.6415L16.6257 14.7246Z" fill="#EC8600"/>
<path d="M19.4424 13.5078C19.3808 13.5046 17.9227 13.4407 17.0297 14.2608C16.8722 14.4063 16.7364 14.5738 16.6266 14.758C16.5163 14.574 16.3801 14.4068 16.2223 14.2615C15.3296 13.4415 13.8714 13.5055 13.8099 13.5085C13.7109 13.5099 13.6158 13.5477 13.5429 13.6147C13.4699 13.6818 13.4242 13.7733 13.4144 13.8719C13.4108 13.9283 13.3414 15.2678 14.2342 16.0881C15.0817 16.8666 16.438 16.8474 16.626 16.842C16.8177 16.8485 18.1707 16.8655 19.0171 16.0881C19.9106 15.2686 19.8404 13.9283 19.8375 13.8713C19.8278 13.7728 19.7821 13.6812 19.7093 13.6142C19.6364 13.5471 19.5414 13.5093 19.4424 13.5078Z" fill="#FFDD54"/>
<path d="M16.6263 16.8426C16.8179 16.849 18.171 16.8661 19.0173 16.0886C19.9109 15.2691 19.8405 13.9291 19.8377 13.8718C19.8279 13.7733 19.7821 13.6819 19.7092 13.6149C19.6363 13.548 19.5413 13.5101 19.4423 13.5087C19.3801 13.5061 17.9219 13.442 17.0291 14.2622C16.8714 14.4079 16.7356 14.5754 16.6257 14.7597L16.6257 16.8427L16.6263 16.8426Z" fill="#FFB454"/>
<path d="M19.4424 15.6259C19.3808 15.6228 17.9227 15.5589 17.0297 16.3789C16.8722 16.5245 16.7364 16.692 16.6266 16.8762C16.5163 16.6921 16.3802 16.5249 16.2223 16.3797C15.3296 15.5596 13.8714 15.6237 13.8099 15.6267C13.7109 15.6281 13.6158 15.6659 13.5429 15.7329C13.4699 15.7999 13.4242 15.8914 13.4144 15.99C13.4108 16.0465 13.3414 17.386 14.2342 18.2062C15.0813 18.9844 16.4366 18.967 16.6258 18.9604C16.8169 18.9663 18.1705 18.9842 19.0172 18.2064C19.9108 17.3869 19.8404 16.0469 19.8377 15.9896C19.828 15.891 19.7824 15.7995 19.7095 15.7324C19.6366 15.6653 19.5415 15.6274 19.4424 15.6259Z" fill="#FFB454"/>
<path d="M16.6257 18.9599C16.8168 18.9659 18.1704 18.9838 19.0171 18.206C19.9107 17.3865 19.8405 16.0463 19.8375 15.9892C19.8277 15.8907 19.7819 15.7993 19.709 15.7323C19.6361 15.6653 19.5411 15.6275 19.4421 15.6261C19.3801 15.6233 17.9219 15.5592 17.0291 16.3794C16.8714 16.525 16.7356 16.6926 16.6257 16.8769L16.6257 18.9599Z" fill="#EC8600"/>
<path d="M19.4424 17.7441C19.3808 17.7409 17.9227 17.677 17.0297 18.4971C16.8722 18.6427 16.7364 18.8101 16.6266 18.9943C16.5163 18.8103 16.3802 18.6431 16.2223 18.4978C15.3296 17.6778 13.8714 17.7419 13.8099 17.7448C13.7109 17.7462 13.6158 17.7841 13.5429 17.8511C13.4699 17.9181 13.4242 18.0096 13.4144 18.1082C13.4108 18.1647 13.3414 19.5042 14.2342 20.3244C15.0813 21.1026 16.4366 21.0852 16.6258 21.0785C16.8169 21.0844 18.1705 21.1024 19.0172 20.3246C19.9108 19.5051 19.8406 18.1648 19.8377 18.1078C19.8279 18.0092 19.7823 17.9177 19.7094 17.8506C19.6365 17.7835 19.5415 17.7456 19.4424 17.7441Z" fill="#FFDD54"/>
<path d="M16.6261 21.0771C16.8172 21.083 18.1708 21.101 19.0175 20.3232C19.911 19.5037 19.8409 18.1634 19.8379 18.1064C19.828 18.0079 19.7823 17.9164 19.7094 17.8495C19.6365 17.7825 19.5415 17.7447 19.4425 17.7432C19.3801 17.7405 17.9219 17.6764 17.029 18.4966C16.8715 18.6422 16.7357 18.8096 16.6259 18.9939L16.6257 21.0771L16.6261 21.0771Z" fill="#FFB454"/>
</svg>
