<svg width="33" height="33" viewBox="0 0 33 33" fill="none" xmlns="http://www.w3.org/2000/svg">
<circle cx="16.5" cy="16.5" r="16.5" fill="white"/>
<circle cx="16.5" cy="16.5" r="16.35" stroke="black" stroke-opacity="0.22" stroke-width="0.3"/>
<path d="M10.8692 15.3496H23.4406V16.3972C23.4406 17.9254 22.8335 19.3909 21.753 20.4715C20.6724 21.5521 19.2068 22.1591 17.6787 22.1591H15.5834C14.0553 22.1591 12.5897 21.5521 11.5092 20.4715C10.4286 19.3909 9.82153 17.9254 9.82153 16.3972V16.3972C9.82153 16.1194 9.93191 15.8529 10.1284 15.6564C10.3248 15.46 10.5913 15.3496 10.8692 15.3496V15.3496Z" fill="#BF5EFF"/>
<path d="M20.007 9.21973L16.4606 15.3622L20.9297 13.8224L22.5548 11.8438C21.9533 10.7586 21.074 9.85298 20.007 9.21973Z" fill="#BF5EFF"/>
<path d="M22.5548 11.8438L16.4606 15.3622H23.434C23.4319 14.1353 23.1301 12.9275 22.5548 11.8438Z" fill="#A931F8"/>
<path d="M16.7857 8.25C17.928 8.29032 19.0407 8.62405 20.0166 9.21905C20.0064 9.20019 16.4607 15.3633 16.4607 15.3633V8.57502C16.4607 8.48882 16.4949 8.40615 16.5559 8.3452C16.6168 8.28424 16.6995 8.25 16.7857 8.25V8.25Z" fill="#D298F8"/>
<path d="M20.4427 24.2544C19.504 24.2544 18.7404 23.4907 18.7404 22.552C18.7404 21.6133 19.504 20.8496 20.4427 20.8496C21.3814 20.8496 22.1451 21.6133 22.1451 22.552C22.1451 23.4907 21.3814 24.2544 20.4427 24.2544Z" fill="#D298F8"/>
<path d="M20.4426 21.3738C19.7928 21.3738 19.264 21.9025 19.264 22.5524C19.264 23.2022 19.7928 23.7309 20.4426 23.7309C21.0925 23.7309 21.6212 23.2022 21.6212 22.5524C21.6212 21.9025 21.0925 21.3738 20.4426 21.3738ZM20.4426 20.3262C21.6721 20.3262 22.6688 21.3229 22.6688 22.5524C22.6688 23.7819 21.6721 24.7786 20.4426 24.7786C19.2131 24.7786 18.2164 23.7819 18.2164 22.5524C18.2164 21.3229 19.2131 20.3262 20.4426 20.3262Z" fill="#A931F8"/>
<path d="M13.2263 24.5532C12.2876 24.5532 11.5239 23.7895 11.5239 22.8508C11.5239 21.9121 12.2876 21.1484 13.2263 21.1484C14.165 21.1484 14.9287 21.9121 14.9287 22.8508C14.9287 23.7895 14.165 24.5532 13.2263 24.5532Z" fill="#D298F8"/>
<path d="M13.2262 21.6726C12.5763 21.6726 12.0476 22.2013 12.0476 22.8512C12.0476 23.5011 12.5763 24.0298 13.2262 24.0298C13.8761 24.0298 14.4048 23.5011 14.4048 22.8512C14.4048 22.2013 13.8761 21.6726 13.2262 21.6726ZM13.2262 20.625C14.4557 20.625 15.4524 21.6217 15.4524 22.8512C15.4524 24.0807 14.4557 25.0774 13.2262 25.0774C11.9967 25.0774 11 24.0807 11 22.8512C11 21.6217 11.9967 20.625 13.2262 20.625Z" fill="#A931F8"/>
</svg>
