<svg width="33" height="33" viewBox="0 0 33 33" fill="none" xmlns="http://www.w3.org/2000/svg">
<circle cx="16.5" cy="16.5" r="16.5" fill="white"/>
<circle cx="16.5" cy="16.5" r="16.35" stroke="black" stroke-opacity="0.22" stroke-width="0.3"/>
<path d="M14.0308 11.3739L15.2879 13.2915L18.3456 12.3138C18.3456 12.3138 16.7779 10.4868 14.0308 11.3739Z" fill="#87C7FF"/>
<path d="M15.2878 19.7842L14.0306 21.7019C16.7778 22.5892 18.345 20.7619 18.345 20.7619L15.2878 19.7842Z" fill="#87C7FF"/>
<path d="M19.3184 12.2402C16.1939 12.2402 12.4618 14.7265 11.4579 16.0117V17.0643C12.4618 18.3497 16.1936 20.8357 19.3184 20.8357C22.9647 20.8357 25.0979 16.5378 25.0979 16.5378C25.0979 16.5378 22.9647 12.2402 19.3184 12.2402Z" fill="#38A5F6"/>
<path d="M25.0979 16.5375C25.0979 16.5375 23.6163 13.5536 21.0122 12.5586C20.1632 13.7115 19.7052 15.1058 19.7052 16.5376C19.7052 17.9694 20.1632 19.3637 21.0122 20.5166C23.6163 19.5216 25.0979 16.5375 25.0979 16.5375Z" fill="#87C7FF"/>
<path d="M9.25683 16.5386C8.86089 16.2257 8.54103 15.8271 8.3213 15.3728C8.10156 14.9185 7.98766 14.4203 7.98816 13.9156C7.98827 13.7761 7.99702 13.6368 8.01435 13.4984C8.44861 13.4386 8.89063 13.4726 9.31067 13.5979C9.7307 13.7233 10.119 13.9372 10.4494 14.2253C10.7799 14.5133 11.0447 14.8688 11.2262 15.2678C11.4077 15.6668 11.5016 16.1001 11.5016 16.5385C11.5016 16.9768 11.4077 17.4101 11.2262 17.8091C11.0447 18.2081 10.7799 18.5636 10.4494 18.8516C10.119 19.1397 9.7307 19.3536 9.31067 19.479C8.89063 19.6044 8.44861 19.6383 8.01435 19.5785C7.99701 19.44 7.98827 19.3006 7.98816 19.161C7.98774 18.6565 8.10168 18.1584 8.32141 17.7042C8.54115 17.25 8.86096 16.8514 9.25683 16.5386Z" fill="#87C7FF"/>
<path d="M21.4048 16.5205C21.8996 16.5205 22.3007 16.1193 22.3007 15.6245C22.3007 15.1297 21.8996 14.7285 21.4048 14.7285C20.9099 14.7285 20.5088 15.1297 20.5088 15.6245C20.5088 16.1193 20.9099 16.5205 21.4048 16.5205Z" fill="#007AD5"/>
</svg>
