<svg width="33" height="33" viewBox="0 0 33 33" fill="none" xmlns="http://www.w3.org/2000/svg">
<circle cx="16.5" cy="16.5" r="16.5" fill="white"/>
<circle cx="16.5" cy="16.5" r="16.35" stroke="black" stroke-opacity="0.22" stroke-width="0.3"/>
<path d="M24.0596 20.9041C24.0617 19.4293 23.6594 14.2645 19.162 10.4803C18.4729 9.90368 17.6668 9.48363 16.7995 9.24917C15.9321 9.0147 15.0242 8.97141 14.1384 9.12228C12.9148 9.33091 11.7831 9.90551 10.8927 10.7703C10.0022 11.6351 9.39477 12.7495 9.15045 13.9665C8.97449 14.8684 9.00151 15.7981 9.22956 16.6883C9.45761 17.5785 9.88095 18.4067 10.4689 19.1129C11.0568 19.8191 11.7946 20.3856 12.6287 20.7713C13.4627 21.1569 14.3722 21.352 15.2911 21.3425C15.19 21.3189 17.1406 21.2377 18.6455 22.9925C19.039 23.4502 19.5576 23.7829 20.1378 23.9496C20.7179 24.1163 21.334 24.1097 21.9104 23.9306C22.4002 23.7922 22.8436 23.5242 23.1938 23.1549C23.7653 22.5465 24.0761 21.7386 24.0596 20.9041Z" fill="#FF637B"/>
<path d="M23.1793 20.9004C23.1561 19.0428 22.7354 17.2117 21.9455 15.5303C21.1555 13.8488 20.0147 12.356 18.5996 11.1523C17.5892 10.3039 16.2988 9.86243 14.9804 9.91425C13.662 9.96607 12.4102 10.5074 11.4695 11.4326C10.7211 12.1649 10.213 13.1074 10.0125 14.1352C9.86293 14.9097 9.88749 15.7078 10.0845 16.4717C10.2814 17.2356 10.6458 17.9461 11.1513 18.5517C11.6568 19.1573 12.2907 19.6429 13.007 19.9732C13.7234 20.3036 14.5043 20.4705 15.2931 20.4617C16.6901 20.4921 18.0194 21.07 18.9946 22.0709C19.5239 22.6002 20.1779 23.5032 21.6723 23.0797C22.0162 22.983 22.3279 22.796 22.5751 22.5381C22.9813 22.0913 23.1979 21.504 23.1793 20.9004Z" fill="#FF637B"/>
<path d="M22.301 21.0564L22.2947 20.9006C22.2506 19.4015 21.9463 17.9216 21.3953 16.5268C21.3181 16.3268 21.1923 16.1492 21.0292 16.01C20.8662 15.8709 20.671 15.7746 20.4614 15.7298C20.2498 15.6834 20.03 15.6899 19.8215 15.7485C19.613 15.8072 19.4221 15.9162 19.2658 16.0661C18.7229 16.584 18.2366 17.158 17.8148 17.7784C17.6778 17.9777 17.5471 18.1831 17.4288 18.3887C17.3368 18.5438 17.2777 18.7161 17.2552 18.8951C17.2326 19.074 17.2472 19.2556 17.2978 19.4287C17.4079 19.7759 17.6493 20.0663 17.9704 20.2382C18.7374 20.6399 19.4192 21.1864 19.9781 21.8476C20.1561 22.0482 20.3893 22.1918 20.6485 22.2604C20.9077 22.3291 21.1814 22.3198 21.4354 22.2337C21.6356 22.1826 21.8144 22.0692 21.9461 21.91C22.159 21.6747 22.2844 21.3733 22.301 21.0564Z" fill="#B20844"/>
<path d="M16.2086 18.7987C16.7772 17.6178 17.5391 16.5403 18.4628 15.6105C18.6933 15.38 18.9361 15.1621 19.1914 14.9442C19.3226 14.8305 19.4298 14.6918 19.5068 14.5362C19.5839 14.3807 19.6293 14.2113 19.6403 14.0381C19.6513 13.8648 19.6277 13.6911 19.571 13.527C19.5143 13.3629 19.4255 13.2118 19.3098 13.0823C18.9781 12.7012 18.6201 12.3437 18.2386 12.0125C17.4376 11.2779 16.4038 10.8481 15.3181 10.7983C14.7243 10.7834 14.1335 10.8875 13.5806 11.1046C13.0277 11.3217 12.5238 11.6473 12.0988 12.0622C11.4746 12.6688 11.049 13.4504 10.8783 14.3039C10.7456 14.9488 10.7591 15.6153 10.9177 16.2543C11.0763 16.8933 11.3761 17.4887 11.795 17.9967C12.1696 18.4648 12.6402 18.8471 13.1752 19.1179C13.7101 19.3886 14.2969 19.5414 14.8959 19.5661C15.1669 19.5875 15.438 19.5255 15.6726 19.3883C15.9073 19.2511 16.0944 19.0454 16.2086 18.7987Z" fill="#B20844"/>
<path d="M15.8284 13.3001C15.582 13.0538 15.2682 12.886 14.9265 12.818C14.5849 12.7501 14.2307 12.7849 13.9089 12.9182C13.587 13.0515 13.3119 13.2773 13.1184 13.5669C12.9248 13.8566 12.8215 14.1971 12.8215 14.5455C12.8215 14.8939 12.9248 15.2344 13.1184 15.524C13.3119 15.8137 13.587 16.0394 13.9089 16.1727C14.2307 16.3061 14.5849 16.3409 14.9265 16.2729C15.2682 16.205 15.582 16.0372 15.8284 15.7908C16.1573 15.4599 16.342 15.0122 16.342 14.5455C16.342 14.0788 16.1573 13.6311 15.8284 13.3001Z" fill="#FFF5F5"/>
<path d="M14.5832 15.4261C15.0695 15.4261 15.4637 15.0319 15.4637 14.5456C15.4637 14.0593 15.0695 13.665 14.5832 13.665C14.0969 13.665 13.7026 14.0593 13.7026 14.5456C13.7026 15.0319 14.0969 15.4261 14.5832 15.4261Z" fill="#EFE2DD"/>
</svg>
