<svg width="33" height="33" viewBox="0 0 33 33" fill="none" xmlns="http://www.w3.org/2000/svg">
<circle cx="16.5" cy="16.5" r="16.5" fill="white"/>
<circle cx="16.5" cy="16.5" r="16.35" stroke="black" stroke-opacity="0.22" stroke-width="0.3"/>
<path d="M12.1207 21.526C12.1207 21.526 10.8898 17.302 16.2256 16.361C16.2256 16.361 20.7924 15.7555 20.7594 21.526C20.7594 21.526 20.4289 23.4089 18.5979 22.4026C18.5979 22.4026 17.5406 20.965 16.0603 21.3799C15.2878 21.6949 14.6392 22.2534 14.2131 22.9707C14.2131 22.9707 12.7729 24.4064 12.1207 21.526Z" fill="#9B6236"/>
<path d="M16.0308 12.2732C15.8357 13.6228 15.507 14.8281 14.4772 14.9582C13.4474 15.0884 12.4752 14.0968 12.3034 12.7438C12.1316 11.3908 12.8272 10.1889 13.857 10.0588C14.8868 9.9286 16.2728 10.5972 16.0308 12.2732Z" fill="#9B6236"/>
<path d="M20.5932 12.5033C20.5932 13.9849 19.7203 15.186 18.6438 15.186C17.5674 15.186 16.7581 13.8241 16.6945 12.5033C16.623 11.0232 17.5677 9.82031 18.6441 9.82031C19.7205 9.82031 20.5932 11.0214 20.5932 12.5033Z" fill="#9B6236"/>
<path d="M23.5817 15.9132C23.5817 17.0697 22.7931 17.6661 21.8963 18.0084C21.026 18.3394 20.2107 17.0705 20.2107 15.9132C20.1931 15.4197 20.3537 14.9363 20.6632 14.5515C20.9728 14.1668 21.4105 13.9063 21.8963 13.8179C22.8989 13.633 23.5817 14.7568 23.5817 15.9132Z" fill="#9B6236"/>
<path d="M9.2977 15.9132C9.2977 17.0697 10.0863 17.6661 10.9833 18.0084C11.8534 18.3394 12.6689 17.0705 12.6689 15.9132C12.6866 15.4197 12.526 14.9363 12.2164 14.5515C11.9069 14.1668 11.4692 13.9063 10.9833 13.8179C9.98075 13.633 9.2977 14.7568 9.2977 15.9132Z" fill="#9B6236"/>
</svg>
