<svg width="33" height="33" viewBox="0 0 33 33" fill="none" xmlns="http://www.w3.org/2000/svg">
<circle cx="16.5" cy="16.5" r="16.5" fill="white"/>
<circle cx="16.5" cy="16.5" r="16.35" stroke="black" stroke-opacity="0.22" stroke-width="0.3"/>
<path d="M23.7934 19.882C23.5192 19.885 23.2471 19.8337 22.9929 19.7309C22.7387 19.6281 22.5073 19.4759 22.3124 19.2831C22.1174 19.0902 21.9626 18.8607 21.8569 18.6076C21.7513 18.3546 21.6969 18.0831 21.6969 17.8088C21.6969 17.5346 21.7513 17.2631 21.8569 17.0101C21.9626 16.757 22.1174 16.5274 22.3124 16.3346C22.5073 16.1418 22.7387 15.9896 22.9929 15.8868C23.2471 15.784 23.5192 15.7327 23.7934 15.7357C23.8495 15.7357 23.9033 15.7134 23.943 15.6738C23.9827 15.6341 24.005 15.5802 24.005 15.5241V15.0396C24.0051 14.8241 23.9366 14.6142 23.8095 14.4403C23.6823 14.2663 23.5032 14.1373 23.2979 14.0719L13.3811 10.917C13.2146 10.864 13.0372 10.8548 12.8661 10.8905C12.695 10.9261 12.536 11.0053 12.4045 11.1205L9.12044 13.9938C9.01151 14.0891 8.92422 14.2066 8.86441 14.3384C8.80461 14.4702 8.77367 14.6133 8.77368 14.758V20.389C8.77368 20.6583 8.88066 20.9166 9.07109 21.107C9.26151 21.2974 9.51978 21.4044 9.78909 21.4044H22.9891C23.2584 21.4044 23.5167 21.2974 23.7071 21.107C23.8975 20.9166 24.0045 20.6583 24.0045 20.389V20.093C24.0045 20.0369 23.9822 19.9831 23.9425 19.9434C23.9028 19.9037 23.849 19.8814 23.7929 19.8814L23.7934 19.882Z" fill="#FACC0A"/>
<path d="M23.7934 19.8817C23.5192 19.8848 23.2471 19.8335 22.9929 19.7307C22.7387 19.6279 22.5073 19.4757 22.3124 19.2828C22.1174 19.09 21.9626 18.8605 21.8569 18.6074C21.7513 18.3543 21.6969 18.0828 21.6969 17.8086C21.6969 17.5344 21.7513 17.2629 21.8569 17.0098C21.9626 16.7568 22.1174 16.5272 22.3124 16.3344C22.5073 16.1416 22.7387 15.9894 22.9929 15.8866C23.2471 15.7838 23.5192 15.7324 23.7934 15.7355C23.8495 15.7355 23.9033 15.7132 23.943 15.6735C23.9827 15.6338 24.005 15.58 24.005 15.5239V15.0585C24.005 14.8565 23.9248 14.6628 23.7819 14.5199C23.6391 14.3771 23.4454 14.2969 23.2434 14.2969H9.5353C9.33331 14.2969 9.13959 14.3771 8.99675 14.5199C8.85392 14.6628 8.77368 14.8565 8.77368 15.0585V20.3893C8.77368 20.6586 8.88066 20.9169 9.07109 21.1073C9.26151 21.2977 9.51978 21.4047 9.78909 21.4047H22.9891C23.2584 21.4047 23.5167 21.2977 23.7071 21.1073C23.8975 20.9169 24.0045 20.6586 24.0045 20.3893V20.0931C24.0045 20.037 23.9822 19.9831 23.9425 19.9434C23.9028 19.9038 23.849 19.8815 23.7929 19.8815L23.7934 19.8817Z" fill="#FAA01E"/>
<path d="M12.8357 19.8824C13.677 19.8824 14.359 19.2004 14.359 18.3592C14.359 17.5179 13.677 16.8359 12.8357 16.8359C11.9945 16.8359 11.3125 17.5179 11.3125 18.3592C11.3125 19.2004 11.9945 19.8824 12.8357 19.8824Z" fill="#DC6E1E"/>
<path d="M18.4204 16.8355C18.9812 16.8355 19.4358 16.3809 19.4358 15.8201C19.4358 15.2593 18.9812 14.8047 18.4204 14.8047C17.8596 14.8047 17.405 15.2593 17.405 15.8201C17.405 16.3809 17.8596 16.8355 18.4204 16.8355Z" fill="#DC6E1E"/>
<path d="M16.3894 20.8973C16.8101 20.8973 17.151 20.5563 17.151 20.1356C17.151 19.715 16.8101 19.374 16.3894 19.374C15.9688 19.374 15.6278 19.715 15.6278 20.1356C15.6278 20.5563 15.9688 20.8973 16.3894 20.8973Z" fill="#DC6E1E"/>
</svg>
