<svg width="33" height="33" viewBox="0 0 33 33" fill="none" xmlns="http://www.w3.org/2000/svg">
<circle cx="16.5" cy="16.5" r="16.5" fill="white"/>
<circle cx="16.5" cy="16.5" r="16.35" stroke="black" stroke-opacity="0.22" stroke-width="0.3"/>
<path d="M17.8919 13.1276H15.3702C15.2852 13.1276 15.2025 13.1001 15.1345 13.0491L14.0822 12.2597C13.959 12.1674 13.8572 12.0497 13.7835 11.9145C13.7098 11.7794 13.666 11.63 13.6551 11.4765C13.6442 11.323 13.6664 11.1689 13.7203 11.0247C13.7741 10.8805 13.8583 10.7496 13.9672 10.6408L13.9693 10.6387C14.106 10.5019 14.2782 10.406 14.4665 10.3618C14.6548 10.3176 14.8517 10.3269 15.035 10.3886L15.684 10.6052L16.3534 9.93605C16.4271 9.86256 16.5269 9.82129 16.6309 9.82129C16.735 9.82129 16.8348 9.86256 16.9084 9.93605L17.5776 10.6052L18.2266 10.3889C18.4099 10.3271 18.6069 10.3178 18.7953 10.362C18.9836 10.4063 19.1559 10.5023 19.2925 10.6393L19.2946 10.6414C19.4035 10.7501 19.4877 10.8811 19.5416 11.0253C19.5954 11.1694 19.6176 11.3235 19.6067 11.477C19.5958 11.6305 19.552 11.7799 19.4784 11.9151C19.4047 12.0502 19.3028 12.1679 19.1796 12.2602L18.1273 13.0496C18.0593 13.1006 17.9766 13.1281 17.8916 13.1281L17.8919 13.1276Z" fill="#5EAC24"/>
<path d="M16.631 23.4392C15.7349 23.438 14.8478 23.2601 14.0205 22.9159C13.1932 22.5716 12.4418 22.0676 11.8094 21.4327C11.177 20.7979 10.6759 20.0446 10.3348 19.216C9.99367 18.3873 9.81923 17.4996 9.82143 16.6035C9.82052 15.4758 10.267 14.3938 11.0628 13.5949C11.8587 12.7959 12.939 12.3453 14.0666 12.3418H19.1953C20.323 12.3453 21.4032 12.7959 22.1991 13.5949C22.9949 14.3938 23.4414 15.4758 23.4405 16.6035C23.4427 17.4996 23.2683 18.3874 22.9272 19.216C22.5861 20.0447 22.085 20.798 21.4526 21.4328C20.8202 22.0677 20.0688 22.5717 19.2415 22.9159C18.4141 23.2602 17.5271 23.438 16.631 23.4392Z" fill="#FF3501"/>
</svg>
