<svg width="33" height="33" viewBox="0 0 33 33" fill="none" xmlns="http://www.w3.org/2000/svg">
<circle cx="16.5" cy="16.5" r="16.5" fill="white"/>
<circle cx="16.5" cy="16.5" r="16.35" stroke="black" stroke-opacity="0.22" stroke-width="0.3"/>
<path d="M18.2249 9.12274L17.6139 11.0051H14.2615L13.6518 9.12274C13.626 9.05409 13.6176 8.98013 13.6273 8.90743C13.6369 8.83474 13.6644 8.76556 13.7073 8.70605C13.7514 8.64675 13.8086 8.59838 13.8744 8.56469C13.9402 8.53099 14.0129 8.51287 14.0868 8.51172H17.7899C17.8638 8.51287 17.9364 8.53099 18.0022 8.56469C18.068 8.59838 18.1252 8.64675 18.1694 8.70605C18.2122 8.76556 18.2397 8.83474 18.2494 8.90743C18.2591 8.98013 18.2507 9.05409 18.2249 9.12274Z" fill="#FF873C"/>
<path d="M17.6141 11.0051H15.9379V8.51172H17.7893C17.8632 8.51287 17.9359 8.53099 18.0017 8.56469C18.0675 8.59838 18.1247 8.64675 18.1688 8.70605C18.2117 8.76556 18.2392 8.83474 18.2489 8.90743C18.2586 8.98013 18.2501 9.05409 18.2244 9.12274L17.6141 11.0051Z" fill="#FF873C"/>
<path d="M18.253 11.3203C17.6056 11.3218 16.9701 11.4936 16.4102 11.8186C15.8503 12.1436 15.3859 12.6103 15.0635 13.1717H18.253C18.7472 13.1787 19.2187 13.3803 19.5653 13.7327C19.9119 14.085 20.1056 14.5598 20.1044 15.054C20.1044 15.545 19.9094 16.016 19.5622 16.3632C19.215 16.7104 18.744 16.9054 18.253 16.9054V18.7584C19.2394 18.7584 20.1853 18.3666 20.8828 17.6691C21.5802 16.9717 21.9721 16.0257 21.9721 15.0394C21.9721 14.053 21.5802 13.1071 20.8828 12.4096C20.1853 11.7121 19.2394 11.3203 18.253 11.3203Z" fill="#92D8FF"/>
<path d="M20.0487 16.9055L19.2064 17.8324H12.6148L11.8291 16.9065C12.3129 16.1964 12.9566 15.6098 13.7085 15.1939L13.9215 14.5552C14.3043 13.4036 14.2144 12.1472 13.6716 11.0619C13.6377 10.9919 13.6217 10.9146 13.625 10.8369C13.6282 10.7592 13.6506 10.6836 13.6902 10.6166C13.7331 10.5496 13.7918 10.4943 13.8613 10.4555C13.9308 10.4167 14.0088 10.3958 14.0883 10.3945H17.7901C17.8696 10.3958 17.9476 10.4167 18.017 10.4555C18.0865 10.4943 18.1453 10.5496 18.1881 10.6166C18.2277 10.6836 18.2501 10.7592 18.2534 10.8369C18.2566 10.9146 18.2406 10.9919 18.2067 11.0619C17.6639 12.1472 17.574 13.4036 17.9569 14.5552L18.1698 15.1939C18.9214 15.6096 19.5649 16.1958 20.0487 16.9055Z" fill="#BDEBFF"/>
<path d="M20.7987 21.4784L20.2804 23.302C20.1955 23.5908 20.0201 23.8447 19.7802 24.0263C19.5402 24.208 19.2482 24.3078 18.9473 24.3112H12.9298C12.6288 24.3078 12.3368 24.208 12.0969 24.0263C11.8569 23.8447 11.6815 23.5908 11.5967 23.302L11.0783 21.4784C10.8582 20.708 10.8113 19.8985 10.9409 19.1078C11.0706 18.3172 11.3736 17.565 11.8282 16.9053H20.0488C20.5049 17.5643 20.8088 18.3165 20.9384 19.1074C21.0681 19.8984 21.0204 20.7082 20.7987 21.4784Z" fill="#FFC808"/>
</svg>
