<svg width="33" height="33" viewBox="0 0 33 33" fill="none" xmlns="http://www.w3.org/2000/svg">
<circle cx="16.5" cy="16.5" r="16.5" fill="white"/>
<circle cx="16.5" cy="16.5" r="16.35" stroke="black" stroke-opacity="0.22" stroke-width="0.3"/>
<path d="M24.8047 17.0547C24.8047 19.4723 21.1001 20.9272 16.5285 20.9272C11.957 20.9272 8.25 19.4723 8.25 17.0547C8.25 15.6105 9.57602 14.1475 11.6194 13.2068C12.2552 12.9159 12.9179 12.6878 13.5981 12.5258C14.2353 12.3701 14.8841 12.2664 15.538 12.2157C15.862 12.1914 16.1928 12.1777 16.5272 12.1777C16.8617 12.1777 17.1925 12.1914 17.5165 12.2157C18.1704 12.2664 18.8192 12.3701 19.4564 12.5258C20.1365 12.6878 20.7992 12.9159 21.4351 13.2068C23.479 14.1478 24.8047 15.6105 24.8047 17.0547Z" fill="#FFBB70"/>
<path d="M17.5166 12.2157V16.2577C17.5166 16.9567 17.0727 17.5279 16.5274 17.5279C15.9821 17.5279 15.5382 16.9567 15.5382 16.2577V12.2157C15.8622 12.1914 16.193 12.1777 16.5274 12.1777C16.8619 12.1777 17.1924 12.1919 17.5166 12.2157Z" fill="#DB714C"/>
<path d="M13.5981 12.5273V15.4426C13.5981 16.1414 13.1528 16.7126 12.6089 16.7126C12.0649 16.7126 11.6194 16.1408 11.6194 15.4426V13.2073C12.2552 12.9167 12.918 12.689 13.5981 12.5273Z" fill="#DB714C"/>
<path d="M21.4355 13.2073V15.4426C21.4355 16.1414 20.9902 16.7126 20.4463 16.7126C19.9023 16.7126 19.4568 16.1408 19.4568 15.4426V12.5273C20.1369 12.689 20.7996 12.9167 21.4355 13.2073Z" fill="#DB714C"/>
</svg>
