<svg width="45" height="31" viewBox="0 0 45 31" fill="none" xmlns="http://www.w3.org/2000/svg">
<path d="M43.4517 26.216C42.6647 26.224 41.8827 26.077 41.1527 25.782C40.4217 25.486 39.7577 25.049 39.1977 24.495C38.6367 23.941 38.1927 23.282 37.8887 22.555C37.5857 21.828 37.4287 21.0481 37.4287 20.2601C37.4287 19.4721 37.5857 18.6921 37.8887 17.9651C38.1927 17.2381 38.6367 16.5791 39.1977 16.0251C39.7577 15.4711 40.4217 15.0341 41.1527 14.7391C41.8827 14.4431 42.6647 14.296 43.4517 14.305C43.6127 14.305 43.7677 14.2411 43.8817 14.1271C43.9957 14.0131 44.0597 13.8581 44.0597 13.6971V12.305C44.0597 11.686 43.8637 11.0831 43.4977 10.5831C43.1327 10.0831 42.6177 9.71307 42.0287 9.52507L13.5407 0.46202C13.0617 0.30902 12.5527 0.283031 12.0607 0.386031C11.5697 0.488031 11.1127 0.716065 10.7347 1.04606L1.30072 9.30107C0.98772 9.57407 0.736697 9.91206 0.564697 10.2911C0.393697 10.6691 0.304688 11.08 0.304688 11.496V27.672C0.304688 28.446 0.611691 29.188 1.15869 29.735C1.70569 30.282 2.44768 30.589 3.22168 30.589H41.1417C41.9147 30.589 42.6567 30.282 43.2037 29.735C43.7507 29.188 44.0587 28.446 44.0587 27.672V26.8221C44.0587 26.6611 43.9947 26.5061 43.8807 26.3921C43.7667 26.2781 43.6117 26.214 43.4507 26.214L43.4517 26.216Z" fill="#FACC0A" fill-opacity="0.8"/>
<path d="M43.4517 26.2159C42.6647 26.2239 41.8827 26.0769 41.1527 25.7819C40.4217 25.4859 39.7577 25.0489 39.1977 24.4949C38.6367 23.9409 38.1927 23.2819 37.8887 22.5549C37.5857 21.8279 37.4287 21.0479 37.4287 20.2599C37.4287 19.4719 37.5857 18.6919 37.8887 17.9659C38.1927 17.2389 38.6367 16.5789 39.1977 16.0249C39.7577 15.4709 40.4217 15.0339 41.1527 14.7389C41.8827 14.4429 42.6647 14.2959 43.4517 14.3049C43.6127 14.3049 43.7677 14.2409 43.8817 14.1269C43.9957 14.0129 44.0597 13.8579 44.0597 13.6969V12.3599C44.0597 11.7799 43.8297 11.2229 43.4187 10.8129C43.0087 10.4019 42.4527 10.1719 41.8717 10.1719H2.49268C1.91168 10.1719 1.35568 10.4019 0.945679 10.8129C0.534679 11.2229 0.304688 11.7799 0.304688 12.3599V27.6739C0.304688 28.4469 0.611691 29.1889 1.15869 29.7359C1.70569 30.2829 2.44768 30.5909 3.22168 30.5909H41.1417C41.9147 30.5909 42.6567 30.2829 43.2037 29.7359C43.7507 29.1889 44.0587 28.4469 44.0587 27.6739V26.8229C44.0587 26.6619 43.9947 26.5069 43.8807 26.3929C43.7667 26.2789 43.6117 26.2149 43.4507 26.2149L43.4517 26.2159Z" fill="#FAA01E" fill-opacity="0.8"/>
<path d="M11.9736 26.2168C14.3896 26.2168 16.3486 24.2568 16.3486 21.8408C16.3486 19.4238 14.3896 17.4648 11.9736 17.4648C9.55663 17.4648 7.59766 19.4238 7.59766 21.8408C7.59766 24.2568 9.55663 26.2168 11.9736 26.2168Z" fill="#DC6E1E" fill-opacity="0.8"/>
<path d="M28.0167 17.4649C29.6277 17.4649 30.9337 16.1589 30.9337 14.5479C30.9337 12.9369 29.6277 11.6309 28.0167 11.6309C26.4057 11.6309 25.0996 12.9369 25.0996 14.5479C25.0996 16.1589 26.4057 17.4649 28.0167 17.4649Z" fill="#DC6E1E" fill-opacity="0.8"/>
<path d="M22.1831 29.1338C23.3911 29.1338 24.3711 28.1538 24.3711 26.9458C24.3711 25.7368 23.3911 24.7578 22.1831 24.7578C20.9751 24.7578 19.9951 25.7368 19.9951 26.9458C19.9951 28.1538 20.9751 29.1338 22.1831 29.1338Z" fill="#DC6E1E" fill-opacity="0.8"/>
</svg>
