<svg width="44" height="44" viewBox="0 0 44 44" fill="none" xmlns="http://www.w3.org/2000/svg">
<path d="M43.217 34.1521C43.223 29.9151 42.067 15.0781 29.147 4.20705C27.168 2.55105 24.852 1.34406 22.36 0.670064C19.869 -0.00293601 17.26 -0.127889 14.716 0.306111C11.201 0.905111 7.95001 2.55606 5.39201 5.04006C2.83401 7.52406 1.08901 10.7261 0.387006 14.2221C-0.118994 16.8131 -0.0410042 19.4841 0.613996 22.0411C1.269 24.5981 2.48499 26.9771 4.17399 29.0061C5.86299 31.0351 7.98301 32.6621 10.379 33.7701C12.775 34.8781 15.387 35.4391 18.027 35.4111C17.737 35.3431 23.34 35.1101 27.664 40.1511C28.794 41.4661 30.284 42.4221 31.95 42.9011C33.617 43.3801 35.387 43.3611 37.043 42.8461C38.45 42.4491 39.723 41.6791 40.729 40.6181C42.371 38.8701 43.264 36.5491 43.217 34.1521Z" fill="#FF637B" fill-opacity="0.8"/>
<path d="M40.6892 34.1422C40.6222 28.8062 39.4142 23.5462 37.1442 18.7152C34.8752 13.8852 31.5982 9.59711 27.5332 6.13911C24.6302 3.70111 20.9232 2.4331 17.1362 2.5821C13.3482 2.7311 9.75217 4.2861 7.05017 6.9441C4.90017 9.0481 3.4402 11.7551 2.8642 14.7081C2.4342 16.9331 2.50517 19.2251 3.07117 21.4201C3.63717 23.6141 4.68417 25.6551 6.13617 27.3951C7.58817 29.1351 9.40916 30.5301 11.4672 31.4791C13.5242 32.4281 15.7682 32.9071 18.0342 32.8821C22.0472 32.9691 25.8662 34.6301 28.6672 37.5051C30.1882 39.0251 32.0662 41.6201 36.3592 40.4031C37.3472 40.1251 38.2432 39.5881 38.9532 38.8471C40.1202 37.5631 40.7422 35.8762 40.6892 34.1422Z" fill="#FF637B" fill-opacity="0.8"/>
<path d="M38.1649 34.5901L38.1469 34.1421C38.0209 29.8361 37.1469 25.5841 35.5639 21.5781C35.3419 21.0031 34.9809 20.4931 34.5119 20.0931C34.0439 19.6931 33.4829 19.4171 32.8809 19.2881C32.2729 19.1551 31.6419 19.173 31.0429 19.342C30.4439 19.51 29.8949 19.8241 29.4459 20.2541C27.8869 21.7421 26.4899 23.391 25.2779 25.173C24.8839 25.746 24.5089 26.3361 24.1689 26.9261C23.9049 27.3721 23.7349 27.867 23.6699 28.381C23.6059 28.895 23.6469 29.417 23.7929 29.914C24.1089 30.911 24.8019 31.746 25.7249 32.24C27.9279 33.393 29.8869 34.963 31.4929 36.863C32.0039 37.439 32.6739 37.8511 33.4179 38.0491C34.1629 38.2461 34.9489 38.219 35.6789 37.972C36.2539 37.825 36.7679 37.499 37.1459 37.042C37.7579 36.366 38.1179 35.5001 38.1649 34.5901Z" fill="#B20844" fill-opacity="0.8"/>
<path d="M20.6632 28.1052C22.2972 24.7132 24.4851 21.6172 27.1391 18.9462C27.8011 18.2842 28.4981 17.6582 29.2321 17.0322C29.6091 16.7062 29.9172 16.3072 30.1382 15.8602C30.3592 15.4132 30.4901 14.9272 30.5211 14.4292C30.5531 13.9322 30.4852 13.4322 30.3222 12.9612C30.1592 12.4902 29.9042 12.0562 29.5722 11.6842C28.6192 10.5892 27.5911 9.56219 26.4951 8.61019C24.1941 6.50019 21.2241 5.26521 18.1051 5.12221C16.3991 5.07921 14.7022 5.37922 13.1142 6.00222C11.5252 6.62622 10.0781 7.56119 8.85715 8.75319C7.06415 10.4962 5.84117 12.7412 5.35116 15.1932C4.96916 17.0462 5.00814 18.9602 5.46414 20.7962C5.91914 22.6322 6.78116 24.3422 7.98416 25.8012C9.06016 27.1462 10.4121 28.2442 11.9491 29.0222C13.4861 29.8002 15.1712 30.2392 16.8922 30.3102C17.6712 30.3712 18.4492 30.1932 19.1242 29.7992C19.7982 29.4052 20.3352 28.8142 20.6632 28.1052Z" fill="#B20844" fill-opacity="0.8"/>
<path d="M19.5706 12.3102C18.8636 11.6032 17.9616 11.1212 16.9806 10.9252C15.9986 10.7302 14.9816 10.8303 14.0566 11.2133C13.1326 11.5963 12.3416 12.2453 11.7856 13.0773C11.2296 13.9093 10.9336 14.8872 10.9336 15.8882C10.9336 16.8892 11.2296 17.8672 11.7856 18.6992C12.3416 19.5312 13.1326 20.1802 14.0566 20.5632C14.9816 20.9462 15.9986 21.0462 16.9806 20.8502C17.9616 20.6552 18.8636 20.1733 19.5706 19.4653C20.5156 18.5153 21.0466 17.2282 21.0466 15.8882C21.0466 14.5472 20.5156 13.2612 19.5706 12.3102Z" fill="#FFF5F5" fill-opacity="0.8"/>
<path d="M15.9929 18.4169C17.3899 18.4169 18.5229 17.2849 18.5229 15.8879C18.5229 14.4909 17.3899 13.3579 15.9929 13.3579C14.5959 13.3579 13.4639 14.4909 13.4639 15.8879C13.4639 17.2849 14.5959 18.4169 15.9929 18.4169Z" fill="#EFE2DD" fill-opacity="0.8"/>
</svg>
