<svg width="33" height="46" viewBox="0 0 33 46" fill="none" xmlns="http://www.w3.org/2000/svg">
<path d="M21.4537 2.30774L19.6987 7.71478H10.0687L8.3167 2.30774C8.2427 2.11074 8.2187 1.89776 8.2467 1.68976C8.2737 1.48076 8.3527 1.28178 8.4757 1.11078C8.6027 0.940779 8.76766 0.801773 8.95666 0.704773C9.14566 0.607773 9.3537 0.555734 9.5667 0.552734H20.2047C20.4167 0.555734 20.6257 0.607773 20.8147 0.704773C21.0037 0.801773 21.1677 0.940779 21.2947 1.11078C21.4177 1.28178 21.4967 1.48076 21.5247 1.68976C21.5527 1.89776 21.5277 2.11074 21.4537 2.30774Z" fill="#FF873C" fill-opacity="0.8"/>
<path d="M19.6998 7.71478H14.8848V0.552734H20.2028C20.4158 0.555734 20.6237 0.607773 20.8127 0.704773C21.0017 0.801773 21.1668 0.940779 21.2938 1.11078C21.4168 1.28178 21.4958 1.48076 21.5228 1.68976C21.5508 1.89776 21.5268 2.11074 21.4528 2.30774L19.6998 7.71478Z" fill="#FF873C" fill-opacity="0.8"/>
<path d="M21.5361 8.62012C19.6761 8.62412 17.8501 9.11812 16.2421 10.0521C14.6331 10.9851 13.299 12.3261 12.373 13.9391H21.5361C22.9551 13.9591 24.3101 14.5381 25.3051 15.5501C26.3011 16.5621 26.8571 17.9261 26.8541 19.3461C26.8541 20.7571 26.2941 22.1091 25.2961 23.1071C24.2991 24.1041 22.9461 24.6651 21.5361 24.6651V29.9881C24.3691 29.9881 27.0871 28.8621 29.0901 26.8591C31.0941 24.8551 32.2191 22.1371 32.2191 19.3041C32.2191 16.4701 31.0941 13.7531 29.0901 11.7491C27.0871 9.74615 24.3691 8.62012 21.5361 8.62012Z" fill="#92D8FF" fill-opacity="0.8"/>
<path d="M26.694 24.6649L24.274 27.3279H5.33807L3.08105 24.668C4.47105 22.628 6.32004 20.9429 8.48004 19.7479L9.09204 17.913C10.192 14.605 9.93408 10.9959 8.37408 7.87793C8.27708 7.67693 8.23105 7.45493 8.24005 7.23193C8.24905 7.00893 8.31406 6.79094 8.42706 6.59894C8.55106 6.40594 8.71907 6.24693 8.91907 6.13593C9.11907 6.02493 9.34304 5.96494 9.57104 5.96094H20.2051C20.4341 5.96494 20.6581 6.02493 20.8571 6.13593C21.0571 6.24693 21.2261 6.40594 21.3491 6.59894C21.4631 6.79094 21.5271 7.00893 21.5361 7.23193C21.5461 7.45493 21.5 7.67693 21.402 7.87793C19.843 10.9959 19.5851 14.605 20.6851 17.913L21.2961 19.7479C23.4551 20.9419 25.304 22.6259 26.694 24.6649Z" fill="#BDEBFF" fill-opacity="0.8"/>
<path d="M28.8481 37.8021L27.3591 43.0411C27.1161 43.8711 26.6121 44.6001 25.9221 45.1221C25.2331 45.6441 24.3941 45.9311 23.5301 45.9401H6.24309C5.37909 45.9311 4.54008 45.6441 3.85008 45.1221C3.16108 44.6001 2.65713 43.8711 2.41313 43.0411L0.925094 37.8021C0.292094 35.5891 0.157136 33.2641 0.530136 30.9921C0.902136 28.7211 1.77309 26.56 3.07909 24.665H26.6941C28.0041 26.558 28.8771 28.7191 29.2501 30.9911C29.6221 33.2631 29.4851 35.5901 28.8481 37.8021Z" fill="#FFC808" fill-opacity="0.8"/>
</svg>
