<svg width="18" height="18" viewBox="0 0 18 18" fill="none" xmlns="http://www.w3.org/2000/svg">
<path d="M8.64128 0C3.86767 0 0 3.90971 0 8.7352C0 13.5607 3.86767 17.4704 8.64128 17.4704C13.4149 17.4704 17.2826 13.5607 17.2826 8.7352C17.2826 3.90971 13.4149 0 8.64128 0ZM8.64128 16.3433C4.49137 16.3433 1.115 12.9302 1.115 8.7352C1.115 4.54019 4.49137 1.12712 8.64128 1.12712C12.7912 1.12712 16.1676 4.54019 16.1676 8.7352C16.1676 12.9302 12.7912 16.3433 8.64128 16.3433ZM10.0455 8.54852L7.53673 7.83703C7.11512 7.71727 6.81894 7.32982 6.81894 6.89658C6.81894 6.35768 7.26494 5.9174 7.81199 5.9174H9.37997C9.77022 5.9174 10.143 6.0442 10.4462 6.27314C10.5577 6.35768 10.711 6.34359 10.8086 6.24497L11.2023 5.83991C11.3208 5.72015 11.3068 5.5229 11.1744 5.41724C10.6657 5.00865 10.0385 4.78675 9.37648 4.78675H9.19878V3.37785C9.19878 3.22287 9.07334 3.09607 8.92003 3.09607H8.36253C8.20921 3.09607 8.08378 3.22287 8.08378 3.37785V4.78675H7.81199C6.65169 4.78675 5.70394 5.73072 5.70394 6.89306C5.70394 7.82998 6.33461 8.66124 7.23359 8.91836L9.74234 9.62986C10.164 9.74961 10.4601 10.1371 10.4601 10.5703C10.4601 11.1092 10.0141 11.5495 9.46708 11.5495H7.8991C7.50885 11.5495 7.13602 11.4227 6.83288 11.1937C6.72138 11.1092 6.56807 11.1233 6.4705 11.2219L6.07677 11.627C5.9583 11.7467 5.97224 11.944 6.10464 12.0497C6.61336 12.4582 7.24055 12.6801 7.90259 12.6801H8.08378V14.089C8.08378 14.244 8.20921 14.3708 8.36253 14.3708H8.92003C9.07334 14.3708 9.19878 14.244 9.19878 14.089V12.6801H9.47056C10.6309 12.6801 11.5786 11.7362 11.5786 10.5738C11.5751 9.6369 10.9479 8.80565 10.0455 8.54852Z" fill="#1D1D1D"/>
</svg>
