<svg width="17" height="16" viewBox="0 0 17 16" fill="none" xmlns="http://www.w3.org/2000/svg">
<g clip-path="url(#clip0_939_2732)">
<path d="M15.9819 1.7408L14.8213 0.580164C14.4348 0.193388 13.928 0 13.4212 0C12.9143 0 12.4075 0.193388 12.0207 0.579854L1.11736 11.4832L0.724399 15.0174C0.674891 15.4624 1.02547 15.8423 1.46082 15.8423C1.48836 15.8423 1.5159 15.8408 1.54405 15.8377L5.07578 15.4475L15.9822 4.54106C16.7555 3.76782 16.7555 2.51404 15.9819 1.7408ZM4.62124 14.5019L1.7427 14.8209L2.06326 11.9381L10.2286 3.77277L12.7896 6.33384L4.62124 14.5019ZM15.282 3.84115L13.4896 5.63362L10.9285 3.07255L12.7209 1.28007C12.9078 1.09318 13.1566 0.990146 13.4212 0.990146C13.6857 0.990146 13.9342 1.09318 14.1214 1.28007L15.282 2.44071C15.6679 2.82687 15.6679 3.45499 15.282 3.84115Z" fill="#1D1D1D"/>
</g>
<defs>
<clipPath id="clip0_939_2732">
<rect width="15.8423" height="15.8423" fill="white" transform="translate(0.720215)"/>
</clipPath>
</defs>
</svg>
