<svg width="18" height="18" viewBox="0 0 18 18" fill="none" xmlns="http://www.w3.org/2000/svg">
<g clip-path="url(#clip0_939_2727)">
<path d="M10.5317 12.9621H8.91143C8.83982 12.9621 8.77113 12.9906 8.72049 13.0412C8.66984 13.0918 8.64139 13.1605 8.64139 13.2322V13.7722C8.64139 13.8439 8.66984 13.9125 8.72049 13.9632C8.77113 14.0138 8.83982 14.0423 8.91143 14.0423H10.5317C10.6033 14.0423 10.672 14.0138 10.7226 13.9632C10.7733 13.9125 10.8017 13.8439 10.8017 13.7722V13.2322C10.8017 13.1605 10.7733 13.0918 10.7226 13.0412C10.672 12.9906 10.6033 12.9621 10.5317 12.9621ZM12.692 9.72163H8.91143C8.83982 9.72163 8.77113 9.75008 8.72049 9.80072C8.66984 9.85137 8.64139 9.92005 8.64139 9.99167V10.5318C8.64139 10.6034 8.66984 10.6721 8.72049 10.7227C8.77113 10.7733 8.83982 10.8018 8.91143 10.8018H12.692C12.7636 10.8018 12.8323 10.7733 12.8829 10.7227C12.9336 10.6721 12.962 10.6034 12.962 10.5318V9.99167C12.962 9.92005 12.9336 9.85137 12.8829 9.80072C12.8323 9.75008 12.7636 9.72163 12.692 9.72163ZM17.0126 3.24067H8.91143C8.83982 3.24067 8.77113 3.26913 8.72049 3.31977C8.66984 3.37041 8.64139 3.4391 8.64139 3.51071V4.05079C8.64139 4.12241 8.66984 4.1911 8.72049 4.24174C8.77113 4.29238 8.83982 4.32083 8.91143 4.32083H17.0126C17.0842 4.32083 17.1529 4.29238 17.2036 4.24174C17.2542 4.1911 17.2827 4.12241 17.2827 4.05079V3.51071C17.2827 3.4391 17.2542 3.37041 17.2036 3.31977C17.1529 3.26913 17.0842 3.24067 17.0126 3.24067ZM14.8523 6.48115H8.91143C8.83982 6.48115 8.77113 6.5096 8.72049 6.56025C8.66984 6.61089 8.64139 6.67957 8.64139 6.75119V7.29127C8.64139 7.36289 8.66984 7.43158 8.72049 7.48222C8.77113 7.53286 8.83982 7.56131 8.91143 7.56131H14.8523C14.9239 7.56131 14.9926 7.53286 15.0433 7.48222C15.0939 7.43158 15.1224 7.36289 15.1224 7.29127V6.75119C15.1224 6.67957 15.0939 6.61089 15.0433 6.56025C14.9926 6.5096 14.9239 6.48115 14.8523 6.48115ZM4.06557 1.19884C3.99001 1.12341 3.88761 1.08105 3.78084 1.08105C3.67408 1.08105 3.57168 1.12341 3.49612 1.19884L0.660703 3.97755C0.622741 4.01498 0.592541 4.05953 0.571836 4.10866C0.55113 4.15779 0.540327 4.21052 0.540045 4.26383C0.539763 4.31714 0.550007 4.36999 0.570191 4.41933C0.590375 4.46868 0.620101 4.51355 0.657665 4.55138L0.847031 4.74311C0.884248 4.7809 0.928563 4.81096 0.977432 4.83158C1.0263 4.85219 1.07876 4.86295 1.1318 4.86323C1.18484 4.86351 1.23741 4.85331 1.28649 4.83322C1.33558 4.81313 1.38021 4.78354 1.41783 4.74615L3.2406 2.96591V15.9326C3.2406 16.0042 3.26905 16.0729 3.31969 16.1235C3.37033 16.1741 3.43902 16.2026 3.51064 16.2026H4.05072C4.12234 16.2026 4.19102 16.1741 4.24166 16.1235C4.29231 16.0729 4.32076 16.0042 4.32076 15.9326V2.97334L6.1415 4.74041C6.21739 4.81585 6.32006 4.8582 6.42707 4.8582C6.53408 4.8582 6.63674 4.81585 6.71263 4.74041L6.90301 4.54936C6.94077 4.51172 6.97074 4.46701 6.99118 4.41777C7.01163 4.36854 7.02215 4.31575 7.02215 4.26244C7.02215 4.20913 7.01163 4.15634 6.99118 4.1071C6.97074 4.05787 6.94077 4.01315 6.90301 3.97552L4.06557 1.19884Z" fill="#1D1D1D"/>
</g>
<defs>
<clipPath id="clip0_939_2727">
<rect width="17.2826" height="17.2826" fill="white"/>
</clipPath>
</defs>
</svg>
