<svg width="44" height="43" viewBox="0 0 44 43" fill="none" xmlns="http://www.w3.org/2000/svg">
<path d="M37.8827 20.2698C37.8837 21.0898 37.7187 21.9098 37.3977 22.6698L37.0857 23.4098L20.6397 23.3698L4.15269 23.3297L3.84769 22.5797C3.52769 21.7897 3.37566 20.9297 3.40366 20.0797C3.43066 19.2197 3.63565 18.3798 4.00565 17.6098C4.37665 16.8398 4.90369 16.1498 5.55369 15.5998C6.20369 15.0398 6.96269 14.6298 7.78269 14.3798C7.79769 13.3098 8.12067 12.2698 8.71067 11.3798C9.30167 10.4998 10.1357 9.79977 11.1137 9.36977C12.0907 8.93977 13.1707 8.79975 14.2237 8.96975C15.2777 9.13975 16.2596 9.60973 17.0526 10.3297C18.0986 9.57973 19.3537 9.16982 20.6407 9.16982C21.9277 9.16982 23.1827 9.57973 24.2287 10.3297C25.0217 9.60973 26.0037 9.13975 27.0567 8.96975C28.1107 8.79975 29.1897 8.93977 30.1677 9.36977C31.1457 9.79977 31.9797 10.4998 32.5697 11.3798C33.1607 12.2698 33.4827 13.3098 33.4987 14.3798C34.7657 14.7598 35.8767 15.5398 36.6657 16.5998C37.4557 17.6598 37.8827 18.9498 37.8827 20.2698Z" fill="#FFBB70"/>
<path d="M28.0421 16.6401C27.9721 16.5401 27.3201 15.9901 27.8841 15.3801L40.3171 1.88009C40.4281 1.73009 41.5071 0.620121 42.3541 1.04012C42.6741 1.19012 42.9501 1.43005 43.1591 1.72005C43.3681 2.00005 43.5041 2.34002 43.5551 2.69002C43.6061 3.04002 43.5711 3.40007 43.4531 3.74007C43.3351 4.07007 43.1371 4.38008 42.8761 4.62008L29.4771 17.1401C29.4081 17.2001 29.3321 17.26 29.2521 17.32C28.6811 17.67 28.0421 16.6401 28.0421 16.6401Z" fill="#C8C6CD"/>
<path d="M29.1539 17.2298C28.1759 16.2498 28.2629 15.9098 29.0719 15.0998L41.5049 1.59981C41.7389 1.34981 42.0309 1.14987 42.3549 1.03987C41.9299 0.82987 41.4489 0.759796 40.9829 0.839796C40.5179 0.929796 40.0919 1.15984 39.7699 1.50984L27.3369 15.0098C27.0899 15.2798 26.9489 15.6298 26.9399 15.9998C26.9309 16.3598 27.0549 16.7198 27.2879 16.9998C27.5219 17.2798 27.8499 17.4699 28.2099 17.5198C28.5709 17.5798 28.9409 17.5099 29.2509 17.3099C29.2169 17.2899 29.1849 17.2598 29.1539 17.2298Z" fill="#C8C6CD"/>
<path d="M40.2554 28.5C39.2574 31.63 37.5244 34.4801 35.2004 36.8101C33.2934 38.7301 31.0254 40.26 28.5264 41.3C26.0284 42.34 23.3484 42.87 20.6414 42.87C17.9354 42.87 15.2553 42.34 12.7563 41.3C10.2573 40.26 7.98937 38.7301 6.08337 36.8101C3.75937 34.4801 2.02534 31.63 1.02734 28.5L20.6404 24.48L40.2554 28.5Z" fill="#338238"/>
<path d="M40.2546 28.5C39.2566 31.63 37.5236 34.4801 35.1996 36.8101C33.2966 38.7401 31.0296 40.26 28.5296 41.3C26.0306 42.34 23.3496 42.88 20.6426 42.87V24.48L40.2546 28.5Z" fill="#338238"/>
<path d="M41.2277 20.98V22.1801C41.2297 24.3301 40.9027 26.45 40.2567 28.5H1.02865C0.382646 26.45 0.0546376 24.3301 0.0576376 22.1801V20.98H41.2277Z" fill="#449D49"/>
</svg>
