<svg width="40" height="40" viewBox="0 0 40 40" fill="none" xmlns="http://www.w3.org/2000/svg">
<path d="M23.4979 9.81296H16.254C16.01 9.81296 15.7719 9.73298 15.5769 9.58698L12.5539 7.31897C12.1999 7.05397 11.9079 6.71597 11.6959 6.32797C11.4839 5.93997 11.3579 5.50997 11.3269 5.06897C11.2959 4.62797 11.3599 4.18597 11.5139 3.77197C11.6689 3.35697 11.9109 2.98098 12.2239 2.66898L12.2299 2.66296C12.6219 2.26996 13.1169 1.99397 13.6579 1.86697C14.1989 1.73997 14.7649 1.76697 15.2909 1.94397L17.1559 2.56598L19.0789 0.643982C19.2899 0.432982 19.5769 0.313965 19.8759 0.313965C20.1749 0.313965 20.4609 0.432982 20.6729 0.643982L22.5949 2.56598L24.4599 1.94498C24.9859 1.76698 25.5519 1.74098 26.0929 1.86798C26.6339 1.99498 27.1289 2.27097 27.5219 2.66397L27.5279 2.66998C27.8409 2.98298 28.0829 3.35898 28.2369 3.77298C28.3919 4.18698 28.4559 4.62998 28.4239 5.07098C28.3929 5.51198 28.267 5.94098 28.056 6.32898C27.844 6.71698 27.5509 7.05598 27.1979 7.32098L24.1749 9.58798C23.9789 9.73498 23.7419 9.81396 23.4969 9.81396L23.4979 9.81296Z" fill="#5EAC24" fill-opacity="0.8"/>
<path d="M19.8755 39.4381C17.3015 39.4341 14.7535 38.9231 12.3765 37.9341C10.0005 36.9451 7.84149 35.4971 6.02449 33.6731C4.20849 31.8501 2.76852 29.6861 1.78852 27.3051C0.808524 24.9251 0.307525 22.3751 0.314525 19.8001C0.311525 16.5611 1.5935 13.4521 3.8805 11.1571C6.1665 8.8621 9.26947 7.56811 12.5095 7.55811H27.2425C30.4825 7.56811 33.5855 8.8621 35.8715 11.1571C38.1575 13.4521 39.4405 16.5611 39.4375 19.8001C39.4445 22.3751 38.9435 24.9251 37.9635 27.3051C36.9835 29.6861 35.5435 31.8501 33.7275 33.6741C31.9105 35.4971 29.7515 36.9451 27.3755 37.9341C24.9985 38.9231 22.4505 39.4341 19.8755 39.4381Z" fill="#FF3501" fill-opacity="0.8"/>
</svg>
