<svg width="31" height="43" viewBox="0 0 31 43" fill="none" xmlns="http://www.w3.org/2000/svg">
<path d="M30.8262 17.6868V37.5128C30.8252 38.9608 30.2502 40.3498 29.2272 41.3738C28.2032 42.3978 26.8143 42.9738 25.3663 42.9748H5.53326C4.08426 42.9738 2.69624 42.3978 1.67224 41.3728C0.649241 40.3478 0.0742188 38.9588 0.0742188 37.5108V17.6858C0.0742188 16.7468 0.315245 15.8248 0.776245 15.0068C1.23625 14.1888 1.90025 13.5028 2.70325 13.0168C3.33625 12.6168 3.85524 12.0608 4.21124 11.4018C4.56724 10.7428 4.74725 10.0038 4.73425 9.25482V6.98682H26.1683V9.25581C26.1563 10.0048 26.3373 10.7438 26.6923 11.4028C27.0483 12.0618 27.5673 12.6178 28.2003 13.0178C29.0023 13.5048 29.6652 14.1898 30.1252 15.0078C30.5852 15.8258 30.8262 16.7488 30.8262 17.6868Z" fill="#A4105A"/>
<path d="M0.0761719 17.4619H30.8252V37.0619H0.0761719V17.4619Z" fill="#FF9C71"/>
<path d="M3.06793 0.0581055H27.8319C28.2029 0.0581055 28.5579 0.206101 28.8199 0.469101C29.0819 0.731101 29.2289 1.0871 29.2289 1.4581V5.5881C29.2289 5.7711 29.1929 5.95411 29.1229 6.12311C29.0519 6.29311 28.9489 6.44811 28.8189 6.57811C28.6889 6.70811 28.5349 6.8111 28.3649 6.8811C28.1949 6.9521 28.0129 6.98811 27.8289 6.98811H3.06793C2.69693 6.98811 2.34094 6.84011 2.07794 6.57811C1.81494 6.31511 1.66797 5.9591 1.66797 5.5881V1.4581C1.66797 1.0861 1.81494 0.730109 2.07794 0.468109C2.34094 0.205109 2.69693 0.0581055 3.06793 0.0581055Z" fill="#FFBA48"/>
<path d="M23.1483 21.3228H8.34424C8.17424 21.3218 8.01126 21.3878 7.89026 21.5068C7.76926 21.6258 7.70122 21.7888 7.69922 21.9578V32.3478C7.70122 32.5178 7.76926 32.6798 7.89026 32.7988C8.01126 32.9178 8.17424 32.9838 8.34424 32.9828H23.1472C23.3172 32.9838 23.4803 32.9178 23.6013 32.7988C23.7223 32.6798 23.7912 32.5178 23.7922 32.3478V21.9578C23.7912 21.7888 23.7223 21.6268 23.6013 21.5078C23.4803 21.3888 23.3173 21.3218 23.1483 21.3228Z" fill="#FFE3DE"/>
</svg>
