<svg width="186" height="192" viewBox="0 0 186 192" fill="none" xmlns="http://www.w3.org/2000/svg">
<g clip-path="url(#clip0_36_27)">
<path d="M50.8764 168.727H49.8249L46.4244 170.987V171.986L49.8548 169.712H49.9442V184H50.8764V168.727ZM60.758 184.209C63.5247 184.209 65.6426 182.382 65.65 180.025C65.6426 178.168 64.3152 176.483 62.5179 176.103V176.036C64.0691 175.551 65.1131 174.104 65.1206 172.456C65.1131 170.226 63.1816 168.518 60.758 168.518C58.297 168.518 56.388 170.234 56.388 172.456C56.388 174.119 57.4544 175.551 58.998 176.036V176.103C57.1859 176.498 55.8585 178.168 55.8659 180.025C55.8585 182.382 57.9764 184.209 60.758 184.209ZM60.758 183.344C58.4686 183.344 56.7832 181.875 56.7907 179.973C56.7832 178.049 58.5133 176.52 60.758 176.52C62.9877 176.52 64.7179 178.049 64.7253 179.973C64.7179 181.875 63.0325 183.344 60.758 183.344ZM60.758 175.715C58.8191 175.715 57.2978 174.29 57.3052 172.493C57.2978 170.703 58.8041 169.376 60.758 169.376C62.6969 169.376 64.2033 170.703 64.2033 172.493C64.2033 174.29 62.682 175.715 60.758 175.715ZM73.4137 168.727H72.3622L68.9616 170.987V171.986L72.392 169.712H72.4815V184H73.4137V168.727ZM79.6933 181.912H78.7239L78.5896 182.747C78.2839 184.761 77.9036 186.655 77.6947 187.729H78.4032C78.7537 186.64 79.2906 184.231 79.5591 182.695L79.6933 181.912ZM83.4337 180.57H90.5033V184H91.4131V180.57H93.3819V179.705H91.4131V168.727H90.3467L83.4337 179.824V180.57ZM90.5033 179.705H84.5598V179.623L90.4288 170.167H90.5033V179.705ZM100.903 168.727H99.8517L96.4511 170.987V171.986L99.8815 169.712H99.971V184H100.903V168.727ZM106.228 184H115.587V183.135H107.571V183.053L111.717 178.273C114.155 175.484 114.901 174.246 114.901 172.553C114.901 170.256 113.126 168.518 110.703 168.518C108.219 168.518 106.43 170.331 106.43 172.702H107.332C107.332 170.83 108.682 169.376 110.68 169.376C112.589 169.376 114.006 170.689 114.006 172.553C114.006 174.037 113.29 175.141 111.173 177.594L106.228 183.292V184ZM130.011 172.545H127.602V169.801H126.7V172.545H125.007V173.358H126.7V181.457C126.7 183.195 128.05 184.186 129.481 184.186C129.944 184.186 130.257 184.104 130.54 184L130.317 183.172C130.093 183.247 129.869 183.306 129.541 183.306C128.527 183.306 127.602 182.68 127.602 181.293V173.358H130.011V172.545ZM137.941 184.239C140.774 184.239 142.833 181.748 142.833 178.31C142.833 174.872 140.767 172.374 137.941 172.374C135.107 172.374 133.048 174.865 133.048 178.31C133.048 181.748 135.107 184.239 137.941 184.239ZM137.941 183.396C135.532 183.396 133.951 181.151 133.951 178.31C133.951 175.484 135.547 173.224 137.941 173.224C140.342 173.224 141.93 175.476 141.93 178.31C141.93 181.151 140.349 183.396 137.941 183.396ZM150.436 172.545H148.027V169.801H147.125V172.545H145.432V173.358H147.125V181.457C147.125 183.195 148.475 184.186 149.906 184.186C150.369 184.186 150.682 184.104 150.965 184L150.742 183.172C150.518 183.247 150.294 183.306 149.966 183.306C148.952 183.306 148.027 182.68 148.027 181.293V173.358H150.436V172.545ZM157.266 184.246C159.085 184.246 160.368 183.217 160.964 181.934H161.031V184H161.941V175.998C161.941 173.493 160.077 172.374 158.041 172.374C156.274 172.374 154.618 173.172 153.962 174.82L154.819 175.141C155.267 174.007 156.43 173.209 158.063 173.209C159.913 173.209 161.031 174.276 161.031 175.939V176.416C161.031 177.296 159.749 177.385 158.004 177.594C154.946 177.967 153.634 178.936 153.634 180.846C153.634 183.023 155.289 184.246 157.266 184.246ZM157.355 183.403C155.752 183.403 154.544 182.441 154.544 180.875C154.544 179.458 155.588 178.698 158.093 178.4C159.212 178.273 160.554 178.064 161.031 177.669V179.354C161.031 181.681 159.503 183.403 157.355 183.403ZM167.086 168.727H166.176V184H167.086V168.727Z" fill="#747474"/>
<path d="M15 111L18.3677 121.365H29.2658L20.4491 127.771L23.8168 138.135L15 131.729L6.18322 138.135L9.55093 127.771L0.734152 121.365H11.6323L15 111Z" fill="#999999"/>
<path d="M54 111L57.3677 121.365H68.2658L59.4491 127.771L62.8168 138.135L54 131.729L45.1832 138.135L48.5509 127.771L39.7342 121.365H50.6323L54 111Z" fill="#999999"/>
<path d="M93 111L96.3677 121.365H107.266L98.4491 127.771L101.817 138.135L93 131.729L84.1832 138.135L87.5509 127.771L78.7342 121.365H89.6323L93 111Z" fill="#999999"/>
<path d="M132 111L135.368 121.365H146.266L137.449 127.771L140.817 138.135L132 131.729L123.183 138.135L126.551 127.771L117.734 121.365H128.632L132 111Z" fill="#999999"/>
<path d="M171 111L174.368 121.365H185.266L176.449 127.771L179.817 138.135L171 131.729L162.183 138.135L165.551 127.771L156.734 121.365H167.632L171 111Z" fill="#C4C4C4"/>
<ellipse cx="27.6" cy="173.566" rx="3.6" ry="3.56571" fill="#999999"/>
<g clip-path="url(#clip1_36_27)">
<path d="M171 111L174.368 121.365H185.266L176.449 127.771L179.817 138.135L171 131.729L162.183 138.135L165.551 127.771L156.734 121.365H167.632L171 111Z" fill="#999999"/>
</g>
<g clip-path="url(#clip2_36_27)">
<ellipse cx="28" cy="184.933" rx="6.99999" ry="6.93332" fill="#999999"/>
</g>
<path d="M16.8132 66.3778H55.1911V85H60.13V66.3778H70.8175V61.6818H60.13V2.09091H54.3409L16.8132 62.3295V66.3778ZM55.1911 61.6818H22.9261V61.2365L54.7862 9.90412H55.1911V61.6818ZM91.8208 85.5263C94.2093 85.5263 96.193 83.5831 96.193 81.1541C96.193 78.7656 94.2093 76.782 91.8208 76.782C89.3919 76.782 87.4487 78.7656 87.4487 81.1541C87.4487 83.5831 89.3919 85.5263 91.8208 85.5263ZM140.13 86.1335C155.149 86.1335 166.646 76.2152 166.687 63.4226C166.646 53.3423 159.44 44.1932 149.684 42.1286V41.7642C158.104 39.1328 163.772 31.2791 163.812 22.3324C163.772 10.228 153.287 0.957383 140.13 0.957383C126.771 0.957383 116.407 10.2685 116.407 22.3324C116.407 31.3601 122.196 39.1328 130.576 41.7642V42.1286C120.739 44.2741 113.533 53.3423 113.573 63.4226C113.533 76.2152 125.03 86.1335 140.13 86.1335ZM140.13 81.4375C127.702 81.4375 118.553 73.4624 118.593 63.1392C118.553 52.6946 127.945 44.3956 140.13 44.3956C152.234 44.3956 161.626 52.6946 161.667 63.1392C161.626 73.4624 152.477 81.4375 140.13 81.4375ZM140.13 40.0234C129.604 40.0234 121.346 32.2912 121.386 22.5348C121.346 12.8189 129.523 5.61292 140.13 5.61292C150.656 5.61292 158.833 12.8189 158.833 22.5348C158.833 32.2912 150.575 40.0234 140.13 40.0234Z" fill="#535353" fill-opacity="0.81"/>
</g>
<defs>
<clipPath id="clip0_36_27">
<rect width="186" height="192" fill="white"/>
</clipPath>
<clipPath id="clip1_36_27">
<rect width="17" height="30" fill="white" transform="translate(156 111)"/>
</clipPath>
<clipPath id="clip2_36_27">
<rect width="15" height="7" fill="white" transform="translate(21 178)"/>
</clipPath>
</defs>
</svg>
