<svg width="50" height="32" viewBox="0 0 50 32" fill="none" xmlns="http://www.w3.org/2000/svg">
<path d="M17.9961 1.46119L21.5621 6.90018L30.2351 4.1272C30.2351 4.1272 25.7881 -1.05481 17.9961 1.46119Z" fill="#87C7FF" fill-opacity="0.8"/>
<path d="M21.5621 25.3149L17.9961 30.7549C25.7881 33.2709 30.2331 28.0889 30.2331 28.0889L21.5621 25.3149Z" fill="#87C7FF" fill-opacity="0.8"/>
<path d="M32.9943 3.91699C24.1313 3.91699 13.5462 10.969 10.6982 14.614V17.6C13.5462 21.246 24.1313 28.297 32.9943 28.297C43.3363 28.297 49.3862 16.107 49.3862 16.107C49.3862 16.107 43.3363 3.91699 32.9943 3.91699Z" fill="#38A5F6" fill-opacity="0.8"/>
<path d="M49.3858 16.1078C49.3858 16.1078 45.1828 7.64378 37.7968 4.82178C35.3888 8.09178 34.0898 12.0468 34.0898 16.1078C34.0898 20.1688 35.3888 24.1238 37.7968 27.3938C45.1828 24.5718 49.3858 16.1078 49.3858 16.1078Z" fill="#87C7FF" fill-opacity="0.8"/>
<path d="M4.45545 16.109C3.33245 15.221 2.42545 14.091 1.80145 12.802C1.17845 11.513 0.855448 10.1 0.856448 8.66899C0.857448 8.27299 0.88246 7.87798 0.93146 7.48598C2.16246 7.31598 3.4164 7.41199 4.6084 7.76799C5.7994 8.12399 6.90044 8.72998 7.83844 9.54698C8.77544 10.364 9.52644 11.373 10.0414 12.504C10.5564 13.636 10.8225 14.865 10.8225 16.108C10.8225 17.352 10.5564 18.581 10.0414 19.712C9.52644 20.844 8.77544 21.852 7.83844 22.669C6.90044 23.486 5.7994 24.093 4.6084 24.449C3.4164 24.804 2.16246 24.901 0.93146 24.731C0.88246 24.338 0.857448 23.943 0.856448 23.547C0.855448 22.116 1.17843 20.703 1.80243 19.415C2.42543 18.126 3.33245 16.996 4.45545 16.109Z" fill="#87C7FF" fill-opacity="0.8"/>
<path d="M38.9111 16.0591C40.3151 16.0591 41.4531 14.9211 41.4531 13.5181C41.4531 12.1141 40.3151 10.9771 38.9111 10.9771C37.5081 10.9771 36.3701 12.1141 36.3701 13.5181C36.3701 14.9211 37.5081 16.0591 38.9111 16.0591Z" fill="#007AD5" fill-opacity="0.8"/>
</svg>
