<svg width="30" height="24" viewBox="0 0 30 24" fill="none" xmlns="http://www.w3.org/2000/svg">
<g clip-path="url(#clip0_939_2541)">
<path opacity="0.4" d="M29.4063 2.82188L26.8646 0.534385C26.4828 0.192151 25.9659 0 25.4271 0C24.8882 0 24.3714 0.192151 23.9896 0.534385L22.1458 2.19376C22.0508 2.27967 21.9974 2.39597 21.9974 2.5172C21.9974 2.63843 22.0508 2.75472 22.1458 2.84063L26.8438 7.06876C26.9392 7.15429 27.0684 7.20231 27.2031 7.20231C27.3378 7.20231 27.467 7.15429 27.5625 7.06876L29.4063 5.40938C29.7865 5.06579 30 4.60059 30 4.11563C30 3.63068 29.7865 3.16548 29.4063 2.82188ZM22.2656 13.95L20.1823 15.825C20.0666 15.9316 20.0013 16.0744 20 16.2234V20.9953H3.33333V5.99532H15.3021C15.4677 5.99418 15.6263 5.93538 15.7448 5.83126L17.8281 3.95626C17.9158 3.87759 17.9756 3.77724 17.9999 3.66794C18.0241 3.55864 18.0117 3.44533 17.9643 3.34237C17.9169 3.23942 17.8365 3.15147 17.7335 3.08968C17.6304 3.02789 17.5093 2.99505 17.3854 2.99532H2.5C1.83696 2.99532 1.20107 3.23237 0.732233 3.65433C0.263392 4.07629 0 4.64858 0 5.24532L0 21.7453C0 22.3421 0.263392 22.9143 0.732233 23.3363C1.20107 23.7583 1.83696 23.9953 2.5 23.9953H20.8333C21.4964 23.9953 22.1323 23.7583 22.6011 23.3363C23.0699 22.9143 23.3333 22.3421 23.3333 21.7453V14.3484C23.3336 14.237 23.2971 14.128 23.2285 14.0352C23.1598 13.9425 23.0621 13.8701 22.9477 13.8275C22.8333 13.7848 22.7074 13.7736 22.586 13.7954C22.4645 13.8173 22.353 13.8711 22.2656 13.95Z" fill="white"/>
<path d="M25.6665 8.12339C25.7615 8.20931 25.8149 8.3256 25.8149 8.44683C25.8149 8.56806 25.7615 8.68435 25.6665 8.77027L14.2915 19.0078L9.45816 19.4906C9.30698 19.5059 9.15391 19.4903 9.01032 19.4451C8.86673 19.3998 8.73631 19.3261 8.62874 19.2292C8.52116 19.1324 8.4392 19.015 8.38893 18.8858C8.33866 18.7566 8.32138 18.6188 8.33837 18.4828L8.87482 14.1328L20.2498 3.89527C20.3453 3.80974 20.4745 3.76172 20.6092 3.76172C20.7439 3.76172 20.8731 3.80974 20.9686 3.89527L25.6665 8.12339Z" fill="white"/>
</g>
<defs>
<clipPath id="clip0_939_2541">
<rect width="30" height="24" fill="white"/>
</clipPath>
</defs>
</svg>
