<svg width="20" height="52" viewBox="0 0 20 52" fill="none" xmlns="http://www.w3.org/2000/svg">
<path d="M10.6351 6.31329C10.4811 6.46819 10.284 6.57369 10.069 6.61649C9.85403 6.65929 9.63205 6.63739 9.43005 6.55369C9.22705 6.46999 9.05504 6.32809 8.93304 6.14609C8.81104 5.96409 8.74707 5.75009 8.74707 5.53129V1.10649C8.74707 0.813187 8.86404 0.531788 9.07104 0.324389C9.27904 0.116989 9.56009 0.000488281 9.85309 0.000488281C10.1471 0.000488281 10.4281 0.116989 10.6351 0.324389C10.8431 0.531788 10.959 0.813187 10.959 1.10649V5.53179C10.959 5.67699 10.9311 5.82079 10.8751 5.95489C10.8201 6.08899 10.7381 6.21079 10.6351 6.31329Z" fill="#FFDD54" fill-opacity="0.8"/>
<path d="M10.6336 6.31341C10.7366 6.21081 10.8187 6.08881 10.8737 5.95451C10.9297 5.82021 10.9576 5.67621 10.9576 5.53081V1.10551C10.9576 0.960311 10.9297 0.816512 10.8737 0.682312C10.8177 0.548112 10.7366 0.426112 10.6336 0.323412C10.5306 0.220712 10.4097 0.139212 10.2747 0.0837116C10.1407 0.0281116 9.99662 -0.000488281 9.85162 -0.000488281L9.84961 6.63951C9.99561 6.63971 10.1397 6.61091 10.2747 6.55491C10.4087 6.49901 10.5316 6.41691 10.6336 6.31341Z" fill="#FFB454" fill-opacity="0.8"/>
<path d="M18.0091 12.7016C17.8541 12.8565 17.6571 12.962 17.4431 13.0048C17.2281 13.0476 17.0051 13.0258 16.8031 12.942C16.6011 12.8583 16.4281 12.7165 16.3071 12.5345C16.1851 12.3524 16.1201 12.1385 16.1201 11.9196V7.49428C16.1201 7.34908 16.1491 7.20518 16.2041 7.07098C16.2601 6.93678 16.3421 6.81488 16.4441 6.71218C16.5471 6.60948 16.6691 6.52798 16.8031 6.47238C16.9371 6.41688 17.0811 6.38818 17.2261 6.38818C17.3721 6.38818 17.5151 6.41688 17.6501 6.47238C17.7841 6.52798 17.9061 6.60948 18.0081 6.71218C18.1111 6.81488 18.1931 6.93678 18.2481 7.07098C18.3041 7.20518 18.3321 7.34908 18.3321 7.49428V11.9196C18.3331 12.0648 18.3041 12.2087 18.2491 12.3429C18.1931 12.4771 18.1121 12.599 18.0091 12.7016Z" fill="#EC8600" fill-opacity="0.8"/>
<path d="M3.26013 12.7017C3.10513 12.8565 2.90812 12.9621 2.69312 13.0048C2.47912 13.0476 2.25614 13.0258 2.05414 12.942C1.85214 12.8583 1.67911 12.7165 1.55811 12.5344C1.43611 12.3524 1.37109 12.1385 1.37109 11.9196V7.49428C1.37109 7.20098 1.48813 6.91958 1.69513 6.71218C1.79813 6.60948 1.92014 6.52798 2.05414 6.47238C2.18814 6.41688 2.33211 6.38818 2.47711 6.38818C2.62311 6.38818 2.76612 6.41688 2.90112 6.47238C3.03512 6.52798 3.15709 6.60948 3.25909 6.71218C3.36209 6.81488 3.44415 6.93678 3.49915 7.07098C3.55515 7.20518 3.58313 7.34898 3.58313 7.49428V11.9196C3.58413 12.0648 3.55512 12.2087 3.50012 12.3429C3.44412 12.4771 3.36313 12.599 3.26013 12.7017Z" fill="#FFB454" fill-opacity="0.8"/>
<path d="M10.6351 51.1704C10.4811 51.3253 10.283 51.4308 10.069 51.4736C9.85404 51.5164 9.63209 51.4945 9.42909 51.4108C9.22709 51.327 9.05406 51.1852 8.93306 51.0032C8.81106 50.8212 8.74608 50.6072 8.74708 50.3883V15.9468C8.74708 15.6535 8.86306 15.3722 9.07106 15.1647C9.27806 14.9573 9.5591 14.8408 9.8531 14.8408C10.1461 14.8408 10.4271 14.9573 10.6351 15.1647C10.8421 15.3722 10.9591 15.6535 10.9591 15.9468V50.3883C10.9591 50.5337 10.9301 50.6777 10.8751 50.812C10.8191 50.9463 10.7381 51.0683 10.6351 51.1709V51.1704Z" fill="#FFB454" fill-opacity="0.8"/>
<path d="M10.6355 51.171C10.7385 51.0683 10.8195 50.9464 10.8755 50.8121C10.9315 50.6777 10.9595 50.5338 10.9595 50.3884V15.9469C10.9595 15.8016 10.9305 15.6578 10.8755 15.5236C10.8195 15.3894 10.7385 15.2675 10.6355 15.1648C10.5325 15.0621 10.4105 14.9806 10.2765 14.925C10.1425 14.8694 9.99852 14.8408 9.85352 14.8408V51.496C9.99952 51.4963 10.1435 51.4678 10.2775 51.4122C10.4115 51.3566 10.5335 51.275 10.6365 51.172L10.6355 51.171Z" fill="#EC8600" fill-opacity="0.8"/>
<path d="M10.9072 16.5591C10.7732 16.6825 10.6853 16.7548 10.6663 16.7713C10.4383 16.9539 10.1542 17.0534 9.86224 17.0534C9.57024 17.0534 9.28727 16.9539 9.05927 16.7713C8.92627 16.6623 5.82324 14.0719 5.82324 10.7394C5.82324 7.40679 8.92727 4.81589 9.05927 4.70739C9.28727 4.52479 9.57024 4.42529 9.86224 4.42529C10.1542 4.42529 10.4383 4.52479 10.6663 4.70739C10.7983 4.81589 13.8992 7.40899 13.9012 10.7394C13.9012 13.5691 11.6632 15.8648 10.9072 16.5591Z" fill="#FFDD54" fill-opacity="0.8"/>
<path d="M10.6644 16.7711C10.6824 16.753 10.7724 16.6818 10.9054 16.5589C11.6614 15.8646 13.8974 13.5668 13.8994 10.7397C13.8994 7.40721 10.7964 4.81681 10.6644 4.70771C10.4374 4.52371 10.1534 4.42401 9.86035 4.42581L9.86139 17.0531C10.1534 17.0548 10.4374 16.9552 10.6644 16.7711Z" fill="#FFB454" fill-opacity="0.8"/>
<path d="M17.9541 10.8172C17.7771 10.8082 13.5892 10.6246 11.0232 12.9804C10.5712 13.3986 10.1811 13.8796 9.86514 14.4088C9.54814 13.8802 9.15713 13.3998 8.70413 12.9825C6.14013 10.6268 1.95014 10.8108 1.77414 10.8194C1.48914 10.8234 1.21617 10.9321 1.00717 11.1246C0.797172 11.3171 0.666177 11.58 0.637177 11.8632C0.627177 12.0254 0.428134 15.8735 2.99313 18.2298C5.42613 20.4648 9.31813 20.4163 9.86313 20.3956C10.4111 20.4121 14.3001 20.4648 16.7321 18.2298C19.2991 15.8756 19.0981 12.0254 19.0891 11.8616C19.0611 11.5786 18.9302 11.3158 18.7212 11.1232C18.5122 10.9306 18.2391 10.8217 17.9541 10.8172Z" fill="#FFB454" fill-opacity="0.8"/>
<path d="M9.8623 20.3965C10.4113 20.4129 14.2993 20.4656 16.7323 18.2306C19.2993 15.8765 19.0973 12.0263 19.0893 11.8624C19.0613 11.5792 18.9293 11.3163 18.7203 11.1238C18.5103 10.9313 18.2373 10.8227 17.9533 10.8186C17.7753 10.8112 13.5863 10.6271 11.0213 12.9834C10.5683 13.4017 10.1783 13.8829 9.8623 14.4124V20.3965Z" fill="#EC8600" fill-opacity="0.8"/>
<path d="M17.9541 16.9012C17.7771 16.8922 13.5892 16.7086 11.0232 19.0644C10.5712 19.4826 10.1811 19.9636 9.86514 20.4928C9.54814 19.9642 9.15713 19.4838 8.70413 19.0665C6.14013 16.7107 1.95014 16.8948 1.77414 16.9033C1.48914 16.9074 1.21617 17.0161 1.00717 17.2086C0.797172 17.4011 0.666177 17.664 0.637177 17.9471C0.627177 18.1094 0.428134 21.9575 2.99313 24.3138C5.42713 26.5503 9.32417 26.495 9.86417 26.4796C10.4142 26.4982 14.3011 26.5471 16.7321 24.3138C19.2991 21.9596 19.0981 18.1094 19.0891 17.9456C19.0611 17.6625 18.9302 17.3996 18.7212 17.207C18.5122 17.0144 18.2391 16.9055 17.9541 16.9012Z" fill="#FFDD54" fill-opacity="0.8"/>
<path d="M9.86432 26.4799C10.4143 26.4985 14.3013 26.5475 16.7333 24.3141C19.3003 21.9599 19.0973 18.1103 19.0893 17.9459C19.0613 17.6629 18.9303 17.4002 18.7203 17.2078C18.5113 17.0154 18.2383 16.9068 17.9543 16.9026C17.7753 16.8951 13.5863 16.7111 11.0213 19.0674C10.5683 19.4857 10.1783 19.9669 9.8623 20.4963V26.4804L9.86432 26.4799Z" fill="#FFB454" fill-opacity="0.8"/>
<path d="M17.9541 22.9852C17.7771 22.9761 13.5892 22.7926 11.0232 25.1484C10.5712 25.5665 10.1811 26.0476 9.86514 26.5768C9.54814 26.0481 9.15713 25.5678 8.70413 25.1505C6.14013 22.7947 1.95014 22.9788 1.77414 22.9873C1.48914 22.9914 1.21617 23.1 1.00717 23.2925C0.797172 23.4851 0.666177 23.748 0.637177 24.0311C0.627177 24.1934 0.428134 28.0414 2.99313 30.3977C5.42613 32.6333 9.31913 32.5833 9.86313 32.5641C10.4121 32.5811 14.3011 32.6327 16.7331 30.3983C19.3001 28.0441 19.0982 24.1945 19.0902 24.0301C19.0622 23.7468 18.9311 23.4837 18.7221 23.291C18.5121 23.0982 18.2391 22.9894 17.9541 22.9852Z" fill="#FFB454" fill-opacity="0.8"/>
<path d="M9.8623 32.5641C10.4113 32.5811 14.3003 32.6328 16.7323 30.3983C19.2993 28.0441 19.0973 24.194 19.0893 24.0301C19.0613 23.7471 18.9293 23.4844 18.7203 23.292C18.5103 23.0996 18.2373 22.991 17.9533 22.9868C17.7753 22.9788 13.5863 22.7948 11.0213 25.151C10.5683 25.5693 10.1783 26.0506 9.8623 26.58V32.5641Z" fill="#EC8600" fill-opacity="0.8"/>
<path d="M17.9541 29.0702C17.7771 29.0611 13.5892 28.8776 11.0232 31.2333C10.5712 31.6515 10.1811 32.1326 9.86514 32.6618C9.54814 32.1331 9.15713 31.6527 8.70413 31.2354C6.14013 28.8797 1.95014 29.0638 1.77414 29.0723C1.48914 29.0764 1.21617 29.185 1.00717 29.3775C0.797172 29.57 0.666177 29.8329 0.637177 30.1161C0.627177 30.2784 0.428134 34.1264 2.99313 36.4827C5.42613 38.7182 9.31913 38.6682 9.86313 38.6491C10.4121 38.6661 14.3011 38.7177 16.7331 36.4832C19.3001 34.1291 19.0982 30.2789 19.0902 30.115C19.0622 29.8318 18.9312 29.5688 18.7212 29.3761C18.5122 29.1834 18.2391 29.0745 17.9541 29.0702Z" fill="#FFDD54" fill-opacity="0.8"/>
<path d="M9.86328 38.6481C10.4123 38.6651 14.3013 38.7167 16.7333 36.4823C19.3003 34.1281 19.0983 30.2779 19.0903 30.1141C19.0623 29.8311 18.9303 29.5684 18.7213 29.376C18.5113 29.1836 18.2383 29.075 17.9543 29.0708C17.7753 29.0628 13.5863 28.8787 11.0213 31.235C10.5683 31.6532 10.1783 32.1343 9.86328 32.6635L9.8623 38.6481H9.86328Z" fill="#FFB454" fill-opacity="0.8"/>
</svg>
