<svg width="860" height="829" viewBox="0 0 860 829" fill="none" xmlns="http://www.w3.org/2000/svg">
<path d="M432.942 306.136C435.592 301.536 439.52 298.816 443.628 296.362C454.132 290.087 465.858 285.604 479.195 285.094C487.256 284.785 499.278 284.842 509.377 294.627C518.917 303.872 527.331 323.647 532.148 335.785C557.497 399.664 519.961 432.635 494.819 450.134C467.152 469.391 434.311 484.178 395.201 479.519C367.727 476.247 333.312 458.256 311.288 413.663C271.698 333.506 314.071 287.451 344.662 264.964C367.045 248.513 393.233 236.766 422.528 233.599C440.434 231.663 459.743 234.497 481.69 254.158C520.151 288.612 552.771 356.84 549.99 400.779C547.564 439.089 521.138 455.504 498.107 466.925C480.726 475.545 466.358 480.049 446.284 483.246C426.801 486.349 403.059 489.269 378.808 478.573C358.682 469.697 349.419 444.239 343.971 421.472C332.472 373.421 332.087 326.798 337.294 288.804C346.15 224.18 371.82 174.474 407.27 140.401C447.356 101.871 503.051 77.4109 573.352 108.432C598.764 119.645 634.735 142 654.028 179.875C671.695 214.558 664.015 244.199 655.433 263.425C645.912 284.754 635.477 297.318 620.813 312.593C599.766 334.516 580.307 349.571 555.802 366.699C479.696 419.897 393.707 459.413 295.589 470.093C274.296 472.411 236.412 473.313 210.254 466.045C199.73 463.122 178.794 453.747 167.421 437.243C158.617 424.467 155.015 401.678 154.728 391.344C154.188 371.917 159.637 346.714 164.524 332.726C181.215 284.954 211.487 251.249 246.223 227.848C264.135 215.781 293.726 201.303 314.891 195.446C347.917 186.308 385.508 183.588 427.971 201.855C474.903 222.045 517.987 268.62 554.404 327.739C573.887 359.368 586.38 384.09 600.551 417.617C614.777 451.276 630.438 493.859 627.471 522.596C623.281 563.174 581.659 565.966 553.973 569.184C534.413 571.457 498.222 572.275 477.834 571.59C442.416 570.4 405.166 568.103 365.637 553.108C332.249 540.442 292.902 514.079 276.988 460.818C267.932 430.509 268.287 408.629 270.848 384.37C274.608 348.761 282.571 324.771 295.185 297.444C324.506 233.921 369.929 189.826 425.343 164.403C470.393 143.735 531.625 129.853 599.293 182.704C631.657 207.982 657.991 251.044 670.941 293.581C687.82 349.024 677.365 388.268 658.483 416.108C643.664 437.957 616.181 462.805 596.864 476.548C569.964 495.685 529.405 516.83 498.486 528.289C467.236 539.871 423.312 550.428 387.679 553.019C343.097 556.261 293.338 552.451 240.686 528.522C203.772 511.746 154.852 477.086 135.733 418.979C126.006 389.416 126.389 369.664 129.917 346.959C135.027 314.078 144.948 294.413 159.84 271.628C195.872 216.501 246.84 177.91 305.989 159.9C335.934 150.783 358.634 148.075 393.901 152.735C436.541 158.369 482.718 178.019 529.713 207.28C581.536 239.547 640.089 285.602 687.369 344.518C701.338 361.925 719.945 389.961 728.31 411.747C736.838 433.956 739.742 461.382 737.821 478.504C734.973 503.887 722.382 530.616 711.681 546.765C696.869 569.118 668.427 597.614 649.667 613.29C580.616 670.987 496.9 707.439 400.916 713.347C362.895 715.688 331.9 714.981 289.027 701.499C256.765 691.353 231.286 679.311 198.207 649.112C170.907 624.189 154.737 602.026 137.413 565.27C119.421 527.096 112.699 497.943 108.388 462.301C97.9135 375.7 121.239 314.571 154.879 269.121C178.257 237.536 199.433 219.006 230.196 198.208C272.664 169.496 320.902 148.467 374.321 140.798C425.932 133.389 486.322 139.648 551.171 184.899C595.2 215.622 642.225 267.252 672.825 325.6C683.627 346.197 697.672 381.612 700.683 402.071C704.735 429.606 698.652 453.249 688.632 468.129C673.854 490.075 642.14 509.2 621.121 519.492C573.112 543.001 519.48 557.528 464.98 567.887C432.046 574.147 405.313 578.001 369.821 577.221C346.613 576.712 325.169 575.285 298.987 563.632C281.051 555.649 268.667 547.247 252.88 525.719C236.842 503.849 229.783 485.35 223.321 460.839C202.76 382.843 215.066 318.013 235.936 270.637C252.068 234.018 269.655 211.216 293.894 184.759C328.179 147.337 367.674 115.336 413.51 96.7041C455.106 79.7965 504.102 76.6004 561.498 106.207C580.175 115.841 607.262 135.089 626.019 150.427C650.31 170.291 678.279 195.457 699.62 224.746C710.515 239.7 716.772 250.314 718.606 266.605C720.711 285.315 714.805 296.451 708.521 307.375C697.903 325.833 685.075 338.733 670.692 352.155C642.539 378.429 610.657 398.3 580.221 420.901" stroke="url(#paint0_linear_1223_1513)" stroke-opacity="0.14" stroke-width="3" stroke-linecap="round"/>
<g filter="url(#filter0_d_1223_1513)">
<g filter="url(#filter1_d_1223_1513)">
<circle cx="643.699" cy="431.81" r="21.6986" fill="white"/>
</g>
<path d="M646.228 426.114H642.193C642.057 426.114 641.925 426.07 641.816 425.989L640.132 424.726C639.935 424.578 639.772 424.39 639.654 424.173C639.536 423.957 639.466 423.718 639.449 423.473C639.431 423.227 639.467 422.98 639.553 422.75C639.639 422.519 639.774 422.31 639.948 422.135L639.952 422.132C640.17 421.913 640.446 421.76 640.747 421.689C641.048 421.618 641.363 421.633 641.657 421.732L642.695 422.079L643.766 421.008C643.884 420.89 644.044 420.824 644.21 420.824C644.377 420.824 644.536 420.89 644.654 421.008L645.725 422.079L646.763 421.732C647.057 421.633 647.372 421.619 647.673 421.689C647.974 421.76 648.25 421.914 648.469 422.133L648.472 422.136C648.646 422.31 648.781 422.52 648.867 422.751C648.953 422.981 648.989 423.228 648.971 423.473C648.954 423.719 648.884 423.958 648.766 424.174C648.648 424.39 648.485 424.579 648.288 424.726L646.604 425.989C646.496 426.071 646.363 426.115 646.227 426.115L646.228 426.114Z" fill="#5EAC24"/>
<path d="M644.21 442.614C642.776 442.612 641.357 442.328 640.033 441.777C638.71 441.226 637.508 440.42 636.496 439.404C635.484 438.388 634.682 437.183 634.136 435.857C633.59 434.531 633.311 433.111 633.315 431.677C633.313 429.873 634.028 428.142 635.301 426.863C636.575 425.585 638.303 424.864 640.107 424.858H648.313C650.117 424.864 651.846 425.585 653.119 426.863C654.393 428.142 655.107 429.873 655.105 431.677C655.109 433.111 654.83 434.531 654.284 435.857C653.738 437.183 652.937 438.388 651.925 439.404C650.913 440.42 649.711 441.226 648.387 441.777C647.063 442.328 645.644 442.612 644.21 442.614V442.614Z" fill="#FF3501"/>
</g>
<g filter="url(#filter2_d_1223_1513)">
<circle cx="162.501" cy="378.009" r="20.9189" fill="white"/>
</g>
<path d="M175.486 378.877C175.486 382.657 169.693 384.932 162.545 384.932C155.397 384.932 149.6 382.657 149.6 378.877C149.6 376.619 151.674 374.331 154.869 372.86C155.863 372.405 156.899 372.049 157.963 371.795C158.959 371.552 159.974 371.39 160.996 371.31C161.503 371.272 162.02 371.251 162.543 371.251C163.066 371.251 163.583 371.272 164.09 371.31C165.112 371.39 166.127 371.552 167.123 371.795C168.187 372.049 169.223 372.405 170.217 372.86C173.413 374.331 175.486 376.619 175.486 378.877Z" fill="#FFBB70"/>
<path d="M164.09 371.311V377.632C164.09 378.725 163.396 379.618 162.543 379.618C161.691 379.618 160.997 378.725 160.997 377.632V371.311C161.503 371.273 162.021 371.252 162.543 371.252C163.066 371.252 163.583 371.274 164.09 371.311Z" fill="#DB714C"/>
<path d="M157.963 371.797V376.355C157.963 377.448 157.267 378.341 156.416 378.341C155.565 378.341 154.869 377.447 154.869 376.355V372.86C155.863 372.406 156.899 372.05 157.963 371.797V371.797Z" fill="#DB714C"/>
<path d="M170.217 372.86V376.355C170.217 377.448 169.521 378.341 168.671 378.341C167.82 378.341 167.123 377.447 167.123 376.355V371.797C168.187 372.05 169.223 372.406 170.217 372.86V372.86Z" fill="#DB714C"/>
<g filter="url(#filter3_d_1223_1513)">
<g filter="url(#filter4_d_1223_1513)">
<circle cx="234.501" cy="531.008" r="23.5385" fill="white"/>
</g>
<path d="M225.636 528.94H244.703V530.529C244.703 532.847 243.782 535.07 242.143 536.709C240.504 538.347 238.282 539.268 235.964 539.268H232.786C230.469 539.268 228.246 538.347 226.607 536.709C224.968 535.07 224.047 532.847 224.047 530.529V530.529C224.047 530.108 224.215 529.704 224.513 529.406C224.811 529.108 225.215 528.94 225.636 528.94V528.94Z" fill="#BF5EFF"/>
<path d="M239.495 519.644L234.117 528.959L240.895 526.624L243.359 523.623C242.447 521.977 241.113 520.604 239.495 519.644V519.644Z" fill="#BF5EFF"/>
<path d="M243.359 523.622L234.117 528.958H244.693C244.69 527.097 244.232 525.266 243.359 523.622Z" fill="#A931F8"/>
<path d="M234.61 518.172C236.342 518.233 238.029 518.739 239.51 519.642C239.494 519.613 234.117 528.96 234.117 528.96V518.665C234.117 518.534 234.169 518.409 234.261 518.316C234.353 518.224 234.479 518.172 234.61 518.172V518.172Z" fill="#D298F8"/>
<path d="M240.156 542.445C238.732 542.445 237.574 541.287 237.574 539.863C237.574 538.439 238.732 537.281 240.156 537.281C241.579 537.281 242.738 538.439 242.738 539.863C242.738 541.287 241.579 542.445 240.156 542.445Z" fill="#D298F8"/>
<path d="M240.156 538.075C239.17 538.075 238.368 538.877 238.368 539.863C238.368 540.848 239.17 541.65 240.156 541.65C241.141 541.65 241.943 540.848 241.943 539.863C241.943 538.877 241.141 538.075 240.156 538.075ZM240.156 536.486C242.02 536.486 243.532 537.998 243.532 539.863C243.532 541.727 242.02 543.239 240.156 543.239C238.291 543.239 236.779 541.727 236.779 539.863C236.779 537.998 238.291 536.486 240.156 536.486Z" fill="#A931F8"/>
<path d="M229.211 542.898C227.787 542.898 226.629 541.74 226.629 540.316C226.629 538.893 227.787 537.734 229.211 537.734C230.635 537.734 231.793 538.893 231.793 540.316C231.793 541.74 230.635 542.898 229.211 542.898Z" fill="#D298F8"/>
<path d="M229.211 538.529C228.225 538.529 227.423 539.331 227.423 540.317C227.423 541.302 228.225 542.104 229.211 542.104C230.196 542.104 230.998 541.302 230.998 540.317C230.998 539.331 230.196 538.529 229.211 538.529ZM229.211 536.94C231.076 536.94 232.587 538.452 232.587 540.317C232.587 542.181 231.076 543.693 229.211 543.693C227.346 543.693 225.834 542.181 225.834 540.317C225.834 538.452 227.346 536.94 229.211 536.94Z" fill="#A931F8"/>
</g>
<g filter="url(#filter5_d_1223_1513)">
<g filter="url(#filter6_d_1223_1513)">
<circle cx="656.5" cy="256.009" r="22.5" fill="white"/>
</g>
<path d="M659.775 245.3L658.837 248.192H653.686L652.749 245.3C652.71 245.195 652.697 245.081 652.712 244.969C652.727 244.858 652.769 244.751 652.835 244.66C652.903 244.569 652.99 244.494 653.092 244.443C653.193 244.391 653.304 244.363 653.418 244.361H659.107C659.221 244.363 659.332 244.391 659.433 244.443C659.534 244.494 659.622 244.569 659.69 244.66C659.756 244.751 659.798 244.858 659.813 244.969C659.828 245.081 659.815 245.195 659.775 245.3V245.3Z" fill="#FF873C"/>
<path d="M658.837 248.192H656.262V244.361H659.106C659.22 244.363 659.332 244.391 659.433 244.443C659.534 244.494 659.622 244.569 659.689 244.66C659.755 244.751 659.798 244.858 659.812 244.969C659.827 245.081 659.814 245.195 659.775 245.3L658.837 248.192Z" fill="#FF873C"/>
<path d="M659.819 248.676C658.824 248.678 657.848 248.942 656.987 249.441C656.127 249.941 655.414 250.658 654.918 251.52H659.819C660.578 251.531 661.302 251.841 661.835 252.382C662.367 252.923 662.665 253.653 662.663 254.412C662.663 255.167 662.363 255.89 661.83 256.423C661.297 256.957 660.573 257.257 659.819 257.257V260.103C661.334 260.103 662.787 259.501 663.859 258.43C664.93 257.358 665.532 255.905 665.532 254.39C665.532 252.874 664.93 251.421 663.859 250.349C662.787 249.278 661.334 248.676 659.819 248.676V248.676Z" fill="#92D8FF"/>
<path d="M662.578 257.257L661.283 258.681H651.156L649.949 257.259C650.693 256.168 651.682 255.267 652.837 254.628L653.164 253.646C653.752 251.877 653.614 249.947 652.78 248.279C652.728 248.172 652.703 248.053 652.708 247.934C652.713 247.814 652.748 247.698 652.809 247.595C652.874 247.492 652.965 247.407 653.071 247.348C653.178 247.288 653.298 247.256 653.42 247.254H659.107C659.23 247.256 659.349 247.288 659.456 247.348C659.563 247.407 659.653 247.492 659.719 247.595C659.78 247.698 659.814 247.814 659.819 247.934C659.824 248.053 659.8 248.172 659.748 248.279C658.914 249.947 658.776 251.877 659.364 253.646L659.691 254.628C660.846 255.266 661.834 256.167 662.578 257.257V257.257Z" fill="#BDEBFF"/>
<path d="M663.73 264.282L662.934 267.084C662.803 267.527 662.534 267.917 662.165 268.196C661.796 268.476 661.348 268.629 660.885 268.634H651.64C651.178 268.629 650.729 268.476 650.361 268.196C649.992 267.917 649.723 267.527 649.592 267.084L648.796 264.282C648.458 263.098 648.386 261.855 648.585 260.64C648.784 259.425 649.249 258.269 649.948 257.256H662.578C663.279 258.268 663.745 259.424 663.945 260.639C664.144 261.854 664.07 263.099 663.73 264.282V264.282Z" fill="#FFC808"/>
</g>
<g filter="url(#filter7_d_1223_1513)">
<g filter="url(#filter8_d_1223_1513)">
<circle cx="203.727" cy="202.783" r="19.726" fill="white"/>
</g>
<path d="M207.393 202.742H200.909C200.264 202.741 199.646 202.485 199.189 202.029C198.733 201.573 198.477 200.955 198.477 200.31C198.477 199.665 198.733 199.047 199.189 198.59C199.645 198.134 200.264 197.878 200.909 197.878H207.394C208.039 197.878 208.657 198.134 209.113 198.59C209.569 199.047 209.826 199.665 209.826 200.31V200.31C209.825 200.955 209.569 201.573 209.113 202.029C208.657 202.485 208.038 202.741 207.393 202.742Z" fill="#54C0EB"/>
<path d="M208.204 215.307H200.098C199.668 215.307 199.256 215.136 198.952 214.832C198.648 214.528 198.477 214.115 198.477 213.685V203.958C198.477 203.528 198.648 203.116 198.952 202.812C199.256 202.508 199.668 202.337 200.098 202.337H208.204C208.634 202.337 209.047 202.508 209.351 202.812C209.655 203.116 209.826 203.528 209.826 203.958V213.685C209.826 214.116 209.655 214.528 209.351 214.832C209.047 215.136 208.634 215.307 208.204 215.307V215.307Z" fill="#84DBFF"/>
<path d="M198.477 196.662C198.686 195.308 199.373 194.073 200.414 193.18C201.455 192.288 202.78 191.798 204.151 191.798C205.522 191.798 206.847 192.288 207.888 193.18C208.929 194.073 209.616 195.308 209.825 196.662L209.647 195.949C209.765 196.168 209.826 196.413 209.825 196.662C209.824 197.092 209.653 197.504 209.349 197.807C209.045 198.111 208.634 198.282 208.204 198.284H200.098C199.669 198.282 199.257 198.111 198.953 197.807C198.649 197.504 198.478 197.092 198.477 196.662C198.476 196.413 198.537 196.168 198.655 195.949" fill="#84DBFF"/>
<path d="M206.585 189.366H201.719C201.504 189.366 201.298 189.452 201.146 189.604C200.994 189.756 200.909 189.962 200.909 190.177V191.798C200.909 192.013 200.994 192.219 201.146 192.371C201.298 192.523 201.504 192.609 201.719 192.609H206.585C206.8 192.609 207.006 192.523 207.158 192.371C207.31 192.219 207.395 192.013 207.396 191.798V190.177C207.395 189.962 207.31 189.756 207.158 189.604C207.006 189.452 206.8 189.366 206.585 189.366V189.366Z" fill="#008DC5"/>
</g>
<g filter="url(#filter9_d_1223_1513)">
<g filter="url(#filter10_d_1223_1513)">
<circle cx="645.699" cy="614.81" r="21.6986" fill="white"/>
</g>
</g>
<path d="M640.48 625.301C640.118 625.559 639.676 625.678 639.233 625.637C638.79 625.595 638.377 625.395 638.07 625.074C637.879 624.884 637.729 624.657 637.63 624.406C637.298 624.502 636.947 624.507 636.612 624.421C636.278 624.335 635.973 624.161 635.728 623.917C635.484 623.673 635.31 623.367 635.224 623.033C635.138 622.698 635.143 622.347 635.239 622.015C634.989 621.917 634.761 621.768 634.571 621.578C634.25 621.27 634.05 620.857 634.009 620.415C633.967 619.972 634.086 619.529 634.344 619.167C634.317 619.143 642.434 617.213 642.434 617.213C642.434 617.213 640.504 625.326 640.48 625.301Z" fill="#5AC36B"/>
<path d="M647.703 611.941C647.703 611.941 649.633 603.826 649.657 603.853C650.019 603.595 650.462 603.475 650.905 603.517C651.347 603.558 651.76 603.758 652.068 604.079C652.259 604.269 652.408 604.497 652.507 604.748C652.839 604.652 653.19 604.646 653.525 604.732C653.859 604.818 654.165 604.992 654.409 605.237C654.653 605.481 654.827 605.786 654.913 606.121C654.999 606.455 654.994 606.806 654.898 607.138C655.149 607.237 655.376 607.387 655.566 607.578C655.887 607.885 656.087 608.298 656.129 608.741C656.17 609.183 656.051 609.626 655.793 609.988C655.819 610.012 647.703 611.941 647.703 611.941Z" fill="#5AC36B"/>
<path d="M647.703 611.943L654.409 605.237C654.657 605.479 654.833 605.784 654.919 606.12C655.005 606.455 654.998 606.808 654.898 607.139C655.149 607.238 655.376 607.388 655.566 607.579C655.887 607.886 656.087 608.299 656.129 608.742C656.17 609.184 656.051 609.627 655.793 609.989C655.819 610.012 647.703 611.943 647.703 611.943Z" fill="#458636"/>
<path d="M642.434 617.211C642.434 617.211 640.504 625.327 640.48 625.301C640.118 625.559 639.675 625.678 639.233 625.637C638.79 625.595 638.377 625.395 638.07 625.074C637.879 624.884 637.729 624.657 637.63 624.406C637.298 624.506 636.946 624.513 636.611 624.427C636.275 624.341 635.97 624.165 635.728 623.917L642.434 617.211Z" fill="#458636"/>
<path d="M650.696 617.295L647.786 620.205C647.665 620.326 647.539 620.439 647.41 620.548C646.68 621.156 645.067 620.479 645.067 620.479C645.067 620.479 643.457 621.867 642.724 621.716C641.664 621.497 640.691 620.971 639.927 620.205L639.437 619.716C638.396 618.674 637.811 617.261 637.811 615.788C637.811 614.314 638.396 612.901 639.437 611.86L642.348 608.949C642.469 608.828 642.595 608.715 642.724 608.606C643.403 608.04 645.187 609.226 645.187 609.226C645.187 609.226 646.614 607.274 647.406 607.439C648.466 607.658 649.439 608.183 650.203 608.949L650.692 609.439C651.735 610.48 652.32 611.893 652.321 613.366C652.322 614.839 651.737 616.252 650.696 617.295V617.295Z" fill="#5BB24A"/>
<path d="M650.696 617.295L647.786 620.205C647.665 620.326 647.539 620.439 647.41 620.548C646.68 621.157 645.067 620.479 645.067 620.479C645.067 620.479 643.457 621.867 642.724 621.716C641.664 621.497 640.691 620.971 639.927 620.205L639.682 619.961L650.448 609.194L650.693 609.439C651.735 610.48 652.321 611.893 652.321 613.366C652.322 614.839 651.738 616.252 650.696 617.295V617.295Z" fill="#5BB24A"/>
<path d="M647.409 607.439C646.591 607.268 645.745 607.285 644.935 607.487C644.124 607.689 643.37 608.072 642.727 608.607V621.716C643.545 621.887 644.391 621.87 645.202 621.668C646.013 621.466 646.767 621.083 647.409 620.548V607.439Z" fill="#72E258"/>
<path d="M647.409 620.547C646.767 621.081 646.013 621.464 645.202 621.666C644.391 621.868 643.545 621.885 642.727 621.715V616.917L647.409 612.235V620.547Z" fill="#65C750"/>
<defs>
<filter id="filter0_d_1223_1513" x="608" y="397.111" width="77.3973" height="77.3975" filterUnits="userSpaceOnUse" color-interpolation-filters="sRGB">
<feFlood flood-opacity="0" result="BackgroundImageFix"/>
<feColorMatrix in="SourceAlpha" type="matrix" values="0 0 0 0 0 0 0 0 0 0 0 0 0 0 0 0 0 0 127 0" result="hardAlpha"/>
<feOffset dx="3" dy="4"/>
<feGaussianBlur stdDeviation="8.5"/>
<feComposite in2="hardAlpha" operator="out"/>
<feColorMatrix type="matrix" values="0 0 0 0 0 0 0 0 0 0 0 0 0 0 0 0 0 0 0.05 0"/>
<feBlend mode="normal" in2="BackgroundImageFix" result="effect1_dropShadow_1223_1513"/>
<feBlend mode="normal" in="SourceGraphic" in2="effect1_dropShadow_1223_1513" result="shape"/>
</filter>
<filter id="filter1_d_1223_1513" x="554" y="346.111" width="179.397" height="179.397" filterUnits="userSpaceOnUse" color-interpolation-filters="sRGB">
<feFlood flood-opacity="0" result="BackgroundImageFix"/>
<feColorMatrix in="SourceAlpha" type="matrix" values="0 0 0 0 0 0 0 0 0 0 0 0 0 0 0 0 0 0 127 0" result="hardAlpha"/>
<feOffset dy="4"/>
<feGaussianBlur stdDeviation="34"/>
<feComposite in2="hardAlpha" operator="out"/>
<feColorMatrix type="matrix" values="0 0 0 0 0 0 0 0 0 0 0 0 0 0 0 0 0 0 0.07 0"/>
<feBlend mode="normal" in2="BackgroundImageFix" result="effect1_dropShadow_1223_1513"/>
<feBlend mode="normal" in="SourceGraphic" in2="effect1_dropShadow_1223_1513" result="shape"/>
</filter>
<filter id="filter2_d_1223_1513" x="127.582" y="344.09" width="75.8379" height="75.8379" filterUnits="userSpaceOnUse" color-interpolation-filters="sRGB">
<feFlood flood-opacity="0" result="BackgroundImageFix"/>
<feColorMatrix in="SourceAlpha" type="matrix" values="0 0 0 0 0 0 0 0 0 0 0 0 0 0 0 0 0 0 127 0" result="hardAlpha"/>
<feOffset dx="3" dy="4"/>
<feGaussianBlur stdDeviation="8.5"/>
<feComposite in2="hardAlpha" operator="out"/>
<feColorMatrix type="matrix" values="0 0 0 0 0 0 0 0 0 0 0 0 0 0 0 0 0 0 0.05 0"/>
<feBlend mode="normal" in2="BackgroundImageFix" result="effect1_dropShadow_1223_1513"/>
<feBlend mode="normal" in="SourceGraphic" in2="effect1_dropShadow_1223_1513" result="shape"/>
</filter>
<filter id="filter3_d_1223_1513" x="196.962" y="494.47" width="81.0769" height="81.0771" filterUnits="userSpaceOnUse" color-interpolation-filters="sRGB">
<feFlood flood-opacity="0" result="BackgroundImageFix"/>
<feColorMatrix in="SourceAlpha" type="matrix" values="0 0 0 0 0 0 0 0 0 0 0 0 0 0 0 0 0 0 127 0" result="hardAlpha"/>
<feOffset dx="3" dy="4"/>
<feGaussianBlur stdDeviation="8.5"/>
<feComposite in2="hardAlpha" operator="out"/>
<feColorMatrix type="matrix" values="0 0 0 0 0 0 0 0 0 0 0 0 0 0 0 0 0 0 0.05 0"/>
<feBlend mode="normal" in2="BackgroundImageFix" result="effect1_dropShadow_1223_1513"/>
<feBlend mode="normal" in="SourceGraphic" in2="effect1_dropShadow_1223_1513" result="shape"/>
</filter>
<filter id="filter4_d_1223_1513" x="142.962" y="443.47" width="183.077" height="183.077" filterUnits="userSpaceOnUse" color-interpolation-filters="sRGB">
<feFlood flood-opacity="0" result="BackgroundImageFix"/>
<feColorMatrix in="SourceAlpha" type="matrix" values="0 0 0 0 0 0 0 0 0 0 0 0 0 0 0 0 0 0 127 0" result="hardAlpha"/>
<feOffset dy="4"/>
<feGaussianBlur stdDeviation="34"/>
<feComposite in2="hardAlpha" operator="out"/>
<feColorMatrix type="matrix" values="0 0 0 0 0 0 0 0 0 0 0 0 0 0 0 0 0 0 0.07 0"/>
<feBlend mode="normal" in2="BackgroundImageFix" result="effect1_dropShadow_1223_1513"/>
<feBlend mode="normal" in="SourceGraphic" in2="effect1_dropShadow_1223_1513" result="shape"/>
</filter>
<filter id="filter5_d_1223_1513" x="620" y="220.509" width="79" height="79" filterUnits="userSpaceOnUse" color-interpolation-filters="sRGB">
<feFlood flood-opacity="0" result="BackgroundImageFix"/>
<feColorMatrix in="SourceAlpha" type="matrix" values="0 0 0 0 0 0 0 0 0 0 0 0 0 0 0 0 0 0 127 0" result="hardAlpha"/>
<feOffset dx="3" dy="4"/>
<feGaussianBlur stdDeviation="8.5"/>
<feComposite in2="hardAlpha" operator="out"/>
<feColorMatrix type="matrix" values="0 0 0 0 0 0 0 0 0 0 0 0 0 0 0 0 0 0 0.05 0"/>
<feBlend mode="normal" in2="BackgroundImageFix" result="effect1_dropShadow_1223_1513"/>
<feBlend mode="normal" in="SourceGraphic" in2="effect1_dropShadow_1223_1513" result="shape"/>
</filter>
<filter id="filter6_d_1223_1513" x="566" y="169.509" width="181" height="181" filterUnits="userSpaceOnUse" color-interpolation-filters="sRGB">
<feFlood flood-opacity="0" result="BackgroundImageFix"/>
<feColorMatrix in="SourceAlpha" type="matrix" values="0 0 0 0 0 0 0 0 0 0 0 0 0 0 0 0 0 0 127 0" result="hardAlpha"/>
<feOffset dy="4"/>
<feGaussianBlur stdDeviation="34"/>
<feComposite in2="hardAlpha" operator="out"/>
<feColorMatrix type="matrix" values="0 0 0 0 0 0 0 0 0 0 0 0 0 0 0 0 0 0 0.07 0"/>
<feBlend mode="normal" in2="BackgroundImageFix" result="effect1_dropShadow_1223_1513"/>
<feBlend mode="normal" in="SourceGraphic" in2="effect1_dropShadow_1223_1513" result="shape"/>
</filter>
<filter id="filter7_d_1223_1513" x="170" y="170.057" width="73.452" height="73.4521" filterUnits="userSpaceOnUse" color-interpolation-filters="sRGB">
<feFlood flood-opacity="0" result="BackgroundImageFix"/>
<feColorMatrix in="SourceAlpha" type="matrix" values="0 0 0 0 0 0 0 0 0 0 0 0 0 0 0 0 0 0 127 0" result="hardAlpha"/>
<feOffset dx="3" dy="4"/>
<feGaussianBlur stdDeviation="8.5"/>
<feComposite in2="hardAlpha" operator="out"/>
<feColorMatrix type="matrix" values="0 0 0 0 0 0 0 0 0 0 0 0 0 0 0 0 0 0 0.05 0"/>
<feBlend mode="normal" in2="BackgroundImageFix" result="effect1_dropShadow_1223_1513"/>
<feBlend mode="normal" in="SourceGraphic" in2="effect1_dropShadow_1223_1513" result="shape"/>
</filter>
<filter id="filter8_d_1223_1513" x="116" y="119.057" width="175.452" height="175.452" filterUnits="userSpaceOnUse" color-interpolation-filters="sRGB">
<feFlood flood-opacity="0" result="BackgroundImageFix"/>
<feColorMatrix in="SourceAlpha" type="matrix" values="0 0 0 0 0 0 0 0 0 0 0 0 0 0 0 0 0 0 127 0" result="hardAlpha"/>
<feOffset dy="4"/>
<feGaussianBlur stdDeviation="34"/>
<feComposite in2="hardAlpha" operator="out"/>
<feColorMatrix type="matrix" values="0 0 0 0 0 0 0 0 0 0 0 0 0 0 0 0 0 0 0.07 0"/>
<feBlend mode="normal" in2="BackgroundImageFix" result="effect1_dropShadow_1223_1513"/>
<feBlend mode="normal" in="SourceGraphic" in2="effect1_dropShadow_1223_1513" result="shape"/>
</filter>
<filter id="filter9_d_1223_1513" x="610" y="580.111" width="77.3973" height="77.3975" filterUnits="userSpaceOnUse" color-interpolation-filters="sRGB">
<feFlood flood-opacity="0" result="BackgroundImageFix"/>
<feColorMatrix in="SourceAlpha" type="matrix" values="0 0 0 0 0 0 0 0 0 0 0 0 0 0 0 0 0 0 127 0" result="hardAlpha"/>
<feOffset dx="3" dy="4"/>
<feGaussianBlur stdDeviation="8.5"/>
<feComposite in2="hardAlpha" operator="out"/>
<feColorMatrix type="matrix" values="0 0 0 0 0 0 0 0 0 0 0 0 0 0 0 0 0 0 0.05 0"/>
<feBlend mode="normal" in2="BackgroundImageFix" result="effect1_dropShadow_1223_1513"/>
<feBlend mode="normal" in="SourceGraphic" in2="effect1_dropShadow_1223_1513" result="shape"/>
</filter>
<filter id="filter10_d_1223_1513" x="556" y="529.111" width="179.397" height="179.397" filterUnits="userSpaceOnUse" color-interpolation-filters="sRGB">
<feFlood flood-opacity="0" result="BackgroundImageFix"/>
<feColorMatrix in="SourceAlpha" type="matrix" values="0 0 0 0 0 0 0 0 0 0 0 0 0 0 0 0 0 0 127 0" result="hardAlpha"/>
<feOffset dy="4"/>
<feGaussianBlur stdDeviation="34"/>
<feComposite in2="hardAlpha" operator="out"/>
<feColorMatrix type="matrix" values="0 0 0 0 0 0 0 0 0 0 0 0 0 0 0 0 0 0 0.07 0"/>
<feBlend mode="normal" in2="BackgroundImageFix" result="effect1_dropShadow_1223_1513"/>
<feBlend mode="normal" in="SourceGraphic" in2="effect1_dropShadow_1223_1513" result="shape"/>
</filter>
<linearGradient id="paint0_linear_1223_1513" x1="792.205" y1="998.437" x2="130.355" y2="236.212" gradientUnits="userSpaceOnUse">
<stop stop-color="#8CD257"/>
<stop offset="1" stop-color="#FF94FB"/>
</linearGradient>
</defs>
</svg>
