<svg width="636" height="634" viewBox="0 0 636 634" fill="none" xmlns="http://www.w3.org/2000/svg">
<path d="M328.942 224.136C331.592 219.536 335.52 216.816 339.628 214.362C350.132 208.087 361.858 203.604 375.195 203.094C383.256 202.785 395.278 202.842 405.377 212.627C414.917 221.872 423.331 241.647 428.148 253.785C453.497 317.664 415.961 350.635 390.819 368.134C363.152 387.391 330.311 402.178 291.201 397.519C263.727 394.247 229.312 376.256 207.288 331.663C167.698 251.506 210.071 205.451 240.662 182.964C263.045 166.513 289.233 154.766 318.528 151.599C336.434 149.663 355.743 152.497 377.69 172.158C416.151 206.612 448.771 274.84 445.99 318.779C443.564 357.089 417.138 373.504 394.107 384.925C376.726 393.545 362.358 398.049 342.284 401.246C322.801 404.349 299.059 407.269 274.808 396.573C254.682 387.697 245.419 362.239 239.971 339.472C228.472 291.421 228.087 244.798 233.294 206.804C242.15 142.18 267.82 92.4739 303.27 58.4005C343.356 19.8713 399.051 -4.58914 469.352 26.4321C494.764 37.6453 530.735 60.0002 550.028 97.875C567.695 132.558 560.015 162.199 551.433 181.425C541.912 202.754 531.477 215.318 516.813 230.593C495.766 252.516 476.307 267.571 451.802 284.699C375.696 337.897 289.707 377.413 191.589 388.093C170.296 390.411 132.412 391.313 106.254 384.045C95.7301 381.122 74.7935 371.747 63.4208 355.243C54.6169 342.467 51.015 319.678 50.7278 309.344C50.188 289.917 55.6371 264.714 60.5242 250.726C77.2146 202.954 107.487 169.249 142.223 145.848C160.135 133.781 189.726 119.303 210.891 113.446C243.917 104.308 281.508 101.588 323.971 119.855C370.903 140.045 413.987 186.62 450.404 245.739C469.887 277.368 482.38 302.09 496.551 335.617C510.777 369.276 526.438 411.859 523.471 440.596C519.281 481.174 477.659 483.966 449.973 487.184C430.413 489.457 394.222 490.275 373.834 489.59C338.416 488.4 301.166 486.103 261.637 471.108C228.249 458.442 188.902 432.079 172.988 378.818C163.932 348.509 164.287 326.629 166.848 302.37C170.608 266.761 178.571 242.771 191.185 215.444C220.506 151.921 265.929 107.826 321.343 82.4032C366.393 61.7351 427.625 47.8532 495.293 100.704C527.657 125.982 553.991 169.044 566.941 211.581C583.82 267.024 573.365 306.268 554.483 334.108C539.664 355.957 512.181 380.805 492.864 394.548C465.964 413.685 425.405 434.83 394.486 446.289C363.236 457.871 319.312 468.428 283.679 471.019C239.097 474.261 189.338 470.451 136.686 446.522C99.772 429.746 50.8521 395.086 31.733 336.979C22.0057 307.416 22.3886 287.664 25.9171 264.959C31.0272 232.078 40.9479 212.413 55.8405 189.628C91.872 134.501 142.84 95.9095 201.989 77.9C231.934 68.7827 254.634 66.0753 289.901 70.7351C332.541 76.3688 378.718 96.0194 425.713 125.28C477.536 157.547 536.089 203.602 583.369 262.518C597.338 279.925 615.945 307.961 624.31 329.747C632.838 351.956 635.742 379.382 633.821 396.504C630.973 421.887 618.382 448.616 607.681 464.765C592.869 487.118 564.427 515.614 545.667 531.29C476.616 588.987 392.9 625.439 296.916 631.347C258.895 633.688 227.9 632.981 185.027 619.499C152.765 609.353 127.286 597.311 94.2072 567.112C66.9074 542.189 50.737 520.026 33.4131 483.27C15.4206 445.096 8.69885 415.943 4.38798 380.301C-6.0865 293.7 17.2387 232.571 50.8792 187.121C74.2571 155.536 95.4332 137.006 126.196 116.208C168.664 87.4959 216.902 66.4667 270.321 58.7982C321.932 51.389 382.322 57.6481 447.171 102.899C491.2 133.622 538.225 185.252 568.825 243.6C579.627 264.197 593.672 299.612 596.683 320.071C600.735 347.606 594.652 371.249 584.632 386.129C569.854 408.075 538.14 427.2 517.121 437.492C469.112 461.001 415.48 475.528 360.98 485.887C328.046 492.147 301.313 496.001 265.821 495.221C242.613 494.712 221.169 493.285 194.987 481.632C177.051 473.649 164.667 465.247 148.88 443.719C132.842 421.849 125.783 403.35 119.321 378.839C98.76 300.843 111.066 236.013 131.936 188.637C148.068 152.018 165.655 129.216 189.894 102.759C224.179 65.3374 263.674 33.3356 309.51 14.7041C351.106 -2.20353 400.102 -5.39955 457.498 24.2071C476.175 33.8412 503.262 53.0886 522.019 68.427C546.31 88.2914 574.279 113.457 595.62 142.746C606.515 157.7 612.772 168.314 614.606 184.605C616.711 203.315 610.805 214.451 604.521 225.375C593.903 243.833 581.075 256.733 566.692 270.155C538.539 296.429 506.657 316.3 476.221 338.901" stroke="url(#paint0_linear_939_2896)" stroke-opacity="0.14" stroke-width="3" stroke-linecap="round"/>
<defs>
<linearGradient id="paint0_linear_939_2896" x1="688.205" y1="916.437" x2="26.3555" y2="154.212" gradientUnits="userSpaceOnUse">
<stop stop-color="#8CD257"/>
<stop offset="1" stop-color="#FF94FB"/>
</linearGradient>
</defs>
</svg>
