<svg width="151" height="87" viewBox="0 0 151 87" fill="none" xmlns="http://www.w3.org/2000/svg">
<path d="M0.813211 66.3778H39.1911V85H44.13V66.3778H54.8175V61.6818H44.13V2.09091H38.3409L0.813211 62.3295V66.3778ZM39.1911 61.6818H6.92614V61.2365L38.7862 9.90412H39.1911V61.6818ZM75.8208 85.5263C78.2093 85.5263 80.193 83.5831 80.193 81.1541C80.193 78.7656 78.2093 76.782 75.8208 76.782C73.3919 76.782 71.4487 78.7656 71.4487 81.1541C71.4487 83.5831 73.3919 85.5263 75.8208 85.5263ZM124.13 86.1335C139.149 86.1335 150.646 76.2152 150.687 63.4226C150.646 53.3423 143.44 44.1932 133.684 42.1286V41.7642C142.104 39.1328 147.772 31.2791 147.812 22.3324C147.772 10.228 137.287 0.957383 124.13 0.957383C110.771 0.957383 100.407 10.2685 100.407 22.3324C100.407 31.3601 106.196 39.1328 114.576 41.7642V42.1286C104.739 44.2741 97.5327 53.3423 97.5731 63.4226C97.5327 76.2152 109.03 86.1335 124.13 86.1335ZM124.13 81.4375C111.702 81.4375 102.553 73.4624 102.593 63.1392C102.553 52.6946 111.945 44.3956 124.13 44.3956C136.234 44.3956 145.626 52.6946 145.667 63.1392C145.626 73.4624 136.477 81.4375 124.13 81.4375ZM124.13 40.0234C113.604 40.0234 105.346 32.2912 105.386 22.5348C105.346 12.8189 113.523 5.61292 124.13 5.61292C134.656 5.61292 142.833 12.8189 142.833 22.5348C142.833 32.2912 134.575 40.0234 124.13 40.0234Z" fill="#535353" fill-opacity="0.81"/>
</svg>
