<svg width="138" height="23" viewBox="0 0 138 23" fill="none" xmlns="http://www.w3.org/2000/svg">
<path d="M1.78356 17.0653V5.80004H0.145597C0.103998 5.329 0.0675985 4.87498 0.0467989 4.42664C0.0259994 3.9783 0 3.51861 0 3.05325C0 2.58788 -2.90566e-08 2.12252 0.0311993 1.67418C0.0623986 1.22584 0.0883981 0.771822 0.129997 0.300781H11.2994C11.341 0.771822 11.3722 1.23151 11.393 1.67418C11.4138 2.11684 11.4398 2.58221 11.4398 3.05325C11.4398 3.52429 11.4398 3.9783 11.4034 4.42664C11.367 4.87498 11.3514 5.329 11.3098 5.80004H9.4586V17.0369H14.2009L14.2269 13.4332C14.7469 13.3878 15.2201 13.3367 15.7869 13.3367C16.3536 13.3367 17.2012 13.3367 17.7316 13.3651C18.262 13.3934 18.7716 13.4161 19.3592 13.4559V22.5986H0.119597C0.0779983 22.1332 0.0415991 21.6735 0.0207995 21.2252C-1.93711e-08 20.7769 0 20.2774 0 19.8121C0 19.3467 -2.90566e-08 18.887 0.0311993 18.4387C0.0623986 17.9903 0.0883981 17.5307 0.129997 17.0653H1.78356Z" fill="#292929"/>
<path d="M110.014 17.5193V11.7817H108.527C108.486 11.3788 108.454 10.9758 108.434 10.5672C108.413 10.1586 108.397 9.76132 108.397 9.35839C108.397 8.95545 108.397 8.55251 108.434 8.14957C108.47 7.74663 108.486 7.34369 108.527 6.94075H117.341V17.5193H118.823C118.87 17.9222 118.901 18.5522 118.922 18.9551C118.943 19.3581 118.953 19.761 118.953 20.1639C118.953 20.5669 118.953 20.9698 118.922 21.3728C118.891 21.7757 118.87 22.1786 118.823 22.5816H108.527C108.486 22.1805 108.454 21.7776 108.434 21.3728C108.408 20.9698 108.397 20.5669 108.397 20.1639C108.397 19.761 108.397 19.3581 108.434 18.9551C108.47 18.5522 108.486 17.9222 108.527 17.5193H110.014ZM109.078 2.67869C109.065 2.28202 109.149 1.88865 109.322 1.53938C109.495 1.19011 109.75 0.89766 110.061 0.692373C110.716 0.230791 111.788 0 113.275 0C114.762 0 115.83 0.230791 116.478 0.692373C116.801 0.888196 117.069 1.17686 117.252 1.52704C117.435 1.87721 117.527 2.27551 117.518 2.67869C117.528 3.08055 117.437 3.47772 117.253 3.82627C117.07 4.17483 116.801 4.46118 116.478 4.65365C115.812 5.10767 114.736 5.329 113.254 5.329C110.47 5.329 109.078 4.44556 109.078 2.67869Z" fill="#292929"/>
<path d="M22.6873 17.5193V11.7817H21.2053C21.1585 11.3788 21.1273 10.9758 21.1065 10.5672C21.0857 10.1586 21.0753 9.76132 21.0753 9.35839C21.0753 8.95545 21.0753 8.55251 21.1065 8.14957C21.1377 7.74663 21.1585 7.34369 21.2053 6.94075H30.0139V17.5193H31.5011C31.5427 17.9222 31.5739 18.5522 31.5947 18.9551C31.6155 19.3581 31.6311 19.761 31.6311 20.1639C31.6311 20.5669 31.6311 20.9698 31.5947 21.3728C31.5583 21.7757 31.5427 22.1786 31.5011 22.5816H21.2053C21.1585 22.1786 21.1273 21.7757 21.1065 21.3728C21.0857 20.9698 21.0753 20.5669 21.0753 20.1639C21.0753 19.761 21.0753 19.3581 21.1065 18.9551C21.1377 18.5522 21.1585 17.9222 21.2053 17.5193H22.6873ZM21.7513 2.67869C21.7378 2.28137 21.8224 1.88739 21.9962 1.53796C22.17 1.18853 22.4267 0.896491 22.7393 0.692373C23.3945 0.230791 24.4639 0 25.9476 0C27.4313 0 28.5077 0.230791 29.1767 0.692373C29.4888 0.896758 29.7447 1.18902 29.9176 1.53851C30.0905 1.88799 30.1741 2.28182 30.1595 2.67869C30.1734 3.07586 30.0878 3.46965 29.9119 3.81765C29.736 4.16566 29.4764 4.4547 29.1611 4.65365C28.4956 5.10767 27.4192 5.329 25.932 5.329C23.1449 5.329 21.7513 4.44556 21.7513 2.67869Z" fill="#292929"/>
<path d="M33.2794 17.7406C33.6746 17.7066 33.7422 17.6782 34.1478 17.6612C34.5534 17.6441 34.9641 17.6612 35.3801 17.6612C35.7961 17.6612 36.2069 17.6612 36.6125 17.6612C37.0181 17.6612 37.4185 17.7066 37.8137 17.7463L37.8501 17.9733C37.9021 18.2343 38.4429 18.6316 38.7549 18.8246C39.5226 19.1987 40.3484 19.4105 41.1884 19.4488C41.8384 19.4488 42.7484 19.4488 42.9304 18.7678C43.1124 18.0868 42.608 17.6782 41.958 17.525L37.9073 16.5999C37.2757 16.4647 36.655 16.2749 36.0509 16.0324C35.487 15.8219 34.9596 15.5091 34.491 15.1073C34.027 14.763 33.6439 14.3042 33.373 13.768C33.0978 13.1258 32.9642 12.4222 32.983 11.7136C32.9598 10.8705 33.1622 10.0382 33.5654 9.31863C33.9407 8.67727 34.4414 8.13459 35.0317 7.72957C35.6374 7.33945 36.2981 7.06139 36.9869 6.90667C37.6706 6.74667 38.3677 6.66489 39.0669 6.66264C40.4802 6.62033 41.8739 7.0307 43.076 7.84308V7.02018C43.4712 6.98045 43.6896 6.94072 44.0847 6.9237C44.4799 6.90667 44.8751 6.89532 45.2703 6.89532C45.6655 6.89532 46.0607 6.89532 46.4559 6.9237C46.8511 6.95207 47.2463 6.9691 47.6467 7.00883L47.6779 11.339C47.2619 11.373 46.8459 11.4071 46.4299 11.4241C46.0139 11.4411 45.5875 11.4525 45.1559 11.4525C44.7243 11.4525 44.2875 11.4525 43.8664 11.4241C43.4452 11.3957 43.0292 11.373 42.634 11.339V11.146C42.5867 10.9447 42.4979 10.7577 42.3745 10.5994C42.251 10.4411 42.0962 10.3155 41.9216 10.2323C41.5888 10.0451 39.6856 9.3016 38.6405 10.1075C38.2661 10.3912 37.8605 11.3503 38.7393 11.6852C39.2281 11.8725 43.1644 12.5308 43.1644 12.5308C43.869 12.6667 44.564 12.8563 45.2443 13.0983C45.8482 13.3213 46.4127 13.6552 46.9135 14.0858C47.3888 14.4877 47.7746 15.0019 48.0419 15.5897C48.3378 16.2836 48.4803 17.0437 48.4579 17.8087C48.4867 18.6534 48.2956 19.4897 47.9067 20.2207C47.5462 20.8601 47.0482 21.3939 46.4559 21.7757C45.8229 22.1858 45.1298 22.4738 44.4071 22.6269C43.6515 22.8014 42.8812 22.8888 42.1088 22.888C41.2728 22.907 40.4375 22.8252 39.618 22.644C39.0567 22.5192 38.5093 22.329 37.9853 22.0765L37.9593 22.5986C37.5433 22.6383 37.1273 22.6667 36.7009 22.6837C36.2745 22.7007 35.8533 22.7177 35.4373 22.7177C35.0213 22.7177 34.5794 22.7177 34.1634 22.6837C33.7474 22.6496 33.6694 22.5986 33.2794 22.5986V17.7406Z" fill="#292929"/>
<path d="M51.2608 11.9975H49.7009C49.5785 11.2037 49.5073 10.4015 49.4877 9.59689C49.5113 8.77746 49.5825 7.96049 49.7009 7.15088H51.2972V4.60273L58.4471 0.771973V7.18494H61.6086C61.6502 7.58787 61.6814 7.7184 61.7022 8.12134C61.723 8.52428 61.7334 8.93289 61.7334 9.33583C61.7334 9.73877 61.7334 10.1417 61.7022 10.5503C61.671 10.9589 61.6502 11.6286 61.6086 12.0315H58.4419V16.4128C58.4198 16.6032 58.4437 16.7965 58.5112 16.9737C58.5787 17.1509 58.6874 17.3058 58.8267 17.423C59.0937 17.5971 59.3996 17.6875 59.7107 17.684C60.0737 17.6999 60.4369 17.6539 60.787 17.5478C61.051 17.4736 61.3033 17.357 61.5358 17.2016V22.0312C60.8624 22.2986 60.1653 22.4888 59.4559 22.5987C58.6541 22.7137 57.8465 22.7725 57.0379 22.7747C54.9337 22.7747 53.4205 22.3169 52.4984 21.4013C51.578 20.4876 51.2452 19.1766 51.2452 17.5422L51.2608 11.9975Z" fill="#292929"/>
<path d="M86.4119 17.5251V11.8499H84.6336C84.5868 11.447 84.566 10.2438 84.5608 9.61954C84.5556 8.99527 84.5608 7.5027 84.6024 7.09976H93.8374V8.80232C94.0558 8.64909 96.1669 7.56513 96.6973 7.34379C97.5075 7.083 98.3486 6.95486 99.1933 6.96356C99.8042 6.94619 100.415 6.99179 101.018 7.09976C101.722 7.19681 102.4 7.44981 103.01 7.84321C103.564 8.24644 104.031 8.77719 104.378 9.39821C104.719 10.0063 104.899 10.7056 104.898 11.4186L104.991 17.4967H106.634C106.681 17.8996 106.718 18.5182 106.738 18.9212C106.759 19.3241 106.775 19.7327 106.775 20.1357C106.775 20.5386 106.775 20.9415 106.738 21.3502C106.702 21.7588 106.681 22.156 106.634 22.559H97.7581L97.5553 12.9112C97.5189 12.0712 96.6141 11.6456 96.0369 11.6229C95.5535 11.5803 95.0691 11.6927 94.6434 11.9464C94.3819 12.1253 94.1699 12.3783 94.0298 12.6785C93.9091 13.028 93.8542 13.4006 93.8686 13.7738L93.8166 17.4854H95.5846C95.7729 18.3491 95.8482 19.2376 95.8081 20.1243C95.8073 20.9361 95.7464 21.7465 95.6261 22.5476H84.5868C84.54 22.1447 84.54 20.777 84.5348 20.1697C84.5348 19.0347 84.6648 17.4967 84.6648 17.4967L86.4119 17.5251Z" fill="#292929"/>
<path d="M129.644 11.1174C128.697 11.2479 127.512 12.4227 127.512 14.5793C127.512 15.2943 127.564 18.2284 130.195 18.586C130.511 18.6393 130.834 18.6111 131.138 18.5037C131.443 18.3963 131.72 18.2126 131.947 17.9674C132.327 17.4602 132.594 16.8638 132.727 16.2251L138 17.2636C137.54 18.5894 136.842 19.8013 135.946 20.8277C134.225 22.7061 131.552 22.9842 130.127 22.9842C128.728 23.0522 127.326 22.8973 125.967 22.5245C124.801 22.1926 123.706 21.6142 122.744 20.822C121.898 20.1485 121.217 19.2576 120.762 18.2284C120.296 17.2082 120.055 16.0827 120.06 14.9425C120.037 13.7505 120.233 12.5655 120.638 11.4579C121.022 10.5419 121.58 9.72553 122.276 9.06299C122.978 8.32592 123.819 7.76435 124.74 7.41718C125.835 6.96854 126.992 6.72858 128.162 6.70779C129.049 6.66352 129.936 6.75909 130.798 6.99155C131.598 7.22302 132.375 7.54049 133.117 7.9393L133.148 7.05397C133.57 6.99722 133.278 7.05397 133.668 6.99155C134.058 6.92912 134.526 6.96317 134.974 6.96317C135.421 6.96317 135.821 6.96317 136.258 6.99155C136.695 7.01992 137.132 7.03695 137.579 7.07667V13.6088L135.993 13.6939C135.473 13.6939 134.953 13.7223 134.433 13.7223C133.913 13.7223 132.873 13.6939 132.873 13.6939C132.873 13.6939 132.353 10.7428 129.644 11.1174Z" fill="#292929"/>
<path d="M82.5172 11.4805C82.1007 10.461 81.468 9.5642 80.6713 8.86425C79.7438 8.07225 78.6842 7.48439 77.5513 7.13331C74.6779 6.30843 71.6578 6.30843 68.7843 7.13331C67.66 7.48177 66.6102 8.07009 65.6956 8.86425C64.9064 9.56679 64.281 10.4633 63.8704 11.4805C63.4594 12.5074 63.2521 13.6175 63.2621 14.7381C63.2532 15.864 63.4604 16.9794 63.8704 18.0126C64.2768 19.0325 64.903 19.9301 65.6956 20.6289C66.6159 21.4069 67.6644 21.9849 68.7843 22.3315C71.6551 23.1788 74.6806 23.1788 77.5513 22.3315C78.6799 21.9823 79.7382 21.4048 80.6713 20.6289C81.4714 19.9326 82.1048 19.0348 82.5172 18.0126C82.9231 16.9782 83.1285 15.8633 83.1204 14.7381C83.1291 13.6183 82.9236 12.5088 82.5172 11.4805ZM73.199 18.3645C71.7015 18.3645 70.8487 16.7471 70.8487 14.7551C70.8487 12.7631 71.8107 11.14 73.199 11.14C74.5874 11.14 75.5494 12.7574 75.5494 14.7551C75.5494 16.7528 74.6498 18.3645 73.199 18.3645Z" fill="#292929"/>
</svg>
